%TF.GenerationSoftware,KiCad,Pcbnew,9.0.6*%
%TF.CreationDate,2026-02-18T16:38:32+00:00*%
%TF.ProjectId,Multi_Tone,4d756c74-695f-4546-9f6e-652e6b696361,rev?*%
%TF.SameCoordinates,Original*%
%TF.FileFunction,Plated,1,2,PTH,Drill*%
%TF.FilePolarity,Positive*%
%FSLAX46Y46*%
G04 Gerber Fmt 4.6, Leading zero omitted, Abs format (unit mm)*
G04 Created by KiCad (PCBNEW 9.0.6) date 2026-02-18 16:38:32*
%MOMM*%
%LPD*%
G01*
G04 APERTURE LIST*
%TA.AperFunction,ViaDrill*%
%ADD10C,0.300000*%
%TD*%
%TA.AperFunction,ViaDrill*%
%ADD11C,0.400000*%
%TD*%
%TA.AperFunction,ComponentDrill*%
%ADD12C,0.750000*%
%TD*%
%TA.AperFunction,ComponentDrill*%
%ADD13C,0.800000*%
%TD*%
%TA.AperFunction,ComponentDrill*%
%ADD14C,0.900000*%
%TD*%
%TA.AperFunction,ComponentDrill*%
%ADD15C,1.000000*%
%TD*%
%TA.AperFunction,ComponentDrill*%
%ADD16C,1.100000*%
%TD*%
%TA.AperFunction,ComponentDrill*%
%ADD17C,1.300000*%
%TD*%
G04 APERTURE END LIST*
D10*
X49125000Y-59500000D03*
X64750000Y-81250000D03*
X73750000Y-77500000D03*
D11*
X60500000Y-28000000D03*
X62500000Y-49500000D03*
X69000000Y-73500000D03*
X95250000Y-73500000D03*
D12*
%TO.C,Q1*%
X101210000Y-27500000D03*
%TO.C,Q3*%
X101210000Y-53000000D03*
%TO.C,Q2*%
X101210000Y-77000000D03*
%TO.C,Q1*%
X102480000Y-27500000D03*
%TO.C,Q3*%
X102480000Y-53000000D03*
%TO.C,Q2*%
X102480000Y-77000000D03*
%TO.C,Q1*%
X103750000Y-27500000D03*
%TO.C,Q3*%
X103750000Y-53000000D03*
%TO.C,Q2*%
X103750000Y-77000000D03*
D13*
%TO.C,R1*%
X16000000Y-57000000D03*
X26160000Y-57000000D03*
%TO.C,C4*%
X29500000Y-35250000D03*
%TO.C,C2*%
X29750000Y-44250000D03*
%TO.C,BR1*%
X31880000Y-20170000D03*
X31880000Y-25250000D03*
%TO.C,C4*%
X33000000Y-35250000D03*
%TO.C,C2*%
X33250000Y-44250000D03*
%TO.C,BR1*%
X39500000Y-20170000D03*
X39500000Y-25250000D03*
%TO.C,R12*%
X40840000Y-73750000D03*
%TO.C,R8*%
X40920000Y-68500000D03*
%TO.C,C8*%
X41000000Y-59500000D03*
%TO.C,C7*%
X41000000Y-63500000D03*
%TO.C,C3*%
X45000000Y-18500000D03*
%TO.C,C1*%
X45000000Y-28250000D03*
%TO.C,C8*%
X46000000Y-59500000D03*
%TO.C,C7*%
X46000000Y-63500000D03*
%TO.C,C13*%
X46250000Y-77500000D03*
%TO.C,C3*%
X48500000Y-18500000D03*
%TO.C,C1*%
X48500000Y-28250000D03*
%TO.C,R12*%
X51000000Y-73750000D03*
%TO.C,R8*%
X51080000Y-68500000D03*
%TO.C,C13*%
X51250000Y-77500000D03*
%TO.C,R16*%
X52920000Y-46540000D03*
%TO.C,R15*%
X53000000Y-57000000D03*
%TO.C,R13*%
X53080000Y-62250000D03*
%TO.C,U2*%
X54550000Y-68510000D03*
X54550000Y-71050000D03*
X54550000Y-73590000D03*
X54550000Y-76130000D03*
X54550000Y-78670000D03*
X54550000Y-81210000D03*
X54550000Y-83750000D03*
%TO.C,C14*%
X58500000Y-52250000D03*
%TO.C,U2*%
X62170000Y-68510000D03*
X62170000Y-71050000D03*
X62170000Y-73590000D03*
X62170000Y-76130000D03*
X62170000Y-78670000D03*
X62170000Y-81210000D03*
X62170000Y-83750000D03*
%TO.C,RV1*%
X62920000Y-38000000D03*
%TO.C,R16*%
X63080000Y-46540000D03*
%TO.C,R15*%
X63160000Y-57000000D03*
%TO.C,R13*%
X63240000Y-62250000D03*
%TO.C,C14*%
X63500000Y-52250000D03*
%TO.C,RV1*%
X65460000Y-38000000D03*
%TO.C,C11*%
X66000000Y-76000000D03*
%TO.C,U1*%
X66380000Y-44460000D03*
X66380000Y-47000000D03*
X66380000Y-49540000D03*
X66380000Y-52080000D03*
%TO.C,C10*%
X66920000Y-64250000D03*
%TO.C,R11*%
X66920000Y-68000000D03*
%TO.C,R5*%
X66920000Y-87500000D03*
%TO.C,R6*%
X67090000Y-80000000D03*
%TO.C,C6*%
X67170000Y-84000000D03*
%TO.C,RV1*%
X68000000Y-38000000D03*
%TO.C,C11*%
X71000000Y-76000000D03*
%TO.C,C9*%
X71920000Y-60000000D03*
%TO.C,C10*%
X71920000Y-64250000D03*
%TO.C,C6*%
X72170000Y-84000000D03*
%TO.C,C5*%
X72250000Y-71750000D03*
%TO.C,U1*%
X74000000Y-44460000D03*
X74000000Y-47000000D03*
X74000000Y-49540000D03*
X74000000Y-52080000D03*
%TO.C,C9*%
X76920000Y-60000000D03*
%TO.C,C12*%
X77000000Y-44330000D03*
%TO.C,R11*%
X77080000Y-68000000D03*
%TO.C,R5*%
X77080000Y-87500000D03*
%TO.C,C5*%
X77250000Y-71750000D03*
%TO.C,R6*%
X77250000Y-80000000D03*
%TO.C,C12*%
X82000000Y-44330000D03*
%TO.C,D3*%
X91750000Y-32500000D03*
X91750000Y-40120000D03*
%TO.C,D7*%
X91750000Y-58000000D03*
X91750000Y-65620000D03*
%TO.C,D5*%
X91750000Y-81940000D03*
X91750000Y-89560000D03*
D14*
%TO.C,D1*%
X17460000Y-52000000D03*
X20000000Y-52000000D03*
%TO.C,D4*%
X107250000Y-77000000D03*
%TO.C,D2*%
X107500000Y-27500000D03*
%TO.C,D6*%
X107750000Y-53000000D03*
%TO.C,D4*%
X109790000Y-77000000D03*
%TO.C,D2*%
X110040000Y-27500000D03*
%TO.C,D6*%
X110290000Y-53000000D03*
D15*
%TO.C,TP2*%
X28250000Y-17750000D03*
%TO.C,TP4*%
X28250000Y-28000000D03*
%TO.C,TP14*%
X31000000Y-81750000D03*
%TO.C,TP16*%
X31000000Y-87930000D03*
%TO.C,TP8*%
X39000000Y-36000000D03*
%TO.C,TP6*%
X39000000Y-40500000D03*
%TO.C,TP3*%
X39000000Y-45000000D03*
%TO.C,TP5*%
X63000000Y-28000000D03*
%TO.C,TP15*%
X69750000Y-33000000D03*
%TO.C,TP1*%
X79000000Y-49460000D03*
%TO.C,TP10*%
X86250000Y-89500000D03*
%TO.C,TP7*%
X86500000Y-40250000D03*
%TO.C,TP12*%
X86500000Y-65500000D03*
%TO.C,TP9*%
X102500000Y-20000000D03*
%TO.C,TP13*%
X102500000Y-45500000D03*
%TO.C,TP11*%
X102500000Y-69500000D03*
D16*
%TO.C,U4*%
X48500000Y-36920000D03*
X48500000Y-39460000D03*
X48500000Y-42000000D03*
%TO.C,U3*%
X55750000Y-17250000D03*
X55750000Y-19790000D03*
X55750000Y-22330000D03*
D17*
%TO.C,J1*%
X20000000Y-17665000D03*
X20000000Y-22745000D03*
X20000000Y-27825000D03*
%TO.C,J2*%
X20000000Y-35000000D03*
X20000000Y-40080000D03*
X20000000Y-45160000D03*
%TO.C,J3*%
X21000000Y-81920000D03*
X21000000Y-87000000D03*
M02*
