%TF.GenerationSoftware,KiCad,Pcbnew,9.0.6*%
%TF.CreationDate,2026-02-18T16:38:22+00:00*%
%TF.ProjectId,Multi_Tone,4d756c74-695f-4546-9f6e-652e6b696361,rev?*%
%TF.SameCoordinates,Original*%
%TF.FileFunction,Copper,L1,Top*%
%TF.FilePolarity,Positive*%
%FSLAX46Y46*%
G04 Gerber Fmt 4.6, Leading zero omitted, Abs format (unit mm)*
G04 Created by KiCad (PCBNEW 9.0.6) date 2026-02-18 16:38:22*
%MOMM*%
%LPD*%
G01*
G04 APERTURE LIST*
G04 Aperture macros list*
%AMRoundRect*
0 Rectangle with rounded corners*
0 $1 Rounding radius*
0 $2 $3 $4 $5 $6 $7 $8 $9 X,Y pos of 4 corners*
0 Add a 4 corners polygon primitive as box body*
4,1,4,$2,$3,$4,$5,$6,$7,$8,$9,$2,$3,0*
0 Add four circle primitives for the rounded corners*
1,1,$1+$1,$2,$3*
1,1,$1+$1,$4,$5*
1,1,$1+$1,$6,$7*
1,1,$1+$1,$8,$9*
0 Add four rect primitives between the rounded corners*
20,1,$1+$1,$2,$3,$4,$5,0*
20,1,$1+$1,$4,$5,$6,$7,0*
20,1,$1+$1,$6,$7,$8,$9,0*
20,1,$1+$1,$8,$9,$2,$3,0*%
G04 Aperture macros list end*
%TA.AperFunction,ComponentPad*%
%ADD10R,1.700000X1.700000*%
%TD*%
%TA.AperFunction,ComponentPad*%
%ADD11R,2.000000X1.905000*%
%TD*%
%TA.AperFunction,ComponentPad*%
%ADD12O,2.000000X1.905000*%
%TD*%
%TA.AperFunction,ComponentPad*%
%ADD13R,1.050000X1.500000*%
%TD*%
%TA.AperFunction,ComponentPad*%
%ADD14O,1.050000X1.500000*%
%TD*%
%TA.AperFunction,ComponentPad*%
%ADD15R,1.600000X1.600000*%
%TD*%
%TA.AperFunction,ComponentPad*%
%ADD16O,1.600000X1.600000*%
%TD*%
%TA.AperFunction,ComponentPad*%
%ADD17C,1.600000*%
%TD*%
%TA.AperFunction,ComponentPad*%
%ADD18RoundRect,0.250000X-0.550000X-0.550000X0.550000X-0.550000X0.550000X0.550000X-0.550000X0.550000X0*%
%TD*%
%TA.AperFunction,SMDPad,CuDef*%
%ADD19RoundRect,0.250000X-0.362500X-1.425000X0.362500X-1.425000X0.362500X1.425000X-0.362500X1.425000X0*%
%TD*%
%TA.AperFunction,ComponentPad*%
%ADD20RoundRect,0.250000X-1.050000X1.050000X-1.050000X-1.050000X1.050000X-1.050000X1.050000X1.050000X0*%
%TD*%
%TA.AperFunction,ComponentPad*%
%ADD21C,2.600000*%
%TD*%
%TA.AperFunction,ComponentPad*%
%ADD22RoundRect,0.250000X-0.550000X0.550000X-0.550000X-0.550000X0.550000X-0.550000X0.550000X0.550000X0*%
%TD*%
%TA.AperFunction,ComponentPad*%
%ADD23R,1.800000X1.800000*%
%TD*%
%TA.AperFunction,ComponentPad*%
%ADD24C,1.800000*%
%TD*%
%TA.AperFunction,ComponentPad*%
%ADD25RoundRect,0.250000X0.550000X0.550000X-0.550000X0.550000X-0.550000X-0.550000X0.550000X-0.550000X0*%
%TD*%
%TA.AperFunction,ComponentPad*%
%ADD26C,1.440000*%
%TD*%
%TA.AperFunction,ViaPad*%
%ADD27C,0.800000*%
%TD*%
%TA.AperFunction,ViaPad*%
%ADD28C,0.600000*%
%TD*%
%TA.AperFunction,Conductor*%
%ADD29C,0.800000*%
%TD*%
%TA.AperFunction,Conductor*%
%ADD30C,0.400000*%
%TD*%
%TA.AperFunction,Conductor*%
%ADD31C,0.250000*%
%TD*%
G04 APERTURE END LIST*
D10*
%TO.P,TP12,1,1*%
%TO.N,/OUT_MID*%
X86500000Y-65500000D03*
%TD*%
D11*
%TO.P,U3,1,IN*%
%TO.N,Net-(BR1-+)*%
X55750000Y-22330000D03*
D12*
%TO.P,U3,2,GND*%
%TO.N,GND*%
X55750000Y-19790000D03*
%TO.P,U3,3,OUT*%
%TO.N,+12V*%
X55750000Y-17250000D03*
%TD*%
D13*
%TO.P,Q2,1,E*%
%TO.N,GND*%
X101210000Y-77000000D03*
D14*
%TO.P,Q2,2,B*%
%TO.N,Net-(Q2-B)*%
X102480000Y-77000000D03*
%TO.P,Q2,3,C*%
%TO.N,Net-(D4-K)*%
X103750000Y-77000000D03*
%TD*%
D10*
%TO.P,TP2,1,1*%
%TO.N,/VAC+*%
X28250000Y-17750000D03*
%TD*%
D15*
%TO.P,BR1,1,+*%
%TO.N,Net-(BR1-+)*%
X39500000Y-25250000D03*
D16*
%TO.P,BR1,2,-*%
%TO.N,Net-(BR1--)*%
X39500000Y-20170000D03*
%TO.P,BR1,3*%
%TO.N,/VAC+*%
X31880000Y-20170000D03*
%TO.P,BR1,4*%
%TO.N,/VAC-*%
X31880000Y-25250000D03*
%TD*%
D17*
%TO.P,C5,1*%
%TO.N,/OUT_LOW*%
X72250000Y-71750000D03*
%TO.P,C5,2*%
%TO.N,Net-(C5-Pad2)*%
X77250000Y-71750000D03*
%TD*%
D18*
%TO.P,C2,1*%
%TO.N,+12V*%
X29750000Y-44250000D03*
D17*
%TO.P,C2,2*%
%TO.N,GND*%
X33250000Y-44250000D03*
%TD*%
D13*
%TO.P,Q1,1,E*%
%TO.N,GND*%
X101210000Y-27500000D03*
D14*
%TO.P,Q1,2,B*%
%TO.N,Net-(Q1-B)*%
X102480000Y-27500000D03*
%TO.P,Q1,3,C*%
%TO.N,Net-(D2-K)*%
X103750000Y-27500000D03*
%TD*%
D10*
%TO.P,TP6,1,1*%
%TO.N,GND*%
X39000000Y-40500000D03*
%TD*%
%TO.P,TP4,1,1*%
%TO.N,/VAC-*%
X28250000Y-28000000D03*
%TD*%
%TO.P,TP14,1,1*%
%TO.N,/SIGNAL*%
X31000000Y-81750000D03*
%TD*%
%TO.P,TP16,1,1*%
%TO.N,GND*%
X31000000Y-87930000D03*
%TD*%
%TO.P,TP10,1,1*%
%TO.N,/OUT_HIGH*%
X86250000Y-89500000D03*
%TD*%
%TO.P,TP7,1,1*%
%TO.N,/OUT_LOW*%
X86500000Y-40250000D03*
%TD*%
%TO.P,TP15,1,1*%
%TO.N,/V_AMP*%
X69750000Y-33000000D03*
%TD*%
D17*
%TO.P,C12,1*%
%TO.N,+12V*%
X77000000Y-44330000D03*
%TO.P,C12,2*%
%TO.N,GND*%
X82000000Y-44330000D03*
%TD*%
D19*
%TO.P,R3,1*%
%TO.N,+12V*%
X95287500Y-33250000D03*
%TO.P,R3,2*%
%TO.N,Net-(D2-A)*%
X101212500Y-33250000D03*
%TD*%
D17*
%TO.P,C8,1*%
%TO.N,Net-(C7-Pad2)*%
X41000000Y-59500000D03*
%TO.P,C8,2*%
%TO.N,Net-(U2C-+)*%
X46000000Y-59500000D03*
%TD*%
D20*
%TO.P,J1,1,Pin_1*%
%TO.N,/VAC+*%
X20000000Y-17665000D03*
D21*
%TO.P,J1,2,Pin_2*%
%TO.N,GNDPWR*%
X20000000Y-22745000D03*
%TO.P,J1,3,Pin_3*%
%TO.N,/VAC-*%
X20000000Y-27825000D03*
%TD*%
D22*
%TO.P,D5,1,K*%
%TO.N,Net-(D5-K)*%
X91750000Y-81940000D03*
D17*
%TO.P,D5,2,A*%
%TO.N,/OUT_HIGH*%
X91750000Y-89560000D03*
%TD*%
D18*
%TO.P,U1,1*%
%TO.N,/V_AMP*%
X66380000Y-44460000D03*
D17*
%TO.P,U1,2,-*%
%TO.N,Net-(U1A--)*%
X66380000Y-47000000D03*
%TO.P,U1,3,+*%
%TO.N,GND*%
X66380000Y-49540000D03*
%TO.P,U1,4,V-*%
%TO.N,-12V*%
X66380000Y-52080000D03*
%TO.P,U1,5,+*%
%TO.N,/SIGNAL*%
X74000000Y-52080000D03*
%TO.P,U1,6,-*%
%TO.N,Net-(U1B--)*%
X74000000Y-49540000D03*
%TO.P,U1,7*%
X74000000Y-47000000D03*
%TO.P,U1,8,V+*%
%TO.N,+12V*%
X74000000Y-44460000D03*
%TD*%
D22*
%TO.P,D3,1,K*%
%TO.N,Net-(D3-K)*%
X91750000Y-32500000D03*
D17*
%TO.P,D3,2,A*%
%TO.N,/OUT_LOW*%
X91750000Y-40120000D03*
%TD*%
D23*
%TO.P,D6,1,K*%
%TO.N,Net-(D6-K)*%
X107750000Y-53000000D03*
D24*
%TO.P,D6,2,A*%
%TO.N,Net-(D6-A)*%
X110290000Y-53000000D03*
%TD*%
D10*
%TO.P,TP9,1,1*%
%TO.N,Net-(Q1-B)*%
X102500000Y-20000000D03*
%TD*%
%TO.P,TP8,1,1*%
%TO.N,-12V*%
X39000000Y-36000000D03*
%TD*%
D19*
%TO.P,R2,1*%
%TO.N,GNDPWR*%
X53075000Y-28000000D03*
%TO.P,R2,2*%
%TO.N,GND*%
X59000000Y-28000000D03*
%TD*%
D10*
%TO.P,TP11,1,1*%
%TO.N,Net-(Q2-B)*%
X102500000Y-69500000D03*
%TD*%
D19*
%TO.P,R10,1*%
%TO.N,+12V*%
X95287500Y-58500000D03*
%TO.P,R10,2*%
%TO.N,Net-(D6-A)*%
X101212500Y-58500000D03*
%TD*%
D17*
%TO.P,R12,1*%
%TO.N,GND*%
X40840000Y-73750000D03*
%TO.P,R12,2*%
%TO.N,Net-(U2C-+)*%
X51000000Y-73750000D03*
%TD*%
D10*
%TO.P,TP5,1,1*%
%TO.N,GND*%
X63000000Y-28000000D03*
%TD*%
%TO.P,TP3,1,1*%
%TO.N,+12V*%
X39000000Y-45000000D03*
%TD*%
D23*
%TO.P,D1,1,K*%
%TO.N,-12V*%
X17460000Y-52000000D03*
D24*
%TO.P,D1,2,A*%
%TO.N,Net-(D1-A)*%
X20000000Y-52000000D03*
%TD*%
D17*
%TO.P,C9,1*%
%TO.N,Net-(C10-Pad1)*%
X71920000Y-60000000D03*
%TO.P,C9,2*%
%TO.N,/OUT_MID*%
X76920000Y-60000000D03*
%TD*%
%TO.P,C6,1*%
%TO.N,Net-(U2A-+)*%
X67170000Y-84000000D03*
%TO.P,C6,2*%
%TO.N,GND*%
X72170000Y-84000000D03*
%TD*%
D23*
%TO.P,D4,1,K*%
%TO.N,Net-(D4-K)*%
X107250000Y-77000000D03*
D24*
%TO.P,D4,2,A*%
%TO.N,Net-(D4-A)*%
X109790000Y-77000000D03*
%TD*%
D18*
%TO.P,C3,1*%
%TO.N,GNDPWR*%
X45000000Y-18500000D03*
D17*
%TO.P,C3,2*%
%TO.N,Net-(BR1--)*%
X48500000Y-18500000D03*
%TD*%
D20*
%TO.P,J2,1,Pin_1*%
%TO.N,-12V*%
X20000000Y-35000000D03*
D21*
%TO.P,J2,2,Pin_2*%
%TO.N,GND*%
X20000000Y-40080000D03*
%TO.P,J2,3,Pin_3*%
%TO.N,+12V*%
X20000000Y-45160000D03*
%TD*%
D18*
%TO.P,C1,1*%
%TO.N,Net-(BR1-+)*%
X45000000Y-28250000D03*
D17*
%TO.P,C1,2*%
%TO.N,GNDPWR*%
X48500000Y-28250000D03*
%TD*%
%TO.P,R16,1*%
%TO.N,Net-(U1A--)*%
X63080000Y-46540000D03*
%TO.P,R16,2*%
%TO.N,/SIGNAL*%
X52920000Y-46540000D03*
%TD*%
%TO.P,R13,1*%
%TO.N,Net-(C10-Pad1)*%
X63240000Y-62250000D03*
%TO.P,R13,2*%
%TO.N,/V_AMP*%
X53080000Y-62250000D03*
%TD*%
%TO.P,R5,1*%
%TO.N,/V_AMP*%
X66920000Y-87500000D03*
%TO.P,R5,2*%
%TO.N,Net-(C5-Pad2)*%
X77080000Y-87500000D03*
%TD*%
%TO.P,C10,1*%
%TO.N,Net-(C10-Pad1)*%
X71920000Y-64250000D03*
%TO.P,C10,2*%
%TO.N,Net-(U2B--)*%
X66920000Y-64250000D03*
%TD*%
%TO.P,C7,1*%
%TO.N,/V_AMP*%
X46000000Y-63500000D03*
%TO.P,C7,2*%
%TO.N,Net-(C7-Pad2)*%
X41000000Y-63500000D03*
%TD*%
%TO.P,C11,1*%
%TO.N,+12V*%
X66000000Y-76000000D03*
%TO.P,C11,2*%
%TO.N,GND*%
X71000000Y-76000000D03*
%TD*%
%TO.P,R6,1*%
%TO.N,Net-(C5-Pad2)*%
X77250000Y-80000000D03*
%TO.P,R6,2*%
%TO.N,Net-(U2A-+)*%
X67090000Y-80000000D03*
%TD*%
%TO.P,R15,1*%
%TO.N,GND*%
X53000000Y-57000000D03*
%TO.P,R15,2*%
%TO.N,Net-(C10-Pad1)*%
X63160000Y-57000000D03*
%TD*%
%TO.P,R8,1*%
%TO.N,Net-(C7-Pad2)*%
X40920000Y-68500000D03*
%TO.P,R8,2*%
%TO.N,/OUT_HIGH*%
X51080000Y-68500000D03*
%TD*%
%TO.P,C14,1*%
%TO.N,GND*%
X58500000Y-52250000D03*
%TO.P,C14,2*%
%TO.N,-12V*%
X63500000Y-52250000D03*
%TD*%
D25*
%TO.P,U2,1*%
%TO.N,/OUT_LOW*%
X62170000Y-83750000D03*
D17*
%TO.P,U2,2,-*%
X62170000Y-81210000D03*
%TO.P,U2,3,+*%
%TO.N,Net-(U2A-+)*%
X62170000Y-78670000D03*
%TO.P,U2,4,V+*%
%TO.N,+12V*%
X62170000Y-76130000D03*
%TO.P,U2,5,+*%
%TO.N,GND*%
X62170000Y-73590000D03*
%TO.P,U2,6,-*%
%TO.N,Net-(U2B--)*%
X62170000Y-71050000D03*
%TO.P,U2,7*%
%TO.N,/OUT_MID*%
X62170000Y-68510000D03*
%TO.P,U2,8*%
%TO.N,/OUT_HIGH*%
X54550000Y-68510000D03*
%TO.P,U2,9,-*%
X54550000Y-71050000D03*
%TO.P,U2,10,+*%
%TO.N,Net-(U2C-+)*%
X54550000Y-73590000D03*
%TO.P,U2,11,V-*%
%TO.N,-12V*%
X54550000Y-76130000D03*
%TO.P,U2,12,+*%
%TO.N,GND*%
X54550000Y-78670000D03*
%TO.P,U2,13,-*%
%TO.N,Net-(U2D--)*%
X54550000Y-81210000D03*
%TO.P,U2,14*%
X54550000Y-83750000D03*
%TD*%
D13*
%TO.P,Q3,1,E*%
%TO.N,GND*%
X101210000Y-53000000D03*
D14*
%TO.P,Q3,2,B*%
%TO.N,Net-(Q3-B)*%
X102480000Y-53000000D03*
%TO.P,Q3,3,C*%
%TO.N,Net-(D6-K)*%
X103750000Y-53000000D03*
%TD*%
D23*
%TO.P,D2,1,K*%
%TO.N,Net-(D2-K)*%
X107500000Y-27500000D03*
D24*
%TO.P,D2,2,A*%
%TO.N,Net-(D2-A)*%
X110040000Y-27500000D03*
%TD*%
D17*
%TO.P,R11,1*%
%TO.N,Net-(U2B--)*%
X66920000Y-68000000D03*
%TO.P,R11,2*%
%TO.N,/OUT_MID*%
X77080000Y-68000000D03*
%TD*%
D19*
%TO.P,R4,1*%
%TO.N,Net-(D3-K)*%
X91825000Y-27500000D03*
%TO.P,R4,2*%
%TO.N,Net-(Q1-B)*%
X97750000Y-27500000D03*
%TD*%
D11*
%TO.P,U4,1,GND*%
%TO.N,GND*%
X48500000Y-42000000D03*
D12*
%TO.P,U4,2,VI*%
%TO.N,Net-(BR1--)*%
X48500000Y-39460000D03*
%TO.P,U4,3,VO*%
%TO.N,-12V*%
X48500000Y-36920000D03*
%TD*%
D19*
%TO.P,R7,1*%
%TO.N,+12V*%
X95287500Y-82750000D03*
%TO.P,R7,2*%
%TO.N,Net-(D4-A)*%
X101212500Y-82750000D03*
%TD*%
D10*
%TO.P,TP13,1,1*%
%TO.N,Net-(Q3-B)*%
X102500000Y-45500000D03*
%TD*%
%TO.P,TP1,1,1*%
%TO.N,Net-(U1B--)*%
X79000000Y-49460000D03*
%TD*%
D20*
%TO.P,J3,1,Pin_1*%
%TO.N,/SIGNAL*%
X21000000Y-81920000D03*
D21*
%TO.P,J3,2,Pin_2*%
%TO.N,GND*%
X21000000Y-87000000D03*
%TD*%
D22*
%TO.P,D7,1,K*%
%TO.N,Net-(D7-K)*%
X91750000Y-58000000D03*
D17*
%TO.P,D7,2,A*%
%TO.N,/OUT_MID*%
X91750000Y-65620000D03*
%TD*%
D26*
%TO.P,RV1,1,1*%
%TO.N,unconnected-(RV1-Pad1)*%
X68000000Y-38000000D03*
%TO.P,RV1,2,2*%
%TO.N,/V_AMP*%
X65460000Y-38000000D03*
%TO.P,RV1,3,3*%
%TO.N,Net-(U1A--)*%
X62920000Y-38000000D03*
%TD*%
D19*
%TO.P,R14,1*%
%TO.N,Net-(D7-K)*%
X91825000Y-53000000D03*
%TO.P,R14,2*%
%TO.N,Net-(Q3-B)*%
X97750000Y-53000000D03*
%TD*%
D17*
%TO.P,R1,1*%
%TO.N,Net-(D1-A)*%
X16000000Y-57000000D03*
%TO.P,R1,2*%
%TO.N,GND*%
X26160000Y-57000000D03*
%TD*%
%TO.P,C13,1*%
%TO.N,GND*%
X46250000Y-77500000D03*
%TO.P,C13,2*%
%TO.N,-12V*%
X51250000Y-77500000D03*
%TD*%
D19*
%TO.P,R9,1*%
%TO.N,Net-(D5-K)*%
X91825000Y-77000000D03*
%TO.P,R9,2*%
%TO.N,Net-(Q2-B)*%
X97750000Y-77000000D03*
%TD*%
D18*
%TO.P,C4,1*%
%TO.N,GND*%
X29500000Y-35250000D03*
D17*
%TO.P,C4,2*%
%TO.N,-12V*%
X33000000Y-35250000D03*
%TD*%
D27*
%TO.N,GND*%
X60500000Y-28000000D03*
%TO.N,+12V*%
X95250000Y-73500000D03*
X69000000Y-73500000D03*
%TO.N,-12V*%
X62500000Y-49500000D03*
D28*
%TO.N,/OUT_LOW*%
X64750000Y-81250000D03*
X73750000Y-77500000D03*
%TO.N,Net-(U2C-+)*%
X49125000Y-59500000D03*
%TD*%
D29*
%TO.N,Net-(BR1-+)*%
X45000000Y-26750000D02*
X45000000Y-28250000D01*
X55750000Y-22330000D02*
X49420000Y-22330000D01*
X42660000Y-28250000D02*
X45000000Y-28250000D01*
X49420000Y-22330000D02*
X45000000Y-26750000D01*
X39500000Y-25250000D02*
X39500000Y-25300000D01*
X39500000Y-25300000D02*
X39600000Y-25400000D01*
X39600000Y-25400000D02*
X39810000Y-25400000D01*
X39810000Y-25400000D02*
X42660000Y-28250000D01*
%TO.N,Net-(BR1--)*%
X39810000Y-18440000D02*
X39810000Y-20110000D01*
X45290000Y-39540000D02*
X48420000Y-39540000D01*
X42000000Y-16250000D02*
X39810000Y-18440000D01*
X39500000Y-20170000D02*
X39750000Y-20170000D01*
X36250000Y-30500000D02*
X37750000Y-32000000D01*
X39810000Y-20110000D02*
X39750000Y-20170000D01*
X42750000Y-33250000D02*
X42750000Y-37000000D01*
X48500000Y-17500000D02*
X47250000Y-16250000D01*
X39810000Y-20230000D02*
X39810000Y-20320000D01*
X39810000Y-20320000D02*
X36250000Y-23880000D01*
X48500000Y-18500000D02*
X48500000Y-17500000D01*
X41500000Y-32000000D02*
X42750000Y-33250000D01*
X42750000Y-37000000D02*
X45290000Y-39540000D01*
X36250000Y-23880000D02*
X36250000Y-30500000D01*
X37750000Y-32000000D02*
X41500000Y-32000000D01*
X39750000Y-20170000D02*
X39810000Y-20230000D01*
X48420000Y-39540000D02*
X48500000Y-39460000D01*
X47250000Y-16250000D02*
X42000000Y-16250000D01*
%TO.N,GNDPWR*%
X48500000Y-28250000D02*
X52825000Y-28250000D01*
X52825000Y-28250000D02*
X53075000Y-28000000D01*
%TO.N,GND*%
X59000000Y-28000000D02*
X60500000Y-28000000D01*
D30*
%TO.N,+12V*%
X95287500Y-23287500D02*
X93000000Y-21000000D01*
X76500000Y-17250000D02*
X80250000Y-21000000D01*
D29*
X20000000Y-45160000D02*
X28840000Y-45160000D01*
D30*
X62170000Y-76130000D02*
X65870000Y-76130000D01*
D29*
X35250000Y-42000000D02*
X38250000Y-45000000D01*
X29750000Y-44250000D02*
X29500000Y-44000000D01*
X30000000Y-44000000D02*
X32000000Y-42000000D01*
X65870000Y-76130000D02*
X66000000Y-76000000D01*
X28840000Y-45160000D02*
X29750000Y-44250000D01*
D30*
X93000000Y-21000000D02*
X80250000Y-21000000D01*
D29*
X74000000Y-44460000D02*
X74130000Y-44330000D01*
D30*
X55750000Y-17250000D02*
X76500000Y-17250000D01*
D31*
X95250000Y-82537500D02*
X95287500Y-82575000D01*
D29*
X29500000Y-44000000D02*
X30000000Y-44000000D01*
D30*
X66500000Y-76000000D02*
X69000000Y-73500000D01*
X74130000Y-44330000D02*
X77000000Y-44330000D01*
D29*
X32000000Y-42000000D02*
X35250000Y-42000000D01*
D30*
X95287500Y-33250000D02*
X95287500Y-73462500D01*
D31*
X95787500Y-59000000D02*
X95287500Y-58500000D01*
D30*
X77000000Y-44330000D02*
X77000000Y-24250000D01*
D31*
X95287500Y-82575000D02*
X95287500Y-82750000D01*
D30*
X77000000Y-24250000D02*
X80250000Y-21000000D01*
X95287500Y-33250000D02*
X95287500Y-23287500D01*
D31*
X95287500Y-73462500D02*
X95250000Y-73500000D01*
D29*
X66000000Y-76000000D02*
X66500000Y-76000000D01*
X38250000Y-45000000D02*
X39000000Y-45000000D01*
D30*
X95250000Y-73500000D02*
X95250000Y-82537500D01*
D29*
%TO.N,-12V*%
X20000000Y-35000000D02*
X22750000Y-32250000D01*
D30*
X17750000Y-35000000D02*
X20000000Y-35000000D01*
D29*
X33000000Y-35250000D02*
X33750000Y-36000000D01*
D30*
X58750000Y-39750000D02*
X56000000Y-37000000D01*
X17460000Y-52000000D02*
X16500000Y-51040000D01*
X48580000Y-37000000D02*
X48500000Y-36920000D01*
X62500000Y-49500000D02*
X58750000Y-45750000D01*
D29*
X30000000Y-32250000D02*
X33000000Y-35250000D01*
X63670000Y-52080000D02*
X63500000Y-52250000D01*
D30*
X52620000Y-76130000D02*
X51250000Y-77500000D01*
D29*
X22750000Y-32250000D02*
X30000000Y-32250000D01*
D30*
X58750000Y-45750000D02*
X58750000Y-39750000D01*
X56000000Y-37000000D02*
X48580000Y-37000000D01*
X66380000Y-52080000D02*
X63670000Y-52080000D01*
X16500000Y-36250000D02*
X17750000Y-35000000D01*
X54550000Y-76130000D02*
X52620000Y-76130000D01*
D29*
X33750000Y-36000000D02*
X39000000Y-36000000D01*
D30*
X16500000Y-51040000D02*
X16500000Y-36250000D01*
D31*
%TO.N,Net-(C5-Pad2)*%
X77250000Y-80000000D02*
X77250000Y-71750000D01*
X77250000Y-80000000D02*
X77250000Y-87330000D01*
X77250000Y-87330000D02*
X77080000Y-87500000D01*
%TO.N,/OUT_LOW*%
X74750000Y-64500000D02*
X74750000Y-58250000D01*
X73750000Y-77500000D02*
X73750000Y-75250000D01*
X86500000Y-46500000D02*
X86500000Y-40250000D01*
X72250000Y-67000000D02*
X74750000Y-64500000D01*
X74750000Y-58250000D02*
X86500000Y-46500000D01*
X62170000Y-83750000D02*
X62170000Y-81210000D01*
X62170000Y-81210000D02*
X64710000Y-81210000D01*
X72250000Y-73750000D02*
X72250000Y-71750000D01*
X86630000Y-40120000D02*
X86500000Y-40250000D01*
X91750000Y-40120000D02*
X86630000Y-40120000D01*
X73750000Y-75250000D02*
X72250000Y-73750000D01*
X72250000Y-71750000D02*
X72250000Y-67000000D01*
X64710000Y-81210000D02*
X64750000Y-81250000D01*
%TO.N,Net-(U2A-+)*%
X67090000Y-80000000D02*
X67170000Y-80080000D01*
X62500000Y-79000000D02*
X66090000Y-79000000D01*
X67170000Y-80080000D02*
X67170000Y-84000000D01*
X66090000Y-79000000D02*
X67090000Y-80000000D01*
X62170000Y-78670000D02*
X62500000Y-79000000D01*
%TO.N,Net-(C7-Pad2)*%
X40920000Y-68500000D02*
X40920000Y-59580000D01*
X40920000Y-59580000D02*
X41000000Y-59500000D01*
%TO.N,/V_AMP*%
X68000000Y-54750000D02*
X69750000Y-53000000D01*
X65500000Y-38040000D02*
X65460000Y-38000000D01*
X53080000Y-62330000D02*
X58250000Y-67500000D01*
X68460000Y-44460000D02*
X66380000Y-44460000D01*
X66380000Y-44460000D02*
X65500000Y-43580000D01*
X53080000Y-60670000D02*
X59000000Y-54750000D01*
X59887810Y-87500000D02*
X66920000Y-87500000D01*
X65500000Y-37960000D02*
X65500000Y-34000000D01*
X53080000Y-62250000D02*
X53080000Y-60670000D01*
X66500000Y-33000000D02*
X69750000Y-33000000D01*
X46000000Y-63500000D02*
X47250000Y-62250000D01*
X65460000Y-38000000D02*
X65500000Y-37960000D01*
X65500000Y-43580000D02*
X65500000Y-38040000D01*
X58250000Y-85862190D02*
X59887810Y-87500000D01*
X47250000Y-62250000D02*
X53080000Y-62250000D01*
X58250000Y-67500000D02*
X58250000Y-85862190D01*
X69750000Y-53000000D02*
X69750000Y-45750000D01*
X53080000Y-62250000D02*
X53080000Y-62330000D01*
X65500000Y-34000000D02*
X66500000Y-33000000D01*
X69750000Y-45750000D02*
X68460000Y-44460000D01*
X59000000Y-54750000D02*
X68000000Y-54750000D01*
%TO.N,Net-(U2C-+)*%
X54550000Y-73590000D02*
X51160000Y-73590000D01*
X46000000Y-59500000D02*
X49125000Y-59500000D01*
X51160000Y-73590000D02*
X51000000Y-73750000D01*
%TO.N,/OUT_MID*%
X77080000Y-68000000D02*
X84000000Y-68000000D01*
X76920000Y-60000000D02*
X76920000Y-67840000D01*
X86500000Y-65500000D02*
X91630000Y-65500000D01*
X91630000Y-65500000D02*
X91750000Y-65620000D01*
X84000000Y-68000000D02*
X86500000Y-65500000D01*
X76920000Y-67840000D02*
X77080000Y-68000000D01*
%TO.N,Net-(C10-Pad1)*%
X72000000Y-58250000D02*
X72000000Y-59920000D01*
X71920000Y-64250000D02*
X71920000Y-60000000D01*
X70750000Y-57000000D02*
X72000000Y-58250000D01*
X72000000Y-59920000D02*
X71920000Y-60000000D01*
X63160000Y-62170000D02*
X63240000Y-62250000D01*
X63160000Y-57000000D02*
X63160000Y-62170000D01*
X63160000Y-57000000D02*
X70750000Y-57000000D01*
%TO.N,Net-(U2B--)*%
X63870000Y-71050000D02*
X66920000Y-68000000D01*
X62170000Y-71050000D02*
X63870000Y-71050000D01*
X66920000Y-68000000D02*
X66920000Y-64250000D01*
%TO.N,Net-(D1-A)*%
X16750000Y-54750000D02*
X16000000Y-55500000D01*
X20000000Y-52000000D02*
X20000000Y-54000000D01*
X20000000Y-54000000D02*
X19250000Y-54750000D01*
X16000000Y-55500000D02*
X16000000Y-57000000D01*
X19250000Y-54750000D02*
X16750000Y-54750000D01*
%TO.N,Net-(D2-K)*%
X107500000Y-27500000D02*
X103750000Y-27500000D01*
%TO.N,Net-(D2-A)*%
X103962500Y-30500000D02*
X108750000Y-30500000D01*
X110040000Y-29210000D02*
X110040000Y-27500000D01*
X108750000Y-30500000D02*
X110040000Y-29210000D01*
X101212500Y-33250000D02*
X103962500Y-30500000D01*
%TO.N,Net-(D3-K)*%
X91750000Y-27575000D02*
X91825000Y-27500000D01*
X91750000Y-32500000D02*
X91750000Y-27575000D01*
%TO.N,Net-(D4-K)*%
X107250000Y-77000000D02*
X103750000Y-77000000D01*
%TO.N,Net-(D4-A)*%
X103712500Y-80250000D02*
X101212500Y-82750000D01*
X109000000Y-80250000D02*
X103712500Y-80250000D01*
X109790000Y-77000000D02*
X109790000Y-79460000D01*
X109790000Y-79460000D02*
X109000000Y-80250000D01*
%TO.N,/OUT_HIGH*%
X57799000Y-86049000D02*
X57799000Y-71799000D01*
X64500000Y-88000000D02*
X59750000Y-88000000D01*
X86250000Y-89500000D02*
X86000000Y-89750000D01*
X51090000Y-68510000D02*
X51080000Y-68500000D01*
X54550000Y-71050000D02*
X54550000Y-68510000D01*
X86000000Y-89750000D02*
X66250000Y-89750000D01*
X91750000Y-89560000D02*
X86310000Y-89560000D01*
X57050000Y-71050000D02*
X54550000Y-71050000D01*
X86310000Y-89560000D02*
X86250000Y-89500000D01*
X59750000Y-88000000D02*
X57799000Y-86049000D01*
X66250000Y-89750000D02*
X64500000Y-88000000D01*
X54550000Y-68510000D02*
X51090000Y-68510000D01*
X57799000Y-71799000D02*
X57050000Y-71050000D01*
%TO.N,Net-(D5-K)*%
X91750000Y-81940000D02*
X91750000Y-77075000D01*
X91750000Y-77075000D02*
X91825000Y-77000000D01*
%TO.N,Net-(D6-K)*%
X107750000Y-53000000D02*
X103750000Y-53000000D01*
%TO.N,Net-(D6-A)*%
X110290000Y-53000000D02*
X110290000Y-54210000D01*
X110290000Y-54210000D02*
X109000000Y-55500000D01*
X104212500Y-55500000D02*
X101212500Y-58500000D01*
X109000000Y-55500000D02*
X104212500Y-55500000D01*
%TO.N,Net-(D7-K)*%
X91825000Y-57925000D02*
X91750000Y-58000000D01*
X91825000Y-53000000D02*
X91825000Y-57925000D01*
%TO.N,/SIGNAL*%
X21000000Y-81920000D02*
X21170000Y-81750000D01*
X21170000Y-81750000D02*
X31000000Y-81750000D01*
%TO.N,Net-(Q1-B)*%
X98250000Y-30000000D02*
X101750000Y-30000000D01*
X102480000Y-29270000D02*
X102480000Y-27500000D01*
X102480000Y-20020000D02*
X102500000Y-20000000D01*
X102480000Y-27500000D02*
X102480000Y-20020000D01*
X97750000Y-27500000D02*
X97750000Y-29500000D01*
X101750000Y-30000000D02*
X102480000Y-29270000D01*
X97750000Y-29500000D02*
X98250000Y-30000000D01*
%TO.N,Net-(Q2-B)*%
X98500000Y-79750000D02*
X97750000Y-79000000D01*
X102480000Y-77000000D02*
X102480000Y-79270000D01*
X102480000Y-79270000D02*
X102000000Y-79750000D01*
X102500000Y-76980000D02*
X102480000Y-77000000D01*
X102500000Y-69500000D02*
X102500000Y-76980000D01*
X102000000Y-79750000D02*
X98500000Y-79750000D01*
X97750000Y-79000000D02*
X97750000Y-77000000D01*
%TO.N,Net-(Q3-B)*%
X102480000Y-53000000D02*
X102500000Y-52980000D01*
X97750000Y-54500000D02*
X98750000Y-55500000D01*
X102480000Y-54770000D02*
X102480000Y-53000000D01*
X102500000Y-52980000D02*
X102500000Y-45500000D01*
X101750000Y-55500000D02*
X102480000Y-54770000D01*
X98750000Y-55500000D02*
X101750000Y-55500000D01*
X97750000Y-53000000D02*
X97750000Y-54500000D01*
%TO.N,Net-(U1A--)*%
X63790000Y-47250000D02*
X63080000Y-46540000D01*
X63000000Y-46460000D02*
X63080000Y-46540000D01*
X66380000Y-47000000D02*
X66130000Y-47250000D01*
X63000000Y-38080000D02*
X63000000Y-46460000D01*
X62920000Y-38000000D02*
X63000000Y-38080000D01*
X66130000Y-47250000D02*
X63790000Y-47250000D01*
%TO.N,Net-(U1B--)*%
X74000000Y-49540000D02*
X78920000Y-49540000D01*
X74000000Y-47000000D02*
X74000000Y-49540000D01*
X78920000Y-49540000D02*
X79000000Y-49460000D01*
%TO.N,Net-(U2D--)*%
X54550000Y-81210000D02*
X54550000Y-83750000D01*
D29*
%TO.N,/VAC+*%
X20000000Y-17665000D02*
X20085000Y-17750000D01*
X31880000Y-20010000D02*
X31880000Y-20170000D01*
X20085000Y-17750000D02*
X28250000Y-17750000D01*
X29620000Y-17750000D02*
X31880000Y-20010000D01*
X28250000Y-17750000D02*
X29620000Y-17750000D01*
%TO.N,/VAC-*%
X31630000Y-25960000D02*
X31630000Y-25750000D01*
X31630000Y-25750000D02*
X31880000Y-25500000D01*
X31880000Y-25500000D02*
X31880000Y-25250000D01*
X20000000Y-27825000D02*
X29765000Y-27825000D01*
X29765000Y-27825000D02*
X31630000Y-25960000D01*
%TD*%
M02*
