%TF.GenerationSoftware,KiCad,Pcbnew,9.0.6*%
%TF.CreationDate,2026-02-18T16:38:23+00:00*%
%TF.ProjectId,Multi_Tone,4d756c74-695f-4546-9f6e-652e6b696361,rev?*%
%TF.SameCoordinates,Original*%
%TF.FileFunction,Legend,Top*%
%TF.FilePolarity,Positive*%
%FSLAX46Y46*%
G04 Gerber Fmt 4.6, Leading zero omitted, Abs format (unit mm)*
G04 Created by KiCad (PCBNEW 9.0.6) date 2026-02-18 16:38:23*
%MOMM*%
%LPD*%
G01*
G04 APERTURE LIST*
%ADD10C,0.100000*%
%ADD11C,0.150000*%
%ADD12C,0.120000*%
G04 APERTURE END LIST*
D10*
X40803884Y-35991466D02*
X41565789Y-35991466D01*
X42565788Y-36372419D02*
X41994360Y-36372419D01*
X42280074Y-36372419D02*
X42280074Y-35372419D01*
X42280074Y-35372419D02*
X42184836Y-35515276D01*
X42184836Y-35515276D02*
X42089598Y-35610514D01*
X42089598Y-35610514D02*
X41994360Y-35658133D01*
X42946741Y-35467657D02*
X42994360Y-35420038D01*
X42994360Y-35420038D02*
X43089598Y-35372419D01*
X43089598Y-35372419D02*
X43327693Y-35372419D01*
X43327693Y-35372419D02*
X43422931Y-35420038D01*
X43422931Y-35420038D02*
X43470550Y-35467657D01*
X43470550Y-35467657D02*
X43518169Y-35562895D01*
X43518169Y-35562895D02*
X43518169Y-35658133D01*
X43518169Y-35658133D02*
X43470550Y-35800990D01*
X43470550Y-35800990D02*
X42899122Y-36372419D01*
X42899122Y-36372419D02*
X43518169Y-36372419D01*
X43803884Y-35372419D02*
X44137217Y-36372419D01*
X44137217Y-36372419D02*
X44470550Y-35372419D01*
X41553884Y-45761466D02*
X42315789Y-45761466D01*
X41934836Y-46142419D02*
X41934836Y-45380514D01*
X43315788Y-46142419D02*
X42744360Y-46142419D01*
X43030074Y-46142419D02*
X43030074Y-45142419D01*
X43030074Y-45142419D02*
X42934836Y-45285276D01*
X42934836Y-45285276D02*
X42839598Y-45380514D01*
X42839598Y-45380514D02*
X42744360Y-45428133D01*
X43696741Y-45237657D02*
X43744360Y-45190038D01*
X43744360Y-45190038D02*
X43839598Y-45142419D01*
X43839598Y-45142419D02*
X44077693Y-45142419D01*
X44077693Y-45142419D02*
X44172931Y-45190038D01*
X44172931Y-45190038D02*
X44220550Y-45237657D01*
X44220550Y-45237657D02*
X44268169Y-45332895D01*
X44268169Y-45332895D02*
X44268169Y-45428133D01*
X44268169Y-45428133D02*
X44220550Y-45570990D01*
X44220550Y-45570990D02*
X43649122Y-46142419D01*
X43649122Y-46142419D02*
X44268169Y-46142419D01*
X44553884Y-45142419D02*
X44887217Y-46142419D01*
X44887217Y-46142419D02*
X45220550Y-45142419D01*
X42077693Y-39920038D02*
X41982455Y-39872419D01*
X41982455Y-39872419D02*
X41839598Y-39872419D01*
X41839598Y-39872419D02*
X41696741Y-39920038D01*
X41696741Y-39920038D02*
X41601503Y-40015276D01*
X41601503Y-40015276D02*
X41553884Y-40110514D01*
X41553884Y-40110514D02*
X41506265Y-40300990D01*
X41506265Y-40300990D02*
X41506265Y-40443847D01*
X41506265Y-40443847D02*
X41553884Y-40634323D01*
X41553884Y-40634323D02*
X41601503Y-40729561D01*
X41601503Y-40729561D02*
X41696741Y-40824800D01*
X41696741Y-40824800D02*
X41839598Y-40872419D01*
X41839598Y-40872419D02*
X41934836Y-40872419D01*
X41934836Y-40872419D02*
X42077693Y-40824800D01*
X42077693Y-40824800D02*
X42125312Y-40777180D01*
X42125312Y-40777180D02*
X42125312Y-40443847D01*
X42125312Y-40443847D02*
X41934836Y-40443847D01*
X42553884Y-40872419D02*
X42553884Y-39872419D01*
X42553884Y-39872419D02*
X43125312Y-40872419D01*
X43125312Y-40872419D02*
X43125312Y-39872419D01*
X43601503Y-40872419D02*
X43601503Y-39872419D01*
X43601503Y-39872419D02*
X43839598Y-39872419D01*
X43839598Y-39872419D02*
X43982455Y-39920038D01*
X43982455Y-39920038D02*
X44077693Y-40015276D01*
X44077693Y-40015276D02*
X44125312Y-40110514D01*
X44125312Y-40110514D02*
X44172931Y-40300990D01*
X44172931Y-40300990D02*
X44172931Y-40443847D01*
X44172931Y-40443847D02*
X44125312Y-40634323D01*
X44125312Y-40634323D02*
X44077693Y-40729561D01*
X44077693Y-40729561D02*
X43982455Y-40824800D01*
X43982455Y-40824800D02*
X43839598Y-40872419D01*
X43839598Y-40872419D02*
X43601503Y-40872419D01*
X72411027Y-32622419D02*
X72744360Y-33622419D01*
X72744360Y-33622419D02*
X73077693Y-32622419D01*
X73172932Y-33717657D02*
X73934836Y-33717657D01*
X74125313Y-33336704D02*
X74601503Y-33336704D01*
X74030075Y-33622419D02*
X74363408Y-32622419D01*
X74363408Y-32622419D02*
X74696741Y-33622419D01*
X75030075Y-33622419D02*
X75030075Y-32622419D01*
X75030075Y-32622419D02*
X75363408Y-33336704D01*
X75363408Y-33336704D02*
X75696741Y-32622419D01*
X75696741Y-32622419D02*
X75696741Y-33622419D01*
X76172932Y-33622419D02*
X76172932Y-32622419D01*
X76172932Y-32622419D02*
X76553884Y-32622419D01*
X76553884Y-32622419D02*
X76649122Y-32670038D01*
X76649122Y-32670038D02*
X76696741Y-32717657D01*
X76696741Y-32717657D02*
X76744360Y-32812895D01*
X76744360Y-32812895D02*
X76744360Y-32955752D01*
X76744360Y-32955752D02*
X76696741Y-33050990D01*
X76696741Y-33050990D02*
X76649122Y-33098609D01*
X76649122Y-33098609D02*
X76553884Y-33146228D01*
X76553884Y-33146228D02*
X76172932Y-33146228D01*
X105387217Y-45348609D02*
X105530074Y-45396228D01*
X105530074Y-45396228D02*
X105577693Y-45443847D01*
X105577693Y-45443847D02*
X105625312Y-45539085D01*
X105625312Y-45539085D02*
X105625312Y-45681942D01*
X105625312Y-45681942D02*
X105577693Y-45777180D01*
X105577693Y-45777180D02*
X105530074Y-45824800D01*
X105530074Y-45824800D02*
X105434836Y-45872419D01*
X105434836Y-45872419D02*
X105053884Y-45872419D01*
X105053884Y-45872419D02*
X105053884Y-44872419D01*
X105053884Y-44872419D02*
X105387217Y-44872419D01*
X105387217Y-44872419D02*
X105482455Y-44920038D01*
X105482455Y-44920038D02*
X105530074Y-44967657D01*
X105530074Y-44967657D02*
X105577693Y-45062895D01*
X105577693Y-45062895D02*
X105577693Y-45158133D01*
X105577693Y-45158133D02*
X105530074Y-45253371D01*
X105530074Y-45253371D02*
X105482455Y-45300990D01*
X105482455Y-45300990D02*
X105387217Y-45348609D01*
X105387217Y-45348609D02*
X105053884Y-45348609D01*
X106006265Y-45586704D02*
X106482455Y-45586704D01*
X105911027Y-45872419D02*
X106244360Y-44872419D01*
X106244360Y-44872419D02*
X106577693Y-45872419D01*
X106863408Y-45824800D02*
X107006265Y-45872419D01*
X107006265Y-45872419D02*
X107244360Y-45872419D01*
X107244360Y-45872419D02*
X107339598Y-45824800D01*
X107339598Y-45824800D02*
X107387217Y-45777180D01*
X107387217Y-45777180D02*
X107434836Y-45681942D01*
X107434836Y-45681942D02*
X107434836Y-45586704D01*
X107434836Y-45586704D02*
X107387217Y-45491466D01*
X107387217Y-45491466D02*
X107339598Y-45443847D01*
X107339598Y-45443847D02*
X107244360Y-45396228D01*
X107244360Y-45396228D02*
X107053884Y-45348609D01*
X107053884Y-45348609D02*
X106958646Y-45300990D01*
X106958646Y-45300990D02*
X106911027Y-45253371D01*
X106911027Y-45253371D02*
X106863408Y-45158133D01*
X106863408Y-45158133D02*
X106863408Y-45062895D01*
X106863408Y-45062895D02*
X106911027Y-44967657D01*
X106911027Y-44967657D02*
X106958646Y-44920038D01*
X106958646Y-44920038D02*
X107053884Y-44872419D01*
X107053884Y-44872419D02*
X107291979Y-44872419D01*
X107291979Y-44872419D02*
X107434836Y-44920038D01*
X107863408Y-45348609D02*
X108196741Y-45348609D01*
X108339598Y-45872419D02*
X107863408Y-45872419D01*
X107863408Y-45872419D02*
X107863408Y-44872419D01*
X107863408Y-44872419D02*
X108339598Y-44872419D01*
X108530075Y-45967657D02*
X109291979Y-45967657D01*
X109530075Y-45872419D02*
X109530075Y-44872419D01*
X109530075Y-44872419D02*
X109863408Y-45586704D01*
X109863408Y-45586704D02*
X110196741Y-44872419D01*
X110196741Y-44872419D02*
X110196741Y-45872419D01*
X110672932Y-45872419D02*
X110672932Y-44872419D01*
X111149122Y-45872419D02*
X111149122Y-44872419D01*
X111149122Y-44872419D02*
X111387217Y-44872419D01*
X111387217Y-44872419D02*
X111530074Y-44920038D01*
X111530074Y-44920038D02*
X111625312Y-45015276D01*
X111625312Y-45015276D02*
X111672931Y-45110514D01*
X111672931Y-45110514D02*
X111720550Y-45300990D01*
X111720550Y-45300990D02*
X111720550Y-45443847D01*
X111720550Y-45443847D02*
X111672931Y-45634323D01*
X111672931Y-45634323D02*
X111625312Y-45729561D01*
X111625312Y-45729561D02*
X111530074Y-45824800D01*
X111530074Y-45824800D02*
X111387217Y-45872419D01*
X111387217Y-45872419D02*
X111149122Y-45872419D01*
X34827693Y-88120038D02*
X34732455Y-88072419D01*
X34732455Y-88072419D02*
X34589598Y-88072419D01*
X34589598Y-88072419D02*
X34446741Y-88120038D01*
X34446741Y-88120038D02*
X34351503Y-88215276D01*
X34351503Y-88215276D02*
X34303884Y-88310514D01*
X34303884Y-88310514D02*
X34256265Y-88500990D01*
X34256265Y-88500990D02*
X34256265Y-88643847D01*
X34256265Y-88643847D02*
X34303884Y-88834323D01*
X34303884Y-88834323D02*
X34351503Y-88929561D01*
X34351503Y-88929561D02*
X34446741Y-89024800D01*
X34446741Y-89024800D02*
X34589598Y-89072419D01*
X34589598Y-89072419D02*
X34684836Y-89072419D01*
X34684836Y-89072419D02*
X34827693Y-89024800D01*
X34827693Y-89024800D02*
X34875312Y-88977180D01*
X34875312Y-88977180D02*
X34875312Y-88643847D01*
X34875312Y-88643847D02*
X34684836Y-88643847D01*
X35303884Y-89072419D02*
X35303884Y-88072419D01*
X35303884Y-88072419D02*
X35875312Y-89072419D01*
X35875312Y-89072419D02*
X35875312Y-88072419D01*
X36351503Y-89072419D02*
X36351503Y-88072419D01*
X36351503Y-88072419D02*
X36589598Y-88072419D01*
X36589598Y-88072419D02*
X36732455Y-88120038D01*
X36732455Y-88120038D02*
X36827693Y-88215276D01*
X36827693Y-88215276D02*
X36875312Y-88310514D01*
X36875312Y-88310514D02*
X36922931Y-88500990D01*
X36922931Y-88500990D02*
X36922931Y-88643847D01*
X36922931Y-88643847D02*
X36875312Y-88834323D01*
X36875312Y-88834323D02*
X36827693Y-88929561D01*
X36827693Y-88929561D02*
X36732455Y-89024800D01*
X36732455Y-89024800D02*
X36589598Y-89072419D01*
X36589598Y-89072419D02*
X36351503Y-89072419D01*
X78244360Y-39372419D02*
X78434836Y-39372419D01*
X78434836Y-39372419D02*
X78530074Y-39420038D01*
X78530074Y-39420038D02*
X78625312Y-39515276D01*
X78625312Y-39515276D02*
X78672931Y-39705752D01*
X78672931Y-39705752D02*
X78672931Y-40039085D01*
X78672931Y-40039085D02*
X78625312Y-40229561D01*
X78625312Y-40229561D02*
X78530074Y-40324800D01*
X78530074Y-40324800D02*
X78434836Y-40372419D01*
X78434836Y-40372419D02*
X78244360Y-40372419D01*
X78244360Y-40372419D02*
X78149122Y-40324800D01*
X78149122Y-40324800D02*
X78053884Y-40229561D01*
X78053884Y-40229561D02*
X78006265Y-40039085D01*
X78006265Y-40039085D02*
X78006265Y-39705752D01*
X78006265Y-39705752D02*
X78053884Y-39515276D01*
X78053884Y-39515276D02*
X78149122Y-39420038D01*
X78149122Y-39420038D02*
X78244360Y-39372419D01*
X79101503Y-39372419D02*
X79101503Y-40181942D01*
X79101503Y-40181942D02*
X79149122Y-40277180D01*
X79149122Y-40277180D02*
X79196741Y-40324800D01*
X79196741Y-40324800D02*
X79291979Y-40372419D01*
X79291979Y-40372419D02*
X79482455Y-40372419D01*
X79482455Y-40372419D02*
X79577693Y-40324800D01*
X79577693Y-40324800D02*
X79625312Y-40277180D01*
X79625312Y-40277180D02*
X79672931Y-40181942D01*
X79672931Y-40181942D02*
X79672931Y-39372419D01*
X80006265Y-39372419D02*
X80577693Y-39372419D01*
X80291979Y-40372419D02*
X80291979Y-39372419D01*
X80672932Y-40467657D02*
X81434836Y-40467657D01*
X82149122Y-40372419D02*
X81672932Y-40372419D01*
X81672932Y-40372419D02*
X81672932Y-39372419D01*
X82672932Y-39372419D02*
X82863408Y-39372419D01*
X82863408Y-39372419D02*
X82958646Y-39420038D01*
X82958646Y-39420038D02*
X83053884Y-39515276D01*
X83053884Y-39515276D02*
X83101503Y-39705752D01*
X83101503Y-39705752D02*
X83101503Y-40039085D01*
X83101503Y-40039085D02*
X83053884Y-40229561D01*
X83053884Y-40229561D02*
X82958646Y-40324800D01*
X82958646Y-40324800D02*
X82863408Y-40372419D01*
X82863408Y-40372419D02*
X82672932Y-40372419D01*
X82672932Y-40372419D02*
X82577694Y-40324800D01*
X82577694Y-40324800D02*
X82482456Y-40229561D01*
X82482456Y-40229561D02*
X82434837Y-40039085D01*
X82434837Y-40039085D02*
X82434837Y-39705752D01*
X82434837Y-39705752D02*
X82482456Y-39515276D01*
X82482456Y-39515276D02*
X82577694Y-39420038D01*
X82577694Y-39420038D02*
X82672932Y-39372419D01*
X83434837Y-39372419D02*
X83672932Y-40372419D01*
X83672932Y-40372419D02*
X83863408Y-39658133D01*
X83863408Y-39658133D02*
X84053884Y-40372419D01*
X84053884Y-40372419D02*
X84291980Y-39372419D01*
X30411027Y-28122419D02*
X30744360Y-29122419D01*
X30744360Y-29122419D02*
X31077693Y-28122419D01*
X31363408Y-28836704D02*
X31839598Y-28836704D01*
X31268170Y-29122419D02*
X31601503Y-28122419D01*
X31601503Y-28122419D02*
X31934836Y-29122419D01*
X32839598Y-29027180D02*
X32791979Y-29074800D01*
X32791979Y-29074800D02*
X32649122Y-29122419D01*
X32649122Y-29122419D02*
X32553884Y-29122419D01*
X32553884Y-29122419D02*
X32411027Y-29074800D01*
X32411027Y-29074800D02*
X32315789Y-28979561D01*
X32315789Y-28979561D02*
X32268170Y-28884323D01*
X32268170Y-28884323D02*
X32220551Y-28693847D01*
X32220551Y-28693847D02*
X32220551Y-28550990D01*
X32220551Y-28550990D02*
X32268170Y-28360514D01*
X32268170Y-28360514D02*
X32315789Y-28265276D01*
X32315789Y-28265276D02*
X32411027Y-28170038D01*
X32411027Y-28170038D02*
X32553884Y-28122419D01*
X32553884Y-28122419D02*
X32649122Y-28122419D01*
X32649122Y-28122419D02*
X32791979Y-28170038D01*
X32791979Y-28170038D02*
X32839598Y-28217657D01*
X33268170Y-28741466D02*
X34030075Y-28741466D01*
X105137217Y-19848609D02*
X105280074Y-19896228D01*
X105280074Y-19896228D02*
X105327693Y-19943847D01*
X105327693Y-19943847D02*
X105375312Y-20039085D01*
X105375312Y-20039085D02*
X105375312Y-20181942D01*
X105375312Y-20181942D02*
X105327693Y-20277180D01*
X105327693Y-20277180D02*
X105280074Y-20324800D01*
X105280074Y-20324800D02*
X105184836Y-20372419D01*
X105184836Y-20372419D02*
X104803884Y-20372419D01*
X104803884Y-20372419D02*
X104803884Y-19372419D01*
X104803884Y-19372419D02*
X105137217Y-19372419D01*
X105137217Y-19372419D02*
X105232455Y-19420038D01*
X105232455Y-19420038D02*
X105280074Y-19467657D01*
X105280074Y-19467657D02*
X105327693Y-19562895D01*
X105327693Y-19562895D02*
X105327693Y-19658133D01*
X105327693Y-19658133D02*
X105280074Y-19753371D01*
X105280074Y-19753371D02*
X105232455Y-19800990D01*
X105232455Y-19800990D02*
X105137217Y-19848609D01*
X105137217Y-19848609D02*
X104803884Y-19848609D01*
X105756265Y-20086704D02*
X106232455Y-20086704D01*
X105661027Y-20372419D02*
X105994360Y-19372419D01*
X105994360Y-19372419D02*
X106327693Y-20372419D01*
X106613408Y-20324800D02*
X106756265Y-20372419D01*
X106756265Y-20372419D02*
X106994360Y-20372419D01*
X106994360Y-20372419D02*
X107089598Y-20324800D01*
X107089598Y-20324800D02*
X107137217Y-20277180D01*
X107137217Y-20277180D02*
X107184836Y-20181942D01*
X107184836Y-20181942D02*
X107184836Y-20086704D01*
X107184836Y-20086704D02*
X107137217Y-19991466D01*
X107137217Y-19991466D02*
X107089598Y-19943847D01*
X107089598Y-19943847D02*
X106994360Y-19896228D01*
X106994360Y-19896228D02*
X106803884Y-19848609D01*
X106803884Y-19848609D02*
X106708646Y-19800990D01*
X106708646Y-19800990D02*
X106661027Y-19753371D01*
X106661027Y-19753371D02*
X106613408Y-19658133D01*
X106613408Y-19658133D02*
X106613408Y-19562895D01*
X106613408Y-19562895D02*
X106661027Y-19467657D01*
X106661027Y-19467657D02*
X106708646Y-19420038D01*
X106708646Y-19420038D02*
X106803884Y-19372419D01*
X106803884Y-19372419D02*
X107041979Y-19372419D01*
X107041979Y-19372419D02*
X107184836Y-19420038D01*
X107613408Y-19848609D02*
X107946741Y-19848609D01*
X108089598Y-20372419D02*
X107613408Y-20372419D01*
X107613408Y-20372419D02*
X107613408Y-19372419D01*
X107613408Y-19372419D02*
X108089598Y-19372419D01*
X108280075Y-20467657D02*
X109041979Y-20467657D01*
X109756265Y-20372419D02*
X109280075Y-20372419D01*
X109280075Y-20372419D02*
X109280075Y-19372419D01*
X110280075Y-19372419D02*
X110470551Y-19372419D01*
X110470551Y-19372419D02*
X110565789Y-19420038D01*
X110565789Y-19420038D02*
X110661027Y-19515276D01*
X110661027Y-19515276D02*
X110708646Y-19705752D01*
X110708646Y-19705752D02*
X110708646Y-20039085D01*
X110708646Y-20039085D02*
X110661027Y-20229561D01*
X110661027Y-20229561D02*
X110565789Y-20324800D01*
X110565789Y-20324800D02*
X110470551Y-20372419D01*
X110470551Y-20372419D02*
X110280075Y-20372419D01*
X110280075Y-20372419D02*
X110184837Y-20324800D01*
X110184837Y-20324800D02*
X110089599Y-20229561D01*
X110089599Y-20229561D02*
X110041980Y-20039085D01*
X110041980Y-20039085D02*
X110041980Y-19705752D01*
X110041980Y-19705752D02*
X110089599Y-19515276D01*
X110089599Y-19515276D02*
X110184837Y-19420038D01*
X110184837Y-19420038D02*
X110280075Y-19372419D01*
X111041980Y-19372419D02*
X111280075Y-20372419D01*
X111280075Y-20372419D02*
X111470551Y-19658133D01*
X111470551Y-19658133D02*
X111661027Y-20372419D01*
X111661027Y-20372419D02*
X111899123Y-19372419D01*
X30411027Y-16872419D02*
X30744360Y-17872419D01*
X30744360Y-17872419D02*
X31077693Y-16872419D01*
X31363408Y-17586704D02*
X31839598Y-17586704D01*
X31268170Y-17872419D02*
X31601503Y-16872419D01*
X31601503Y-16872419D02*
X31934836Y-17872419D01*
X32839598Y-17777180D02*
X32791979Y-17824800D01*
X32791979Y-17824800D02*
X32649122Y-17872419D01*
X32649122Y-17872419D02*
X32553884Y-17872419D01*
X32553884Y-17872419D02*
X32411027Y-17824800D01*
X32411027Y-17824800D02*
X32315789Y-17729561D01*
X32315789Y-17729561D02*
X32268170Y-17634323D01*
X32268170Y-17634323D02*
X32220551Y-17443847D01*
X32220551Y-17443847D02*
X32220551Y-17300990D01*
X32220551Y-17300990D02*
X32268170Y-17110514D01*
X32268170Y-17110514D02*
X32315789Y-17015276D01*
X32315789Y-17015276D02*
X32411027Y-16920038D01*
X32411027Y-16920038D02*
X32553884Y-16872419D01*
X32553884Y-16872419D02*
X32649122Y-16872419D01*
X32649122Y-16872419D02*
X32791979Y-16920038D01*
X32791979Y-16920038D02*
X32839598Y-16967657D01*
X33268170Y-17491466D02*
X34030075Y-17491466D01*
X33649122Y-17872419D02*
X33649122Y-17110514D01*
X78744360Y-64872419D02*
X78934836Y-64872419D01*
X78934836Y-64872419D02*
X79030074Y-64920038D01*
X79030074Y-64920038D02*
X79125312Y-65015276D01*
X79125312Y-65015276D02*
X79172931Y-65205752D01*
X79172931Y-65205752D02*
X79172931Y-65539085D01*
X79172931Y-65539085D02*
X79125312Y-65729561D01*
X79125312Y-65729561D02*
X79030074Y-65824800D01*
X79030074Y-65824800D02*
X78934836Y-65872419D01*
X78934836Y-65872419D02*
X78744360Y-65872419D01*
X78744360Y-65872419D02*
X78649122Y-65824800D01*
X78649122Y-65824800D02*
X78553884Y-65729561D01*
X78553884Y-65729561D02*
X78506265Y-65539085D01*
X78506265Y-65539085D02*
X78506265Y-65205752D01*
X78506265Y-65205752D02*
X78553884Y-65015276D01*
X78553884Y-65015276D02*
X78649122Y-64920038D01*
X78649122Y-64920038D02*
X78744360Y-64872419D01*
X79601503Y-64872419D02*
X79601503Y-65681942D01*
X79601503Y-65681942D02*
X79649122Y-65777180D01*
X79649122Y-65777180D02*
X79696741Y-65824800D01*
X79696741Y-65824800D02*
X79791979Y-65872419D01*
X79791979Y-65872419D02*
X79982455Y-65872419D01*
X79982455Y-65872419D02*
X80077693Y-65824800D01*
X80077693Y-65824800D02*
X80125312Y-65777180D01*
X80125312Y-65777180D02*
X80172931Y-65681942D01*
X80172931Y-65681942D02*
X80172931Y-64872419D01*
X80506265Y-64872419D02*
X81077693Y-64872419D01*
X80791979Y-65872419D02*
X80791979Y-64872419D01*
X81172932Y-65967657D02*
X81934836Y-65967657D01*
X82172932Y-65872419D02*
X82172932Y-64872419D01*
X82172932Y-64872419D02*
X82506265Y-65586704D01*
X82506265Y-65586704D02*
X82839598Y-64872419D01*
X82839598Y-64872419D02*
X82839598Y-65872419D01*
X83315789Y-65872419D02*
X83315789Y-64872419D01*
X83791979Y-65872419D02*
X83791979Y-64872419D01*
X83791979Y-64872419D02*
X84030074Y-64872419D01*
X84030074Y-64872419D02*
X84172931Y-64920038D01*
X84172931Y-64920038D02*
X84268169Y-65015276D01*
X84268169Y-65015276D02*
X84315788Y-65110514D01*
X84315788Y-65110514D02*
X84363407Y-65300990D01*
X84363407Y-65300990D02*
X84363407Y-65443847D01*
X84363407Y-65443847D02*
X84315788Y-65634323D01*
X84315788Y-65634323D02*
X84268169Y-65729561D01*
X84268169Y-65729561D02*
X84172931Y-65824800D01*
X84172931Y-65824800D02*
X84030074Y-65872419D01*
X84030074Y-65872419D02*
X83791979Y-65872419D01*
X104887217Y-69598609D02*
X105030074Y-69646228D01*
X105030074Y-69646228D02*
X105077693Y-69693847D01*
X105077693Y-69693847D02*
X105125312Y-69789085D01*
X105125312Y-69789085D02*
X105125312Y-69931942D01*
X105125312Y-69931942D02*
X105077693Y-70027180D01*
X105077693Y-70027180D02*
X105030074Y-70074800D01*
X105030074Y-70074800D02*
X104934836Y-70122419D01*
X104934836Y-70122419D02*
X104553884Y-70122419D01*
X104553884Y-70122419D02*
X104553884Y-69122419D01*
X104553884Y-69122419D02*
X104887217Y-69122419D01*
X104887217Y-69122419D02*
X104982455Y-69170038D01*
X104982455Y-69170038D02*
X105030074Y-69217657D01*
X105030074Y-69217657D02*
X105077693Y-69312895D01*
X105077693Y-69312895D02*
X105077693Y-69408133D01*
X105077693Y-69408133D02*
X105030074Y-69503371D01*
X105030074Y-69503371D02*
X104982455Y-69550990D01*
X104982455Y-69550990D02*
X104887217Y-69598609D01*
X104887217Y-69598609D02*
X104553884Y-69598609D01*
X105506265Y-69836704D02*
X105982455Y-69836704D01*
X105411027Y-70122419D02*
X105744360Y-69122419D01*
X105744360Y-69122419D02*
X106077693Y-70122419D01*
X106363408Y-70074800D02*
X106506265Y-70122419D01*
X106506265Y-70122419D02*
X106744360Y-70122419D01*
X106744360Y-70122419D02*
X106839598Y-70074800D01*
X106839598Y-70074800D02*
X106887217Y-70027180D01*
X106887217Y-70027180D02*
X106934836Y-69931942D01*
X106934836Y-69931942D02*
X106934836Y-69836704D01*
X106934836Y-69836704D02*
X106887217Y-69741466D01*
X106887217Y-69741466D02*
X106839598Y-69693847D01*
X106839598Y-69693847D02*
X106744360Y-69646228D01*
X106744360Y-69646228D02*
X106553884Y-69598609D01*
X106553884Y-69598609D02*
X106458646Y-69550990D01*
X106458646Y-69550990D02*
X106411027Y-69503371D01*
X106411027Y-69503371D02*
X106363408Y-69408133D01*
X106363408Y-69408133D02*
X106363408Y-69312895D01*
X106363408Y-69312895D02*
X106411027Y-69217657D01*
X106411027Y-69217657D02*
X106458646Y-69170038D01*
X106458646Y-69170038D02*
X106553884Y-69122419D01*
X106553884Y-69122419D02*
X106791979Y-69122419D01*
X106791979Y-69122419D02*
X106934836Y-69170038D01*
X107363408Y-69598609D02*
X107696741Y-69598609D01*
X107839598Y-70122419D02*
X107363408Y-70122419D01*
X107363408Y-70122419D02*
X107363408Y-69122419D01*
X107363408Y-69122419D02*
X107839598Y-69122419D01*
X108030075Y-70217657D02*
X108791979Y-70217657D01*
X109030075Y-70122419D02*
X109030075Y-69122419D01*
X109030075Y-69598609D02*
X109601503Y-69598609D01*
X109601503Y-70122419D02*
X109601503Y-69122419D01*
X110077694Y-70122419D02*
X110077694Y-69122419D01*
X111077693Y-69170038D02*
X110982455Y-69122419D01*
X110982455Y-69122419D02*
X110839598Y-69122419D01*
X110839598Y-69122419D02*
X110696741Y-69170038D01*
X110696741Y-69170038D02*
X110601503Y-69265276D01*
X110601503Y-69265276D02*
X110553884Y-69360514D01*
X110553884Y-69360514D02*
X110506265Y-69550990D01*
X110506265Y-69550990D02*
X110506265Y-69693847D01*
X110506265Y-69693847D02*
X110553884Y-69884323D01*
X110553884Y-69884323D02*
X110601503Y-69979561D01*
X110601503Y-69979561D02*
X110696741Y-70074800D01*
X110696741Y-70074800D02*
X110839598Y-70122419D01*
X110839598Y-70122419D02*
X110934836Y-70122419D01*
X110934836Y-70122419D02*
X111077693Y-70074800D01*
X111077693Y-70074800D02*
X111125312Y-70027180D01*
X111125312Y-70027180D02*
X111125312Y-69693847D01*
X111125312Y-69693847D02*
X110934836Y-69693847D01*
X111553884Y-70122419D02*
X111553884Y-69122419D01*
X111553884Y-69598609D02*
X112125312Y-69598609D01*
X112125312Y-70122419D02*
X112125312Y-69122419D01*
X34006265Y-82074800D02*
X34149122Y-82122419D01*
X34149122Y-82122419D02*
X34387217Y-82122419D01*
X34387217Y-82122419D02*
X34482455Y-82074800D01*
X34482455Y-82074800D02*
X34530074Y-82027180D01*
X34530074Y-82027180D02*
X34577693Y-81931942D01*
X34577693Y-81931942D02*
X34577693Y-81836704D01*
X34577693Y-81836704D02*
X34530074Y-81741466D01*
X34530074Y-81741466D02*
X34482455Y-81693847D01*
X34482455Y-81693847D02*
X34387217Y-81646228D01*
X34387217Y-81646228D02*
X34196741Y-81598609D01*
X34196741Y-81598609D02*
X34101503Y-81550990D01*
X34101503Y-81550990D02*
X34053884Y-81503371D01*
X34053884Y-81503371D02*
X34006265Y-81408133D01*
X34006265Y-81408133D02*
X34006265Y-81312895D01*
X34006265Y-81312895D02*
X34053884Y-81217657D01*
X34053884Y-81217657D02*
X34101503Y-81170038D01*
X34101503Y-81170038D02*
X34196741Y-81122419D01*
X34196741Y-81122419D02*
X34434836Y-81122419D01*
X34434836Y-81122419D02*
X34577693Y-81170038D01*
X35006265Y-82122419D02*
X35006265Y-81122419D01*
X36006264Y-81170038D02*
X35911026Y-81122419D01*
X35911026Y-81122419D02*
X35768169Y-81122419D01*
X35768169Y-81122419D02*
X35625312Y-81170038D01*
X35625312Y-81170038D02*
X35530074Y-81265276D01*
X35530074Y-81265276D02*
X35482455Y-81360514D01*
X35482455Y-81360514D02*
X35434836Y-81550990D01*
X35434836Y-81550990D02*
X35434836Y-81693847D01*
X35434836Y-81693847D02*
X35482455Y-81884323D01*
X35482455Y-81884323D02*
X35530074Y-81979561D01*
X35530074Y-81979561D02*
X35625312Y-82074800D01*
X35625312Y-82074800D02*
X35768169Y-82122419D01*
X35768169Y-82122419D02*
X35863407Y-82122419D01*
X35863407Y-82122419D02*
X36006264Y-82074800D01*
X36006264Y-82074800D02*
X36053883Y-82027180D01*
X36053883Y-82027180D02*
X36053883Y-81693847D01*
X36053883Y-81693847D02*
X35863407Y-81693847D01*
X36482455Y-82122419D02*
X36482455Y-81122419D01*
X36482455Y-81122419D02*
X37053883Y-82122419D01*
X37053883Y-82122419D02*
X37053883Y-81122419D01*
X37482455Y-81836704D02*
X37958645Y-81836704D01*
X37387217Y-82122419D02*
X37720550Y-81122419D01*
X37720550Y-81122419D02*
X38053883Y-82122419D01*
X38863407Y-82122419D02*
X38387217Y-82122419D01*
X38387217Y-82122419D02*
X38387217Y-81122419D01*
X77494360Y-89872419D02*
X77684836Y-89872419D01*
X77684836Y-89872419D02*
X77780074Y-89920038D01*
X77780074Y-89920038D02*
X77875312Y-90015276D01*
X77875312Y-90015276D02*
X77922931Y-90205752D01*
X77922931Y-90205752D02*
X77922931Y-90539085D01*
X77922931Y-90539085D02*
X77875312Y-90729561D01*
X77875312Y-90729561D02*
X77780074Y-90824800D01*
X77780074Y-90824800D02*
X77684836Y-90872419D01*
X77684836Y-90872419D02*
X77494360Y-90872419D01*
X77494360Y-90872419D02*
X77399122Y-90824800D01*
X77399122Y-90824800D02*
X77303884Y-90729561D01*
X77303884Y-90729561D02*
X77256265Y-90539085D01*
X77256265Y-90539085D02*
X77256265Y-90205752D01*
X77256265Y-90205752D02*
X77303884Y-90015276D01*
X77303884Y-90015276D02*
X77399122Y-89920038D01*
X77399122Y-89920038D02*
X77494360Y-89872419D01*
X78351503Y-89872419D02*
X78351503Y-90681942D01*
X78351503Y-90681942D02*
X78399122Y-90777180D01*
X78399122Y-90777180D02*
X78446741Y-90824800D01*
X78446741Y-90824800D02*
X78541979Y-90872419D01*
X78541979Y-90872419D02*
X78732455Y-90872419D01*
X78732455Y-90872419D02*
X78827693Y-90824800D01*
X78827693Y-90824800D02*
X78875312Y-90777180D01*
X78875312Y-90777180D02*
X78922931Y-90681942D01*
X78922931Y-90681942D02*
X78922931Y-89872419D01*
X79256265Y-89872419D02*
X79827693Y-89872419D01*
X79541979Y-90872419D02*
X79541979Y-89872419D01*
X79922932Y-90967657D02*
X80684836Y-90967657D01*
X80922932Y-90872419D02*
X80922932Y-89872419D01*
X80922932Y-90348609D02*
X81494360Y-90348609D01*
X81494360Y-90872419D02*
X81494360Y-89872419D01*
X81970551Y-90872419D02*
X81970551Y-89872419D01*
X82970550Y-89920038D02*
X82875312Y-89872419D01*
X82875312Y-89872419D02*
X82732455Y-89872419D01*
X82732455Y-89872419D02*
X82589598Y-89920038D01*
X82589598Y-89920038D02*
X82494360Y-90015276D01*
X82494360Y-90015276D02*
X82446741Y-90110514D01*
X82446741Y-90110514D02*
X82399122Y-90300990D01*
X82399122Y-90300990D02*
X82399122Y-90443847D01*
X82399122Y-90443847D02*
X82446741Y-90634323D01*
X82446741Y-90634323D02*
X82494360Y-90729561D01*
X82494360Y-90729561D02*
X82589598Y-90824800D01*
X82589598Y-90824800D02*
X82732455Y-90872419D01*
X82732455Y-90872419D02*
X82827693Y-90872419D01*
X82827693Y-90872419D02*
X82970550Y-90824800D01*
X82970550Y-90824800D02*
X83018169Y-90777180D01*
X83018169Y-90777180D02*
X83018169Y-90443847D01*
X83018169Y-90443847D02*
X82827693Y-90443847D01*
X83446741Y-90872419D02*
X83446741Y-89872419D01*
X83446741Y-90348609D02*
X84018169Y-90348609D01*
X84018169Y-90872419D02*
X84018169Y-89872419D01*
X81744360Y-49122419D02*
X81934836Y-49122419D01*
X81934836Y-49122419D02*
X82030074Y-49170038D01*
X82030074Y-49170038D02*
X82125312Y-49265276D01*
X82125312Y-49265276D02*
X82172931Y-49455752D01*
X82172931Y-49455752D02*
X82172931Y-49789085D01*
X82172931Y-49789085D02*
X82125312Y-49979561D01*
X82125312Y-49979561D02*
X82030074Y-50074800D01*
X82030074Y-50074800D02*
X81934836Y-50122419D01*
X81934836Y-50122419D02*
X81744360Y-50122419D01*
X81744360Y-50122419D02*
X81649122Y-50074800D01*
X81649122Y-50074800D02*
X81553884Y-49979561D01*
X81553884Y-49979561D02*
X81506265Y-49789085D01*
X81506265Y-49789085D02*
X81506265Y-49455752D01*
X81506265Y-49455752D02*
X81553884Y-49265276D01*
X81553884Y-49265276D02*
X81649122Y-49170038D01*
X81649122Y-49170038D02*
X81744360Y-49122419D01*
X82601503Y-49122419D02*
X82601503Y-49931942D01*
X82601503Y-49931942D02*
X82649122Y-50027180D01*
X82649122Y-50027180D02*
X82696741Y-50074800D01*
X82696741Y-50074800D02*
X82791979Y-50122419D01*
X82791979Y-50122419D02*
X82982455Y-50122419D01*
X82982455Y-50122419D02*
X83077693Y-50074800D01*
X83077693Y-50074800D02*
X83125312Y-50027180D01*
X83125312Y-50027180D02*
X83172931Y-49931942D01*
X83172931Y-49931942D02*
X83172931Y-49122419D01*
X83506265Y-49122419D02*
X84077693Y-49122419D01*
X83791979Y-50122419D02*
X83791979Y-49122419D01*
X84172932Y-50217657D02*
X84934836Y-50217657D01*
X85125313Y-50074800D02*
X85268170Y-50122419D01*
X85268170Y-50122419D02*
X85506265Y-50122419D01*
X85506265Y-50122419D02*
X85601503Y-50074800D01*
X85601503Y-50074800D02*
X85649122Y-50027180D01*
X85649122Y-50027180D02*
X85696741Y-49931942D01*
X85696741Y-49931942D02*
X85696741Y-49836704D01*
X85696741Y-49836704D02*
X85649122Y-49741466D01*
X85649122Y-49741466D02*
X85601503Y-49693847D01*
X85601503Y-49693847D02*
X85506265Y-49646228D01*
X85506265Y-49646228D02*
X85315789Y-49598609D01*
X85315789Y-49598609D02*
X85220551Y-49550990D01*
X85220551Y-49550990D02*
X85172932Y-49503371D01*
X85172932Y-49503371D02*
X85125313Y-49408133D01*
X85125313Y-49408133D02*
X85125313Y-49312895D01*
X85125313Y-49312895D02*
X85172932Y-49217657D01*
X85172932Y-49217657D02*
X85220551Y-49170038D01*
X85220551Y-49170038D02*
X85315789Y-49122419D01*
X85315789Y-49122419D02*
X85553884Y-49122419D01*
X85553884Y-49122419D02*
X85696741Y-49170038D01*
X86125313Y-50122419D02*
X86125313Y-49122419D01*
X87125312Y-49170038D02*
X87030074Y-49122419D01*
X87030074Y-49122419D02*
X86887217Y-49122419D01*
X86887217Y-49122419D02*
X86744360Y-49170038D01*
X86744360Y-49170038D02*
X86649122Y-49265276D01*
X86649122Y-49265276D02*
X86601503Y-49360514D01*
X86601503Y-49360514D02*
X86553884Y-49550990D01*
X86553884Y-49550990D02*
X86553884Y-49693847D01*
X86553884Y-49693847D02*
X86601503Y-49884323D01*
X86601503Y-49884323D02*
X86649122Y-49979561D01*
X86649122Y-49979561D02*
X86744360Y-50074800D01*
X86744360Y-50074800D02*
X86887217Y-50122419D01*
X86887217Y-50122419D02*
X86982455Y-50122419D01*
X86982455Y-50122419D02*
X87125312Y-50074800D01*
X87125312Y-50074800D02*
X87172931Y-50027180D01*
X87172931Y-50027180D02*
X87172931Y-49693847D01*
X87172931Y-49693847D02*
X86982455Y-49693847D01*
X66077693Y-27670038D02*
X65982455Y-27622419D01*
X65982455Y-27622419D02*
X65839598Y-27622419D01*
X65839598Y-27622419D02*
X65696741Y-27670038D01*
X65696741Y-27670038D02*
X65601503Y-27765276D01*
X65601503Y-27765276D02*
X65553884Y-27860514D01*
X65553884Y-27860514D02*
X65506265Y-28050990D01*
X65506265Y-28050990D02*
X65506265Y-28193847D01*
X65506265Y-28193847D02*
X65553884Y-28384323D01*
X65553884Y-28384323D02*
X65601503Y-28479561D01*
X65601503Y-28479561D02*
X65696741Y-28574800D01*
X65696741Y-28574800D02*
X65839598Y-28622419D01*
X65839598Y-28622419D02*
X65934836Y-28622419D01*
X65934836Y-28622419D02*
X66077693Y-28574800D01*
X66077693Y-28574800D02*
X66125312Y-28527180D01*
X66125312Y-28527180D02*
X66125312Y-28193847D01*
X66125312Y-28193847D02*
X65934836Y-28193847D01*
X66553884Y-28622419D02*
X66553884Y-27622419D01*
X66553884Y-27622419D02*
X67125312Y-28622419D01*
X67125312Y-28622419D02*
X67125312Y-27622419D01*
X67601503Y-28622419D02*
X67601503Y-27622419D01*
X67601503Y-27622419D02*
X67839598Y-27622419D01*
X67839598Y-27622419D02*
X67982455Y-27670038D01*
X67982455Y-27670038D02*
X68077693Y-27765276D01*
X68077693Y-27765276D02*
X68125312Y-27860514D01*
X68125312Y-27860514D02*
X68172931Y-28050990D01*
X68172931Y-28050990D02*
X68172931Y-28193847D01*
X68172931Y-28193847D02*
X68125312Y-28384323D01*
X68125312Y-28384323D02*
X68077693Y-28479561D01*
X68077693Y-28479561D02*
X67982455Y-28574800D01*
X67982455Y-28574800D02*
X67839598Y-28622419D01*
X67839598Y-28622419D02*
X67601503Y-28622419D01*
D11*
X84761905Y-62574819D02*
X85333333Y-62574819D01*
X85047619Y-63574819D02*
X85047619Y-62574819D01*
X85666667Y-63574819D02*
X85666667Y-62574819D01*
X85666667Y-62574819D02*
X86047619Y-62574819D01*
X86047619Y-62574819D02*
X86142857Y-62622438D01*
X86142857Y-62622438D02*
X86190476Y-62670057D01*
X86190476Y-62670057D02*
X86238095Y-62765295D01*
X86238095Y-62765295D02*
X86238095Y-62908152D01*
X86238095Y-62908152D02*
X86190476Y-63003390D01*
X86190476Y-63003390D02*
X86142857Y-63051009D01*
X86142857Y-63051009D02*
X86047619Y-63098628D01*
X86047619Y-63098628D02*
X85666667Y-63098628D01*
X87190476Y-63574819D02*
X86619048Y-63574819D01*
X86904762Y-63574819D02*
X86904762Y-62574819D01*
X86904762Y-62574819D02*
X86809524Y-62717676D01*
X86809524Y-62717676D02*
X86714286Y-62812914D01*
X86714286Y-62812914D02*
X86619048Y-62860533D01*
X87571429Y-62670057D02*
X87619048Y-62622438D01*
X87619048Y-62622438D02*
X87714286Y-62574819D01*
X87714286Y-62574819D02*
X87952381Y-62574819D01*
X87952381Y-62574819D02*
X88047619Y-62622438D01*
X88047619Y-62622438D02*
X88095238Y-62670057D01*
X88095238Y-62670057D02*
X88142857Y-62765295D01*
X88142857Y-62765295D02*
X88142857Y-62860533D01*
X88142857Y-62860533D02*
X88095238Y-63003390D01*
X88095238Y-63003390D02*
X87523810Y-63574819D01*
X87523810Y-63574819D02*
X88142857Y-63574819D01*
X57704819Y-20511904D02*
X58514342Y-20511904D01*
X58514342Y-20511904D02*
X58609580Y-20464285D01*
X58609580Y-20464285D02*
X58657200Y-20416666D01*
X58657200Y-20416666D02*
X58704819Y-20321428D01*
X58704819Y-20321428D02*
X58704819Y-20130952D01*
X58704819Y-20130952D02*
X58657200Y-20035714D01*
X58657200Y-20035714D02*
X58609580Y-19988095D01*
X58609580Y-19988095D02*
X58514342Y-19940476D01*
X58514342Y-19940476D02*
X57704819Y-19940476D01*
X57704819Y-19559523D02*
X57704819Y-18940476D01*
X57704819Y-18940476D02*
X58085771Y-19273809D01*
X58085771Y-19273809D02*
X58085771Y-19130952D01*
X58085771Y-19130952D02*
X58133390Y-19035714D01*
X58133390Y-19035714D02*
X58181009Y-18988095D01*
X58181009Y-18988095D02*
X58276247Y-18940476D01*
X58276247Y-18940476D02*
X58514342Y-18940476D01*
X58514342Y-18940476D02*
X58609580Y-18988095D01*
X58609580Y-18988095D02*
X58657200Y-19035714D01*
X58657200Y-19035714D02*
X58704819Y-19130952D01*
X58704819Y-19130952D02*
X58704819Y-19416666D01*
X58704819Y-19416666D02*
X58657200Y-19511904D01*
X58657200Y-19511904D02*
X58609580Y-19559523D01*
X102384761Y-73990057D02*
X102289523Y-73942438D01*
X102289523Y-73942438D02*
X102194285Y-73847200D01*
X102194285Y-73847200D02*
X102051428Y-73704342D01*
X102051428Y-73704342D02*
X101956190Y-73656723D01*
X101956190Y-73656723D02*
X101860952Y-73656723D01*
X101908571Y-73894819D02*
X101813333Y-73847200D01*
X101813333Y-73847200D02*
X101718095Y-73751961D01*
X101718095Y-73751961D02*
X101670476Y-73561485D01*
X101670476Y-73561485D02*
X101670476Y-73228152D01*
X101670476Y-73228152D02*
X101718095Y-73037676D01*
X101718095Y-73037676D02*
X101813333Y-72942438D01*
X101813333Y-72942438D02*
X101908571Y-72894819D01*
X101908571Y-72894819D02*
X102099047Y-72894819D01*
X102099047Y-72894819D02*
X102194285Y-72942438D01*
X102194285Y-72942438D02*
X102289523Y-73037676D01*
X102289523Y-73037676D02*
X102337142Y-73228152D01*
X102337142Y-73228152D02*
X102337142Y-73561485D01*
X102337142Y-73561485D02*
X102289523Y-73751961D01*
X102289523Y-73751961D02*
X102194285Y-73847200D01*
X102194285Y-73847200D02*
X102099047Y-73894819D01*
X102099047Y-73894819D02*
X101908571Y-73894819D01*
X102718095Y-72990057D02*
X102765714Y-72942438D01*
X102765714Y-72942438D02*
X102860952Y-72894819D01*
X102860952Y-72894819D02*
X103099047Y-72894819D01*
X103099047Y-72894819D02*
X103194285Y-72942438D01*
X103194285Y-72942438D02*
X103241904Y-72990057D01*
X103241904Y-72990057D02*
X103289523Y-73085295D01*
X103289523Y-73085295D02*
X103289523Y-73180533D01*
X103289523Y-73180533D02*
X103241904Y-73323390D01*
X103241904Y-73323390D02*
X102670476Y-73894819D01*
X102670476Y-73894819D02*
X103289523Y-73894819D01*
X26988095Y-14824819D02*
X27559523Y-14824819D01*
X27273809Y-15824819D02*
X27273809Y-14824819D01*
X27892857Y-15824819D02*
X27892857Y-14824819D01*
X27892857Y-14824819D02*
X28273809Y-14824819D01*
X28273809Y-14824819D02*
X28369047Y-14872438D01*
X28369047Y-14872438D02*
X28416666Y-14920057D01*
X28416666Y-14920057D02*
X28464285Y-15015295D01*
X28464285Y-15015295D02*
X28464285Y-15158152D01*
X28464285Y-15158152D02*
X28416666Y-15253390D01*
X28416666Y-15253390D02*
X28369047Y-15301009D01*
X28369047Y-15301009D02*
X28273809Y-15348628D01*
X28273809Y-15348628D02*
X27892857Y-15348628D01*
X28845238Y-14920057D02*
X28892857Y-14872438D01*
X28892857Y-14872438D02*
X28988095Y-14824819D01*
X28988095Y-14824819D02*
X29226190Y-14824819D01*
X29226190Y-14824819D02*
X29321428Y-14872438D01*
X29321428Y-14872438D02*
X29369047Y-14920057D01*
X29369047Y-14920057D02*
X29416666Y-15015295D01*
X29416666Y-15015295D02*
X29416666Y-15110533D01*
X29416666Y-15110533D02*
X29369047Y-15253390D01*
X29369047Y-15253390D02*
X28797619Y-15824819D01*
X28797619Y-15824819D02*
X29416666Y-15824819D01*
X41345238Y-22931009D02*
X41488095Y-22978628D01*
X41488095Y-22978628D02*
X41535714Y-23026247D01*
X41535714Y-23026247D02*
X41583333Y-23121485D01*
X41583333Y-23121485D02*
X41583333Y-23264342D01*
X41583333Y-23264342D02*
X41535714Y-23359580D01*
X41535714Y-23359580D02*
X41488095Y-23407200D01*
X41488095Y-23407200D02*
X41392857Y-23454819D01*
X41392857Y-23454819D02*
X41011905Y-23454819D01*
X41011905Y-23454819D02*
X41011905Y-22454819D01*
X41011905Y-22454819D02*
X41345238Y-22454819D01*
X41345238Y-22454819D02*
X41440476Y-22502438D01*
X41440476Y-22502438D02*
X41488095Y-22550057D01*
X41488095Y-22550057D02*
X41535714Y-22645295D01*
X41535714Y-22645295D02*
X41535714Y-22740533D01*
X41535714Y-22740533D02*
X41488095Y-22835771D01*
X41488095Y-22835771D02*
X41440476Y-22883390D01*
X41440476Y-22883390D02*
X41345238Y-22931009D01*
X41345238Y-22931009D02*
X41011905Y-22931009D01*
X42583333Y-23454819D02*
X42250000Y-22978628D01*
X42011905Y-23454819D02*
X42011905Y-22454819D01*
X42011905Y-22454819D02*
X42392857Y-22454819D01*
X42392857Y-22454819D02*
X42488095Y-22502438D01*
X42488095Y-22502438D02*
X42535714Y-22550057D01*
X42535714Y-22550057D02*
X42583333Y-22645295D01*
X42583333Y-22645295D02*
X42583333Y-22788152D01*
X42583333Y-22788152D02*
X42535714Y-22883390D01*
X42535714Y-22883390D02*
X42488095Y-22931009D01*
X42488095Y-22931009D02*
X42392857Y-22978628D01*
X42392857Y-22978628D02*
X42011905Y-22978628D01*
X43535714Y-23454819D02*
X42964286Y-23454819D01*
X43250000Y-23454819D02*
X43250000Y-22454819D01*
X43250000Y-22454819D02*
X43154762Y-22597676D01*
X43154762Y-22597676D02*
X43059524Y-22692914D01*
X43059524Y-22692914D02*
X42964286Y-22740533D01*
X79833333Y-72109580D02*
X79785714Y-72157200D01*
X79785714Y-72157200D02*
X79642857Y-72204819D01*
X79642857Y-72204819D02*
X79547619Y-72204819D01*
X79547619Y-72204819D02*
X79404762Y-72157200D01*
X79404762Y-72157200D02*
X79309524Y-72061961D01*
X79309524Y-72061961D02*
X79261905Y-71966723D01*
X79261905Y-71966723D02*
X79214286Y-71776247D01*
X79214286Y-71776247D02*
X79214286Y-71633390D01*
X79214286Y-71633390D02*
X79261905Y-71442914D01*
X79261905Y-71442914D02*
X79309524Y-71347676D01*
X79309524Y-71347676D02*
X79404762Y-71252438D01*
X79404762Y-71252438D02*
X79547619Y-71204819D01*
X79547619Y-71204819D02*
X79642857Y-71204819D01*
X79642857Y-71204819D02*
X79785714Y-71252438D01*
X79785714Y-71252438D02*
X79833333Y-71300057D01*
X80738095Y-71204819D02*
X80261905Y-71204819D01*
X80261905Y-71204819D02*
X80214286Y-71681009D01*
X80214286Y-71681009D02*
X80261905Y-71633390D01*
X80261905Y-71633390D02*
X80357143Y-71585771D01*
X80357143Y-71585771D02*
X80595238Y-71585771D01*
X80595238Y-71585771D02*
X80690476Y-71633390D01*
X80690476Y-71633390D02*
X80738095Y-71681009D01*
X80738095Y-71681009D02*
X80785714Y-71776247D01*
X80785714Y-71776247D02*
X80785714Y-72014342D01*
X80785714Y-72014342D02*
X80738095Y-72109580D01*
X80738095Y-72109580D02*
X80690476Y-72157200D01*
X80690476Y-72157200D02*
X80595238Y-72204819D01*
X80595238Y-72204819D02*
X80357143Y-72204819D01*
X80357143Y-72204819D02*
X80261905Y-72157200D01*
X80261905Y-72157200D02*
X80214286Y-72109580D01*
X35083333Y-49609580D02*
X35035714Y-49657200D01*
X35035714Y-49657200D02*
X34892857Y-49704819D01*
X34892857Y-49704819D02*
X34797619Y-49704819D01*
X34797619Y-49704819D02*
X34654762Y-49657200D01*
X34654762Y-49657200D02*
X34559524Y-49561961D01*
X34559524Y-49561961D02*
X34511905Y-49466723D01*
X34511905Y-49466723D02*
X34464286Y-49276247D01*
X34464286Y-49276247D02*
X34464286Y-49133390D01*
X34464286Y-49133390D02*
X34511905Y-48942914D01*
X34511905Y-48942914D02*
X34559524Y-48847676D01*
X34559524Y-48847676D02*
X34654762Y-48752438D01*
X34654762Y-48752438D02*
X34797619Y-48704819D01*
X34797619Y-48704819D02*
X34892857Y-48704819D01*
X34892857Y-48704819D02*
X35035714Y-48752438D01*
X35035714Y-48752438D02*
X35083333Y-48800057D01*
X35464286Y-48800057D02*
X35511905Y-48752438D01*
X35511905Y-48752438D02*
X35607143Y-48704819D01*
X35607143Y-48704819D02*
X35845238Y-48704819D01*
X35845238Y-48704819D02*
X35940476Y-48752438D01*
X35940476Y-48752438D02*
X35988095Y-48800057D01*
X35988095Y-48800057D02*
X36035714Y-48895295D01*
X36035714Y-48895295D02*
X36035714Y-48990533D01*
X36035714Y-48990533D02*
X35988095Y-49133390D01*
X35988095Y-49133390D02*
X35416667Y-49704819D01*
X35416667Y-49704819D02*
X36035714Y-49704819D01*
X102384761Y-24490057D02*
X102289523Y-24442438D01*
X102289523Y-24442438D02*
X102194285Y-24347200D01*
X102194285Y-24347200D02*
X102051428Y-24204342D01*
X102051428Y-24204342D02*
X101956190Y-24156723D01*
X101956190Y-24156723D02*
X101860952Y-24156723D01*
X101908571Y-24394819D02*
X101813333Y-24347200D01*
X101813333Y-24347200D02*
X101718095Y-24251961D01*
X101718095Y-24251961D02*
X101670476Y-24061485D01*
X101670476Y-24061485D02*
X101670476Y-23728152D01*
X101670476Y-23728152D02*
X101718095Y-23537676D01*
X101718095Y-23537676D02*
X101813333Y-23442438D01*
X101813333Y-23442438D02*
X101908571Y-23394819D01*
X101908571Y-23394819D02*
X102099047Y-23394819D01*
X102099047Y-23394819D02*
X102194285Y-23442438D01*
X102194285Y-23442438D02*
X102289523Y-23537676D01*
X102289523Y-23537676D02*
X102337142Y-23728152D01*
X102337142Y-23728152D02*
X102337142Y-24061485D01*
X102337142Y-24061485D02*
X102289523Y-24251961D01*
X102289523Y-24251961D02*
X102194285Y-24347200D01*
X102194285Y-24347200D02*
X102099047Y-24394819D01*
X102099047Y-24394819D02*
X101908571Y-24394819D01*
X103289523Y-24394819D02*
X102718095Y-24394819D01*
X103003809Y-24394819D02*
X103003809Y-23394819D01*
X103003809Y-23394819D02*
X102908571Y-23537676D01*
X102908571Y-23537676D02*
X102813333Y-23632914D01*
X102813333Y-23632914D02*
X102718095Y-23680533D01*
X37738095Y-37574819D02*
X38309523Y-37574819D01*
X38023809Y-38574819D02*
X38023809Y-37574819D01*
X38642857Y-38574819D02*
X38642857Y-37574819D01*
X38642857Y-37574819D02*
X39023809Y-37574819D01*
X39023809Y-37574819D02*
X39119047Y-37622438D01*
X39119047Y-37622438D02*
X39166666Y-37670057D01*
X39166666Y-37670057D02*
X39214285Y-37765295D01*
X39214285Y-37765295D02*
X39214285Y-37908152D01*
X39214285Y-37908152D02*
X39166666Y-38003390D01*
X39166666Y-38003390D02*
X39119047Y-38051009D01*
X39119047Y-38051009D02*
X39023809Y-38098628D01*
X39023809Y-38098628D02*
X38642857Y-38098628D01*
X40071428Y-37574819D02*
X39880952Y-37574819D01*
X39880952Y-37574819D02*
X39785714Y-37622438D01*
X39785714Y-37622438D02*
X39738095Y-37670057D01*
X39738095Y-37670057D02*
X39642857Y-37812914D01*
X39642857Y-37812914D02*
X39595238Y-38003390D01*
X39595238Y-38003390D02*
X39595238Y-38384342D01*
X39595238Y-38384342D02*
X39642857Y-38479580D01*
X39642857Y-38479580D02*
X39690476Y-38527200D01*
X39690476Y-38527200D02*
X39785714Y-38574819D01*
X39785714Y-38574819D02*
X39976190Y-38574819D01*
X39976190Y-38574819D02*
X40071428Y-38527200D01*
X40071428Y-38527200D02*
X40119047Y-38479580D01*
X40119047Y-38479580D02*
X40166666Y-38384342D01*
X40166666Y-38384342D02*
X40166666Y-38146247D01*
X40166666Y-38146247D02*
X40119047Y-38051009D01*
X40119047Y-38051009D02*
X40071428Y-38003390D01*
X40071428Y-38003390D02*
X39976190Y-37955771D01*
X39976190Y-37955771D02*
X39785714Y-37955771D01*
X39785714Y-37955771D02*
X39690476Y-38003390D01*
X39690476Y-38003390D02*
X39642857Y-38051009D01*
X39642857Y-38051009D02*
X39595238Y-38146247D01*
X26988095Y-25074819D02*
X27559523Y-25074819D01*
X27273809Y-26074819D02*
X27273809Y-25074819D01*
X27892857Y-26074819D02*
X27892857Y-25074819D01*
X27892857Y-25074819D02*
X28273809Y-25074819D01*
X28273809Y-25074819D02*
X28369047Y-25122438D01*
X28369047Y-25122438D02*
X28416666Y-25170057D01*
X28416666Y-25170057D02*
X28464285Y-25265295D01*
X28464285Y-25265295D02*
X28464285Y-25408152D01*
X28464285Y-25408152D02*
X28416666Y-25503390D01*
X28416666Y-25503390D02*
X28369047Y-25551009D01*
X28369047Y-25551009D02*
X28273809Y-25598628D01*
X28273809Y-25598628D02*
X27892857Y-25598628D01*
X29321428Y-25408152D02*
X29321428Y-26074819D01*
X29083333Y-25027200D02*
X28845238Y-25741485D01*
X28845238Y-25741485D02*
X29464285Y-25741485D01*
X29261905Y-78824819D02*
X29833333Y-78824819D01*
X29547619Y-79824819D02*
X29547619Y-78824819D01*
X30166667Y-79824819D02*
X30166667Y-78824819D01*
X30166667Y-78824819D02*
X30547619Y-78824819D01*
X30547619Y-78824819D02*
X30642857Y-78872438D01*
X30642857Y-78872438D02*
X30690476Y-78920057D01*
X30690476Y-78920057D02*
X30738095Y-79015295D01*
X30738095Y-79015295D02*
X30738095Y-79158152D01*
X30738095Y-79158152D02*
X30690476Y-79253390D01*
X30690476Y-79253390D02*
X30642857Y-79301009D01*
X30642857Y-79301009D02*
X30547619Y-79348628D01*
X30547619Y-79348628D02*
X30166667Y-79348628D01*
X31690476Y-79824819D02*
X31119048Y-79824819D01*
X31404762Y-79824819D02*
X31404762Y-78824819D01*
X31404762Y-78824819D02*
X31309524Y-78967676D01*
X31309524Y-78967676D02*
X31214286Y-79062914D01*
X31214286Y-79062914D02*
X31119048Y-79110533D01*
X32547619Y-79158152D02*
X32547619Y-79824819D01*
X32309524Y-78777200D02*
X32071429Y-79491485D01*
X32071429Y-79491485D02*
X32690476Y-79491485D01*
X29261905Y-85004819D02*
X29833333Y-85004819D01*
X29547619Y-86004819D02*
X29547619Y-85004819D01*
X30166667Y-86004819D02*
X30166667Y-85004819D01*
X30166667Y-85004819D02*
X30547619Y-85004819D01*
X30547619Y-85004819D02*
X30642857Y-85052438D01*
X30642857Y-85052438D02*
X30690476Y-85100057D01*
X30690476Y-85100057D02*
X30738095Y-85195295D01*
X30738095Y-85195295D02*
X30738095Y-85338152D01*
X30738095Y-85338152D02*
X30690476Y-85433390D01*
X30690476Y-85433390D02*
X30642857Y-85481009D01*
X30642857Y-85481009D02*
X30547619Y-85528628D01*
X30547619Y-85528628D02*
X30166667Y-85528628D01*
X31690476Y-86004819D02*
X31119048Y-86004819D01*
X31404762Y-86004819D02*
X31404762Y-85004819D01*
X31404762Y-85004819D02*
X31309524Y-85147676D01*
X31309524Y-85147676D02*
X31214286Y-85242914D01*
X31214286Y-85242914D02*
X31119048Y-85290533D01*
X32547619Y-85004819D02*
X32357143Y-85004819D01*
X32357143Y-85004819D02*
X32261905Y-85052438D01*
X32261905Y-85052438D02*
X32214286Y-85100057D01*
X32214286Y-85100057D02*
X32119048Y-85242914D01*
X32119048Y-85242914D02*
X32071429Y-85433390D01*
X32071429Y-85433390D02*
X32071429Y-85814342D01*
X32071429Y-85814342D02*
X32119048Y-85909580D01*
X32119048Y-85909580D02*
X32166667Y-85957200D01*
X32166667Y-85957200D02*
X32261905Y-86004819D01*
X32261905Y-86004819D02*
X32452381Y-86004819D01*
X32452381Y-86004819D02*
X32547619Y-85957200D01*
X32547619Y-85957200D02*
X32595238Y-85909580D01*
X32595238Y-85909580D02*
X32642857Y-85814342D01*
X32642857Y-85814342D02*
X32642857Y-85576247D01*
X32642857Y-85576247D02*
X32595238Y-85481009D01*
X32595238Y-85481009D02*
X32547619Y-85433390D01*
X32547619Y-85433390D02*
X32452381Y-85385771D01*
X32452381Y-85385771D02*
X32261905Y-85385771D01*
X32261905Y-85385771D02*
X32166667Y-85433390D01*
X32166667Y-85433390D02*
X32119048Y-85481009D01*
X32119048Y-85481009D02*
X32071429Y-85576247D01*
X84511905Y-86574819D02*
X85083333Y-86574819D01*
X84797619Y-87574819D02*
X84797619Y-86574819D01*
X85416667Y-87574819D02*
X85416667Y-86574819D01*
X85416667Y-86574819D02*
X85797619Y-86574819D01*
X85797619Y-86574819D02*
X85892857Y-86622438D01*
X85892857Y-86622438D02*
X85940476Y-86670057D01*
X85940476Y-86670057D02*
X85988095Y-86765295D01*
X85988095Y-86765295D02*
X85988095Y-86908152D01*
X85988095Y-86908152D02*
X85940476Y-87003390D01*
X85940476Y-87003390D02*
X85892857Y-87051009D01*
X85892857Y-87051009D02*
X85797619Y-87098628D01*
X85797619Y-87098628D02*
X85416667Y-87098628D01*
X86940476Y-87574819D02*
X86369048Y-87574819D01*
X86654762Y-87574819D02*
X86654762Y-86574819D01*
X86654762Y-86574819D02*
X86559524Y-86717676D01*
X86559524Y-86717676D02*
X86464286Y-86812914D01*
X86464286Y-86812914D02*
X86369048Y-86860533D01*
X87559524Y-86574819D02*
X87654762Y-86574819D01*
X87654762Y-86574819D02*
X87750000Y-86622438D01*
X87750000Y-86622438D02*
X87797619Y-86670057D01*
X87797619Y-86670057D02*
X87845238Y-86765295D01*
X87845238Y-86765295D02*
X87892857Y-86955771D01*
X87892857Y-86955771D02*
X87892857Y-87193866D01*
X87892857Y-87193866D02*
X87845238Y-87384342D01*
X87845238Y-87384342D02*
X87797619Y-87479580D01*
X87797619Y-87479580D02*
X87750000Y-87527200D01*
X87750000Y-87527200D02*
X87654762Y-87574819D01*
X87654762Y-87574819D02*
X87559524Y-87574819D01*
X87559524Y-87574819D02*
X87464286Y-87527200D01*
X87464286Y-87527200D02*
X87416667Y-87479580D01*
X87416667Y-87479580D02*
X87369048Y-87384342D01*
X87369048Y-87384342D02*
X87321429Y-87193866D01*
X87321429Y-87193866D02*
X87321429Y-86955771D01*
X87321429Y-86955771D02*
X87369048Y-86765295D01*
X87369048Y-86765295D02*
X87416667Y-86670057D01*
X87416667Y-86670057D02*
X87464286Y-86622438D01*
X87464286Y-86622438D02*
X87559524Y-86574819D01*
X85238095Y-37324819D02*
X85809523Y-37324819D01*
X85523809Y-38324819D02*
X85523809Y-37324819D01*
X86142857Y-38324819D02*
X86142857Y-37324819D01*
X86142857Y-37324819D02*
X86523809Y-37324819D01*
X86523809Y-37324819D02*
X86619047Y-37372438D01*
X86619047Y-37372438D02*
X86666666Y-37420057D01*
X86666666Y-37420057D02*
X86714285Y-37515295D01*
X86714285Y-37515295D02*
X86714285Y-37658152D01*
X86714285Y-37658152D02*
X86666666Y-37753390D01*
X86666666Y-37753390D02*
X86619047Y-37801009D01*
X86619047Y-37801009D02*
X86523809Y-37848628D01*
X86523809Y-37848628D02*
X86142857Y-37848628D01*
X87047619Y-37324819D02*
X87714285Y-37324819D01*
X87714285Y-37324819D02*
X87285714Y-38324819D01*
X68011905Y-30074819D02*
X68583333Y-30074819D01*
X68297619Y-31074819D02*
X68297619Y-30074819D01*
X68916667Y-31074819D02*
X68916667Y-30074819D01*
X68916667Y-30074819D02*
X69297619Y-30074819D01*
X69297619Y-30074819D02*
X69392857Y-30122438D01*
X69392857Y-30122438D02*
X69440476Y-30170057D01*
X69440476Y-30170057D02*
X69488095Y-30265295D01*
X69488095Y-30265295D02*
X69488095Y-30408152D01*
X69488095Y-30408152D02*
X69440476Y-30503390D01*
X69440476Y-30503390D02*
X69392857Y-30551009D01*
X69392857Y-30551009D02*
X69297619Y-30598628D01*
X69297619Y-30598628D02*
X68916667Y-30598628D01*
X70440476Y-31074819D02*
X69869048Y-31074819D01*
X70154762Y-31074819D02*
X70154762Y-30074819D01*
X70154762Y-30074819D02*
X70059524Y-30217676D01*
X70059524Y-30217676D02*
X69964286Y-30312914D01*
X69964286Y-30312914D02*
X69869048Y-30360533D01*
X71345238Y-30074819D02*
X70869048Y-30074819D01*
X70869048Y-30074819D02*
X70821429Y-30551009D01*
X70821429Y-30551009D02*
X70869048Y-30503390D01*
X70869048Y-30503390D02*
X70964286Y-30455771D01*
X70964286Y-30455771D02*
X71202381Y-30455771D01*
X71202381Y-30455771D02*
X71297619Y-30503390D01*
X71297619Y-30503390D02*
X71345238Y-30551009D01*
X71345238Y-30551009D02*
X71392857Y-30646247D01*
X71392857Y-30646247D02*
X71392857Y-30884342D01*
X71392857Y-30884342D02*
X71345238Y-30979580D01*
X71345238Y-30979580D02*
X71297619Y-31027200D01*
X71297619Y-31027200D02*
X71202381Y-31074819D01*
X71202381Y-31074819D02*
X70964286Y-31074819D01*
X70964286Y-31074819D02*
X70869048Y-31027200D01*
X70869048Y-31027200D02*
X70821429Y-30979580D01*
X78857142Y-42189580D02*
X78809523Y-42237200D01*
X78809523Y-42237200D02*
X78666666Y-42284819D01*
X78666666Y-42284819D02*
X78571428Y-42284819D01*
X78571428Y-42284819D02*
X78428571Y-42237200D01*
X78428571Y-42237200D02*
X78333333Y-42141961D01*
X78333333Y-42141961D02*
X78285714Y-42046723D01*
X78285714Y-42046723D02*
X78238095Y-41856247D01*
X78238095Y-41856247D02*
X78238095Y-41713390D01*
X78238095Y-41713390D02*
X78285714Y-41522914D01*
X78285714Y-41522914D02*
X78333333Y-41427676D01*
X78333333Y-41427676D02*
X78428571Y-41332438D01*
X78428571Y-41332438D02*
X78571428Y-41284819D01*
X78571428Y-41284819D02*
X78666666Y-41284819D01*
X78666666Y-41284819D02*
X78809523Y-41332438D01*
X78809523Y-41332438D02*
X78857142Y-41380057D01*
X79809523Y-42284819D02*
X79238095Y-42284819D01*
X79523809Y-42284819D02*
X79523809Y-41284819D01*
X79523809Y-41284819D02*
X79428571Y-41427676D01*
X79428571Y-41427676D02*
X79333333Y-41522914D01*
X79333333Y-41522914D02*
X79238095Y-41570533D01*
X80190476Y-41380057D02*
X80238095Y-41332438D01*
X80238095Y-41332438D02*
X80333333Y-41284819D01*
X80333333Y-41284819D02*
X80571428Y-41284819D01*
X80571428Y-41284819D02*
X80666666Y-41332438D01*
X80666666Y-41332438D02*
X80714285Y-41380057D01*
X80714285Y-41380057D02*
X80761904Y-41475295D01*
X80761904Y-41475295D02*
X80761904Y-41570533D01*
X80761904Y-41570533D02*
X80714285Y-41713390D01*
X80714285Y-41713390D02*
X80142857Y-42284819D01*
X80142857Y-42284819D02*
X80761904Y-42284819D01*
X98083333Y-31074819D02*
X97750000Y-30598628D01*
X97511905Y-31074819D02*
X97511905Y-30074819D01*
X97511905Y-30074819D02*
X97892857Y-30074819D01*
X97892857Y-30074819D02*
X97988095Y-30122438D01*
X97988095Y-30122438D02*
X98035714Y-30170057D01*
X98035714Y-30170057D02*
X98083333Y-30265295D01*
X98083333Y-30265295D02*
X98083333Y-30408152D01*
X98083333Y-30408152D02*
X98035714Y-30503390D01*
X98035714Y-30503390D02*
X97988095Y-30551009D01*
X97988095Y-30551009D02*
X97892857Y-30598628D01*
X97892857Y-30598628D02*
X97511905Y-30598628D01*
X98416667Y-30074819D02*
X99035714Y-30074819D01*
X99035714Y-30074819D02*
X98702381Y-30455771D01*
X98702381Y-30455771D02*
X98845238Y-30455771D01*
X98845238Y-30455771D02*
X98940476Y-30503390D01*
X98940476Y-30503390D02*
X98988095Y-30551009D01*
X98988095Y-30551009D02*
X99035714Y-30646247D01*
X99035714Y-30646247D02*
X99035714Y-30884342D01*
X99035714Y-30884342D02*
X98988095Y-30979580D01*
X98988095Y-30979580D02*
X98940476Y-31027200D01*
X98940476Y-31027200D02*
X98845238Y-31074819D01*
X98845238Y-31074819D02*
X98559524Y-31074819D01*
X98559524Y-31074819D02*
X98464286Y-31027200D01*
X98464286Y-31027200D02*
X98416667Y-30979580D01*
X48833333Y-59859580D02*
X48785714Y-59907200D01*
X48785714Y-59907200D02*
X48642857Y-59954819D01*
X48642857Y-59954819D02*
X48547619Y-59954819D01*
X48547619Y-59954819D02*
X48404762Y-59907200D01*
X48404762Y-59907200D02*
X48309524Y-59811961D01*
X48309524Y-59811961D02*
X48261905Y-59716723D01*
X48261905Y-59716723D02*
X48214286Y-59526247D01*
X48214286Y-59526247D02*
X48214286Y-59383390D01*
X48214286Y-59383390D02*
X48261905Y-59192914D01*
X48261905Y-59192914D02*
X48309524Y-59097676D01*
X48309524Y-59097676D02*
X48404762Y-59002438D01*
X48404762Y-59002438D02*
X48547619Y-58954819D01*
X48547619Y-58954819D02*
X48642857Y-58954819D01*
X48642857Y-58954819D02*
X48785714Y-59002438D01*
X48785714Y-59002438D02*
X48833333Y-59050057D01*
X49404762Y-59383390D02*
X49309524Y-59335771D01*
X49309524Y-59335771D02*
X49261905Y-59288152D01*
X49261905Y-59288152D02*
X49214286Y-59192914D01*
X49214286Y-59192914D02*
X49214286Y-59145295D01*
X49214286Y-59145295D02*
X49261905Y-59050057D01*
X49261905Y-59050057D02*
X49309524Y-59002438D01*
X49309524Y-59002438D02*
X49404762Y-58954819D01*
X49404762Y-58954819D02*
X49595238Y-58954819D01*
X49595238Y-58954819D02*
X49690476Y-59002438D01*
X49690476Y-59002438D02*
X49738095Y-59050057D01*
X49738095Y-59050057D02*
X49785714Y-59145295D01*
X49785714Y-59145295D02*
X49785714Y-59192914D01*
X49785714Y-59192914D02*
X49738095Y-59288152D01*
X49738095Y-59288152D02*
X49690476Y-59335771D01*
X49690476Y-59335771D02*
X49595238Y-59383390D01*
X49595238Y-59383390D02*
X49404762Y-59383390D01*
X49404762Y-59383390D02*
X49309524Y-59431009D01*
X49309524Y-59431009D02*
X49261905Y-59478628D01*
X49261905Y-59478628D02*
X49214286Y-59573866D01*
X49214286Y-59573866D02*
X49214286Y-59764342D01*
X49214286Y-59764342D02*
X49261905Y-59859580D01*
X49261905Y-59859580D02*
X49309524Y-59907200D01*
X49309524Y-59907200D02*
X49404762Y-59954819D01*
X49404762Y-59954819D02*
X49595238Y-59954819D01*
X49595238Y-59954819D02*
X49690476Y-59907200D01*
X49690476Y-59907200D02*
X49738095Y-59859580D01*
X49738095Y-59859580D02*
X49785714Y-59764342D01*
X49785714Y-59764342D02*
X49785714Y-59573866D01*
X49785714Y-59573866D02*
X49738095Y-59478628D01*
X49738095Y-59478628D02*
X49690476Y-59431009D01*
X49690476Y-59431009D02*
X49595238Y-59383390D01*
X25774819Y-23078333D02*
X26489104Y-23078333D01*
X26489104Y-23078333D02*
X26631961Y-23125952D01*
X26631961Y-23125952D02*
X26727200Y-23221190D01*
X26727200Y-23221190D02*
X26774819Y-23364047D01*
X26774819Y-23364047D02*
X26774819Y-23459285D01*
X26774819Y-22078333D02*
X26774819Y-22649761D01*
X26774819Y-22364047D02*
X25774819Y-22364047D01*
X25774819Y-22364047D02*
X25917676Y-22459285D01*
X25917676Y-22459285D02*
X26012914Y-22554523D01*
X26012914Y-22554523D02*
X26060533Y-22649761D01*
X94324819Y-86488094D02*
X93324819Y-86488094D01*
X93324819Y-86488094D02*
X93324819Y-86249999D01*
X93324819Y-86249999D02*
X93372438Y-86107142D01*
X93372438Y-86107142D02*
X93467676Y-86011904D01*
X93467676Y-86011904D02*
X93562914Y-85964285D01*
X93562914Y-85964285D02*
X93753390Y-85916666D01*
X93753390Y-85916666D02*
X93896247Y-85916666D01*
X93896247Y-85916666D02*
X94086723Y-85964285D01*
X94086723Y-85964285D02*
X94181961Y-86011904D01*
X94181961Y-86011904D02*
X94277200Y-86107142D01*
X94277200Y-86107142D02*
X94324819Y-86249999D01*
X94324819Y-86249999D02*
X94324819Y-86488094D01*
X93324819Y-85011904D02*
X93324819Y-85488094D01*
X93324819Y-85488094D02*
X93801009Y-85535713D01*
X93801009Y-85535713D02*
X93753390Y-85488094D01*
X93753390Y-85488094D02*
X93705771Y-85392856D01*
X93705771Y-85392856D02*
X93705771Y-85154761D01*
X93705771Y-85154761D02*
X93753390Y-85059523D01*
X93753390Y-85059523D02*
X93801009Y-85011904D01*
X93801009Y-85011904D02*
X93896247Y-84964285D01*
X93896247Y-84964285D02*
X94134342Y-84964285D01*
X94134342Y-84964285D02*
X94229580Y-85011904D01*
X94229580Y-85011904D02*
X94277200Y-85059523D01*
X94277200Y-85059523D02*
X94324819Y-85154761D01*
X94324819Y-85154761D02*
X94324819Y-85392856D01*
X94324819Y-85392856D02*
X94277200Y-85488094D01*
X94277200Y-85488094D02*
X94229580Y-85535713D01*
X94004819Y-82201904D02*
X93004819Y-82201904D01*
X94004819Y-81630476D02*
X93433390Y-82059047D01*
X93004819Y-81630476D02*
X93576247Y-82201904D01*
X71488095Y-41454819D02*
X71488095Y-42264342D01*
X71488095Y-42264342D02*
X71535714Y-42359580D01*
X71535714Y-42359580D02*
X71583333Y-42407200D01*
X71583333Y-42407200D02*
X71678571Y-42454819D01*
X71678571Y-42454819D02*
X71869047Y-42454819D01*
X71869047Y-42454819D02*
X71964285Y-42407200D01*
X71964285Y-42407200D02*
X72011904Y-42359580D01*
X72011904Y-42359580D02*
X72059523Y-42264342D01*
X72059523Y-42264342D02*
X72059523Y-41454819D01*
X73059523Y-42454819D02*
X72488095Y-42454819D01*
X72773809Y-42454819D02*
X72773809Y-41454819D01*
X72773809Y-41454819D02*
X72678571Y-41597676D01*
X72678571Y-41597676D02*
X72583333Y-41692914D01*
X72583333Y-41692914D02*
X72488095Y-41740533D01*
X94324819Y-37048094D02*
X93324819Y-37048094D01*
X93324819Y-37048094D02*
X93324819Y-36809999D01*
X93324819Y-36809999D02*
X93372438Y-36667142D01*
X93372438Y-36667142D02*
X93467676Y-36571904D01*
X93467676Y-36571904D02*
X93562914Y-36524285D01*
X93562914Y-36524285D02*
X93753390Y-36476666D01*
X93753390Y-36476666D02*
X93896247Y-36476666D01*
X93896247Y-36476666D02*
X94086723Y-36524285D01*
X94086723Y-36524285D02*
X94181961Y-36571904D01*
X94181961Y-36571904D02*
X94277200Y-36667142D01*
X94277200Y-36667142D02*
X94324819Y-36809999D01*
X94324819Y-36809999D02*
X94324819Y-37048094D01*
X93324819Y-36143332D02*
X93324819Y-35524285D01*
X93324819Y-35524285D02*
X93705771Y-35857618D01*
X93705771Y-35857618D02*
X93705771Y-35714761D01*
X93705771Y-35714761D02*
X93753390Y-35619523D01*
X93753390Y-35619523D02*
X93801009Y-35571904D01*
X93801009Y-35571904D02*
X93896247Y-35524285D01*
X93896247Y-35524285D02*
X94134342Y-35524285D01*
X94134342Y-35524285D02*
X94229580Y-35571904D01*
X94229580Y-35571904D02*
X94277200Y-35619523D01*
X94277200Y-35619523D02*
X94324819Y-35714761D01*
X94324819Y-35714761D02*
X94324819Y-36000475D01*
X94324819Y-36000475D02*
X94277200Y-36095713D01*
X94277200Y-36095713D02*
X94229580Y-36143332D01*
X94004819Y-32761904D02*
X93004819Y-32761904D01*
X94004819Y-32190476D02*
X93433390Y-32619047D01*
X93004819Y-32190476D02*
X93576247Y-32761904D01*
X108281905Y-50494819D02*
X108281905Y-49494819D01*
X108281905Y-49494819D02*
X108520000Y-49494819D01*
X108520000Y-49494819D02*
X108662857Y-49542438D01*
X108662857Y-49542438D02*
X108758095Y-49637676D01*
X108758095Y-49637676D02*
X108805714Y-49732914D01*
X108805714Y-49732914D02*
X108853333Y-49923390D01*
X108853333Y-49923390D02*
X108853333Y-50066247D01*
X108853333Y-50066247D02*
X108805714Y-50256723D01*
X108805714Y-50256723D02*
X108758095Y-50351961D01*
X108758095Y-50351961D02*
X108662857Y-50447200D01*
X108662857Y-50447200D02*
X108520000Y-50494819D01*
X108520000Y-50494819D02*
X108281905Y-50494819D01*
X109710476Y-49494819D02*
X109520000Y-49494819D01*
X109520000Y-49494819D02*
X109424762Y-49542438D01*
X109424762Y-49542438D02*
X109377143Y-49590057D01*
X109377143Y-49590057D02*
X109281905Y-49732914D01*
X109281905Y-49732914D02*
X109234286Y-49923390D01*
X109234286Y-49923390D02*
X109234286Y-50304342D01*
X109234286Y-50304342D02*
X109281905Y-50399580D01*
X109281905Y-50399580D02*
X109329524Y-50447200D01*
X109329524Y-50447200D02*
X109424762Y-50494819D01*
X109424762Y-50494819D02*
X109615238Y-50494819D01*
X109615238Y-50494819D02*
X109710476Y-50447200D01*
X109710476Y-50447200D02*
X109758095Y-50399580D01*
X109758095Y-50399580D02*
X109805714Y-50304342D01*
X109805714Y-50304342D02*
X109805714Y-50066247D01*
X109805714Y-50066247D02*
X109758095Y-49971009D01*
X109758095Y-49971009D02*
X109710476Y-49923390D01*
X109710476Y-49923390D02*
X109615238Y-49875771D01*
X109615238Y-49875771D02*
X109424762Y-49875771D01*
X109424762Y-49875771D02*
X109329524Y-49923390D01*
X109329524Y-49923390D02*
X109281905Y-49971009D01*
X109281905Y-49971009D02*
X109234286Y-50066247D01*
X101238095Y-17074819D02*
X101809523Y-17074819D01*
X101523809Y-18074819D02*
X101523809Y-17074819D01*
X102142857Y-18074819D02*
X102142857Y-17074819D01*
X102142857Y-17074819D02*
X102523809Y-17074819D01*
X102523809Y-17074819D02*
X102619047Y-17122438D01*
X102619047Y-17122438D02*
X102666666Y-17170057D01*
X102666666Y-17170057D02*
X102714285Y-17265295D01*
X102714285Y-17265295D02*
X102714285Y-17408152D01*
X102714285Y-17408152D02*
X102666666Y-17503390D01*
X102666666Y-17503390D02*
X102619047Y-17551009D01*
X102619047Y-17551009D02*
X102523809Y-17598628D01*
X102523809Y-17598628D02*
X102142857Y-17598628D01*
X103190476Y-18074819D02*
X103380952Y-18074819D01*
X103380952Y-18074819D02*
X103476190Y-18027200D01*
X103476190Y-18027200D02*
X103523809Y-17979580D01*
X103523809Y-17979580D02*
X103619047Y-17836723D01*
X103619047Y-17836723D02*
X103666666Y-17646247D01*
X103666666Y-17646247D02*
X103666666Y-17265295D01*
X103666666Y-17265295D02*
X103619047Y-17170057D01*
X103619047Y-17170057D02*
X103571428Y-17122438D01*
X103571428Y-17122438D02*
X103476190Y-17074819D01*
X103476190Y-17074819D02*
X103285714Y-17074819D01*
X103285714Y-17074819D02*
X103190476Y-17122438D01*
X103190476Y-17122438D02*
X103142857Y-17170057D01*
X103142857Y-17170057D02*
X103095238Y-17265295D01*
X103095238Y-17265295D02*
X103095238Y-17503390D01*
X103095238Y-17503390D02*
X103142857Y-17598628D01*
X103142857Y-17598628D02*
X103190476Y-17646247D01*
X103190476Y-17646247D02*
X103285714Y-17693866D01*
X103285714Y-17693866D02*
X103476190Y-17693866D01*
X103476190Y-17693866D02*
X103571428Y-17646247D01*
X103571428Y-17646247D02*
X103619047Y-17598628D01*
X103619047Y-17598628D02*
X103666666Y-17503390D01*
X37738095Y-33074819D02*
X38309523Y-33074819D01*
X38023809Y-34074819D02*
X38023809Y-33074819D01*
X38642857Y-34074819D02*
X38642857Y-33074819D01*
X38642857Y-33074819D02*
X39023809Y-33074819D01*
X39023809Y-33074819D02*
X39119047Y-33122438D01*
X39119047Y-33122438D02*
X39166666Y-33170057D01*
X39166666Y-33170057D02*
X39214285Y-33265295D01*
X39214285Y-33265295D02*
X39214285Y-33408152D01*
X39214285Y-33408152D02*
X39166666Y-33503390D01*
X39166666Y-33503390D02*
X39119047Y-33551009D01*
X39119047Y-33551009D02*
X39023809Y-33598628D01*
X39023809Y-33598628D02*
X38642857Y-33598628D01*
X39785714Y-33503390D02*
X39690476Y-33455771D01*
X39690476Y-33455771D02*
X39642857Y-33408152D01*
X39642857Y-33408152D02*
X39595238Y-33312914D01*
X39595238Y-33312914D02*
X39595238Y-33265295D01*
X39595238Y-33265295D02*
X39642857Y-33170057D01*
X39642857Y-33170057D02*
X39690476Y-33122438D01*
X39690476Y-33122438D02*
X39785714Y-33074819D01*
X39785714Y-33074819D02*
X39976190Y-33074819D01*
X39976190Y-33074819D02*
X40071428Y-33122438D01*
X40071428Y-33122438D02*
X40119047Y-33170057D01*
X40119047Y-33170057D02*
X40166666Y-33265295D01*
X40166666Y-33265295D02*
X40166666Y-33312914D01*
X40166666Y-33312914D02*
X40119047Y-33408152D01*
X40119047Y-33408152D02*
X40071428Y-33455771D01*
X40071428Y-33455771D02*
X39976190Y-33503390D01*
X39976190Y-33503390D02*
X39785714Y-33503390D01*
X39785714Y-33503390D02*
X39690476Y-33551009D01*
X39690476Y-33551009D02*
X39642857Y-33598628D01*
X39642857Y-33598628D02*
X39595238Y-33693866D01*
X39595238Y-33693866D02*
X39595238Y-33884342D01*
X39595238Y-33884342D02*
X39642857Y-33979580D01*
X39642857Y-33979580D02*
X39690476Y-34027200D01*
X39690476Y-34027200D02*
X39785714Y-34074819D01*
X39785714Y-34074819D02*
X39976190Y-34074819D01*
X39976190Y-34074819D02*
X40071428Y-34027200D01*
X40071428Y-34027200D02*
X40119047Y-33979580D01*
X40119047Y-33979580D02*
X40166666Y-33884342D01*
X40166666Y-33884342D02*
X40166666Y-33693866D01*
X40166666Y-33693866D02*
X40119047Y-33598628D01*
X40119047Y-33598628D02*
X40071428Y-33551009D01*
X40071428Y-33551009D02*
X39976190Y-33503390D01*
X55870833Y-31204819D02*
X55537500Y-30728628D01*
X55299405Y-31204819D02*
X55299405Y-30204819D01*
X55299405Y-30204819D02*
X55680357Y-30204819D01*
X55680357Y-30204819D02*
X55775595Y-30252438D01*
X55775595Y-30252438D02*
X55823214Y-30300057D01*
X55823214Y-30300057D02*
X55870833Y-30395295D01*
X55870833Y-30395295D02*
X55870833Y-30538152D01*
X55870833Y-30538152D02*
X55823214Y-30633390D01*
X55823214Y-30633390D02*
X55775595Y-30681009D01*
X55775595Y-30681009D02*
X55680357Y-30728628D01*
X55680357Y-30728628D02*
X55299405Y-30728628D01*
X56251786Y-30300057D02*
X56299405Y-30252438D01*
X56299405Y-30252438D02*
X56394643Y-30204819D01*
X56394643Y-30204819D02*
X56632738Y-30204819D01*
X56632738Y-30204819D02*
X56727976Y-30252438D01*
X56727976Y-30252438D02*
X56775595Y-30300057D01*
X56775595Y-30300057D02*
X56823214Y-30395295D01*
X56823214Y-30395295D02*
X56823214Y-30490533D01*
X56823214Y-30490533D02*
X56775595Y-30633390D01*
X56775595Y-30633390D02*
X56204167Y-31204819D01*
X56204167Y-31204819D02*
X56823214Y-31204819D01*
X100761905Y-66574819D02*
X101333333Y-66574819D01*
X101047619Y-67574819D02*
X101047619Y-66574819D01*
X101666667Y-67574819D02*
X101666667Y-66574819D01*
X101666667Y-66574819D02*
X102047619Y-66574819D01*
X102047619Y-66574819D02*
X102142857Y-66622438D01*
X102142857Y-66622438D02*
X102190476Y-66670057D01*
X102190476Y-66670057D02*
X102238095Y-66765295D01*
X102238095Y-66765295D02*
X102238095Y-66908152D01*
X102238095Y-66908152D02*
X102190476Y-67003390D01*
X102190476Y-67003390D02*
X102142857Y-67051009D01*
X102142857Y-67051009D02*
X102047619Y-67098628D01*
X102047619Y-67098628D02*
X101666667Y-67098628D01*
X103190476Y-67574819D02*
X102619048Y-67574819D01*
X102904762Y-67574819D02*
X102904762Y-66574819D01*
X102904762Y-66574819D02*
X102809524Y-66717676D01*
X102809524Y-66717676D02*
X102714286Y-66812914D01*
X102714286Y-66812914D02*
X102619048Y-66860533D01*
X104142857Y-67574819D02*
X103571429Y-67574819D01*
X103857143Y-67574819D02*
X103857143Y-66574819D01*
X103857143Y-66574819D02*
X103761905Y-66717676D01*
X103761905Y-66717676D02*
X103666667Y-66812914D01*
X103666667Y-66812914D02*
X103571429Y-66860533D01*
X97607142Y-56324819D02*
X97273809Y-55848628D01*
X97035714Y-56324819D02*
X97035714Y-55324819D01*
X97035714Y-55324819D02*
X97416666Y-55324819D01*
X97416666Y-55324819D02*
X97511904Y-55372438D01*
X97511904Y-55372438D02*
X97559523Y-55420057D01*
X97559523Y-55420057D02*
X97607142Y-55515295D01*
X97607142Y-55515295D02*
X97607142Y-55658152D01*
X97607142Y-55658152D02*
X97559523Y-55753390D01*
X97559523Y-55753390D02*
X97511904Y-55801009D01*
X97511904Y-55801009D02*
X97416666Y-55848628D01*
X97416666Y-55848628D02*
X97035714Y-55848628D01*
X98559523Y-56324819D02*
X97988095Y-56324819D01*
X98273809Y-56324819D02*
X98273809Y-55324819D01*
X98273809Y-55324819D02*
X98178571Y-55467676D01*
X98178571Y-55467676D02*
X98083333Y-55562914D01*
X98083333Y-55562914D02*
X97988095Y-55610533D01*
X99178571Y-55324819D02*
X99273809Y-55324819D01*
X99273809Y-55324819D02*
X99369047Y-55372438D01*
X99369047Y-55372438D02*
X99416666Y-55420057D01*
X99416666Y-55420057D02*
X99464285Y-55515295D01*
X99464285Y-55515295D02*
X99511904Y-55705771D01*
X99511904Y-55705771D02*
X99511904Y-55943866D01*
X99511904Y-55943866D02*
X99464285Y-56134342D01*
X99464285Y-56134342D02*
X99416666Y-56229580D01*
X99416666Y-56229580D02*
X99369047Y-56277200D01*
X99369047Y-56277200D02*
X99273809Y-56324819D01*
X99273809Y-56324819D02*
X99178571Y-56324819D01*
X99178571Y-56324819D02*
X99083333Y-56277200D01*
X99083333Y-56277200D02*
X99035714Y-56229580D01*
X99035714Y-56229580D02*
X98988095Y-56134342D01*
X98988095Y-56134342D02*
X98940476Y-55943866D01*
X98940476Y-55943866D02*
X98940476Y-55705771D01*
X98940476Y-55705771D02*
X98988095Y-55515295D01*
X98988095Y-55515295D02*
X99035714Y-55420057D01*
X99035714Y-55420057D02*
X99083333Y-55372438D01*
X99083333Y-55372438D02*
X99178571Y-55324819D01*
X45277142Y-71834819D02*
X44943809Y-71358628D01*
X44705714Y-71834819D02*
X44705714Y-70834819D01*
X44705714Y-70834819D02*
X45086666Y-70834819D01*
X45086666Y-70834819D02*
X45181904Y-70882438D01*
X45181904Y-70882438D02*
X45229523Y-70930057D01*
X45229523Y-70930057D02*
X45277142Y-71025295D01*
X45277142Y-71025295D02*
X45277142Y-71168152D01*
X45277142Y-71168152D02*
X45229523Y-71263390D01*
X45229523Y-71263390D02*
X45181904Y-71311009D01*
X45181904Y-71311009D02*
X45086666Y-71358628D01*
X45086666Y-71358628D02*
X44705714Y-71358628D01*
X46229523Y-71834819D02*
X45658095Y-71834819D01*
X45943809Y-71834819D02*
X45943809Y-70834819D01*
X45943809Y-70834819D02*
X45848571Y-70977676D01*
X45848571Y-70977676D02*
X45753333Y-71072914D01*
X45753333Y-71072914D02*
X45658095Y-71120533D01*
X46610476Y-70930057D02*
X46658095Y-70882438D01*
X46658095Y-70882438D02*
X46753333Y-70834819D01*
X46753333Y-70834819D02*
X46991428Y-70834819D01*
X46991428Y-70834819D02*
X47086666Y-70882438D01*
X47086666Y-70882438D02*
X47134285Y-70930057D01*
X47134285Y-70930057D02*
X47181904Y-71025295D01*
X47181904Y-71025295D02*
X47181904Y-71120533D01*
X47181904Y-71120533D02*
X47134285Y-71263390D01*
X47134285Y-71263390D02*
X46562857Y-71834819D01*
X46562857Y-71834819D02*
X47181904Y-71834819D01*
X61738095Y-25074819D02*
X62309523Y-25074819D01*
X62023809Y-26074819D02*
X62023809Y-25074819D01*
X62642857Y-26074819D02*
X62642857Y-25074819D01*
X62642857Y-25074819D02*
X63023809Y-25074819D01*
X63023809Y-25074819D02*
X63119047Y-25122438D01*
X63119047Y-25122438D02*
X63166666Y-25170057D01*
X63166666Y-25170057D02*
X63214285Y-25265295D01*
X63214285Y-25265295D02*
X63214285Y-25408152D01*
X63214285Y-25408152D02*
X63166666Y-25503390D01*
X63166666Y-25503390D02*
X63119047Y-25551009D01*
X63119047Y-25551009D02*
X63023809Y-25598628D01*
X63023809Y-25598628D02*
X62642857Y-25598628D01*
X64119047Y-25074819D02*
X63642857Y-25074819D01*
X63642857Y-25074819D02*
X63595238Y-25551009D01*
X63595238Y-25551009D02*
X63642857Y-25503390D01*
X63642857Y-25503390D02*
X63738095Y-25455771D01*
X63738095Y-25455771D02*
X63976190Y-25455771D01*
X63976190Y-25455771D02*
X64071428Y-25503390D01*
X64071428Y-25503390D02*
X64119047Y-25551009D01*
X64119047Y-25551009D02*
X64166666Y-25646247D01*
X64166666Y-25646247D02*
X64166666Y-25884342D01*
X64166666Y-25884342D02*
X64119047Y-25979580D01*
X64119047Y-25979580D02*
X64071428Y-26027200D01*
X64071428Y-26027200D02*
X63976190Y-26074819D01*
X63976190Y-26074819D02*
X63738095Y-26074819D01*
X63738095Y-26074819D02*
X63642857Y-26027200D01*
X63642857Y-26027200D02*
X63595238Y-25979580D01*
X37738095Y-42074819D02*
X38309523Y-42074819D01*
X38023809Y-43074819D02*
X38023809Y-42074819D01*
X38642857Y-43074819D02*
X38642857Y-42074819D01*
X38642857Y-42074819D02*
X39023809Y-42074819D01*
X39023809Y-42074819D02*
X39119047Y-42122438D01*
X39119047Y-42122438D02*
X39166666Y-42170057D01*
X39166666Y-42170057D02*
X39214285Y-42265295D01*
X39214285Y-42265295D02*
X39214285Y-42408152D01*
X39214285Y-42408152D02*
X39166666Y-42503390D01*
X39166666Y-42503390D02*
X39119047Y-42551009D01*
X39119047Y-42551009D02*
X39023809Y-42598628D01*
X39023809Y-42598628D02*
X38642857Y-42598628D01*
X39547619Y-42074819D02*
X40166666Y-42074819D01*
X40166666Y-42074819D02*
X39833333Y-42455771D01*
X39833333Y-42455771D02*
X39976190Y-42455771D01*
X39976190Y-42455771D02*
X40071428Y-42503390D01*
X40071428Y-42503390D02*
X40119047Y-42551009D01*
X40119047Y-42551009D02*
X40166666Y-42646247D01*
X40166666Y-42646247D02*
X40166666Y-42884342D01*
X40166666Y-42884342D02*
X40119047Y-42979580D01*
X40119047Y-42979580D02*
X40071428Y-43027200D01*
X40071428Y-43027200D02*
X39976190Y-43074819D01*
X39976190Y-43074819D02*
X39690476Y-43074819D01*
X39690476Y-43074819D02*
X39595238Y-43027200D01*
X39595238Y-43027200D02*
X39547619Y-42979580D01*
X21261905Y-52454819D02*
X21261905Y-51454819D01*
X21261905Y-51454819D02*
X21500000Y-51454819D01*
X21500000Y-51454819D02*
X21642857Y-51502438D01*
X21642857Y-51502438D02*
X21738095Y-51597676D01*
X21738095Y-51597676D02*
X21785714Y-51692914D01*
X21785714Y-51692914D02*
X21833333Y-51883390D01*
X21833333Y-51883390D02*
X21833333Y-52026247D01*
X21833333Y-52026247D02*
X21785714Y-52216723D01*
X21785714Y-52216723D02*
X21738095Y-52311961D01*
X21738095Y-52311961D02*
X21642857Y-52407200D01*
X21642857Y-52407200D02*
X21500000Y-52454819D01*
X21500000Y-52454819D02*
X21261905Y-52454819D01*
X22785714Y-52454819D02*
X22214286Y-52454819D01*
X22500000Y-52454819D02*
X22500000Y-51454819D01*
X22500000Y-51454819D02*
X22404762Y-51597676D01*
X22404762Y-51597676D02*
X22309524Y-51692914D01*
X22309524Y-51692914D02*
X22214286Y-51740533D01*
X79503333Y-60609580D02*
X79455714Y-60657200D01*
X79455714Y-60657200D02*
X79312857Y-60704819D01*
X79312857Y-60704819D02*
X79217619Y-60704819D01*
X79217619Y-60704819D02*
X79074762Y-60657200D01*
X79074762Y-60657200D02*
X78979524Y-60561961D01*
X78979524Y-60561961D02*
X78931905Y-60466723D01*
X78931905Y-60466723D02*
X78884286Y-60276247D01*
X78884286Y-60276247D02*
X78884286Y-60133390D01*
X78884286Y-60133390D02*
X78931905Y-59942914D01*
X78931905Y-59942914D02*
X78979524Y-59847676D01*
X78979524Y-59847676D02*
X79074762Y-59752438D01*
X79074762Y-59752438D02*
X79217619Y-59704819D01*
X79217619Y-59704819D02*
X79312857Y-59704819D01*
X79312857Y-59704819D02*
X79455714Y-59752438D01*
X79455714Y-59752438D02*
X79503333Y-59800057D01*
X79979524Y-60704819D02*
X80170000Y-60704819D01*
X80170000Y-60704819D02*
X80265238Y-60657200D01*
X80265238Y-60657200D02*
X80312857Y-60609580D01*
X80312857Y-60609580D02*
X80408095Y-60466723D01*
X80408095Y-60466723D02*
X80455714Y-60276247D01*
X80455714Y-60276247D02*
X80455714Y-59895295D01*
X80455714Y-59895295D02*
X80408095Y-59800057D01*
X80408095Y-59800057D02*
X80360476Y-59752438D01*
X80360476Y-59752438D02*
X80265238Y-59704819D01*
X80265238Y-59704819D02*
X80074762Y-59704819D01*
X80074762Y-59704819D02*
X79979524Y-59752438D01*
X79979524Y-59752438D02*
X79931905Y-59800057D01*
X79931905Y-59800057D02*
X79884286Y-59895295D01*
X79884286Y-59895295D02*
X79884286Y-60133390D01*
X79884286Y-60133390D02*
X79931905Y-60228628D01*
X79931905Y-60228628D02*
X79979524Y-60276247D01*
X79979524Y-60276247D02*
X80074762Y-60323866D01*
X80074762Y-60323866D02*
X80265238Y-60323866D01*
X80265238Y-60323866D02*
X80360476Y-60276247D01*
X80360476Y-60276247D02*
X80408095Y-60228628D01*
X80408095Y-60228628D02*
X80455714Y-60133390D01*
X74753333Y-84359580D02*
X74705714Y-84407200D01*
X74705714Y-84407200D02*
X74562857Y-84454819D01*
X74562857Y-84454819D02*
X74467619Y-84454819D01*
X74467619Y-84454819D02*
X74324762Y-84407200D01*
X74324762Y-84407200D02*
X74229524Y-84311961D01*
X74229524Y-84311961D02*
X74181905Y-84216723D01*
X74181905Y-84216723D02*
X74134286Y-84026247D01*
X74134286Y-84026247D02*
X74134286Y-83883390D01*
X74134286Y-83883390D02*
X74181905Y-83692914D01*
X74181905Y-83692914D02*
X74229524Y-83597676D01*
X74229524Y-83597676D02*
X74324762Y-83502438D01*
X74324762Y-83502438D02*
X74467619Y-83454819D01*
X74467619Y-83454819D02*
X74562857Y-83454819D01*
X74562857Y-83454819D02*
X74705714Y-83502438D01*
X74705714Y-83502438D02*
X74753333Y-83550057D01*
X75610476Y-83454819D02*
X75420000Y-83454819D01*
X75420000Y-83454819D02*
X75324762Y-83502438D01*
X75324762Y-83502438D02*
X75277143Y-83550057D01*
X75277143Y-83550057D02*
X75181905Y-83692914D01*
X75181905Y-83692914D02*
X75134286Y-83883390D01*
X75134286Y-83883390D02*
X75134286Y-84264342D01*
X75134286Y-84264342D02*
X75181905Y-84359580D01*
X75181905Y-84359580D02*
X75229524Y-84407200D01*
X75229524Y-84407200D02*
X75324762Y-84454819D01*
X75324762Y-84454819D02*
X75515238Y-84454819D01*
X75515238Y-84454819D02*
X75610476Y-84407200D01*
X75610476Y-84407200D02*
X75658095Y-84359580D01*
X75658095Y-84359580D02*
X75705714Y-84264342D01*
X75705714Y-84264342D02*
X75705714Y-84026247D01*
X75705714Y-84026247D02*
X75658095Y-83931009D01*
X75658095Y-83931009D02*
X75610476Y-83883390D01*
X75610476Y-83883390D02*
X75515238Y-83835771D01*
X75515238Y-83835771D02*
X75324762Y-83835771D01*
X75324762Y-83835771D02*
X75229524Y-83883390D01*
X75229524Y-83883390D02*
X75181905Y-83931009D01*
X75181905Y-83931009D02*
X75134286Y-84026247D01*
X107781905Y-74494819D02*
X107781905Y-73494819D01*
X107781905Y-73494819D02*
X108020000Y-73494819D01*
X108020000Y-73494819D02*
X108162857Y-73542438D01*
X108162857Y-73542438D02*
X108258095Y-73637676D01*
X108258095Y-73637676D02*
X108305714Y-73732914D01*
X108305714Y-73732914D02*
X108353333Y-73923390D01*
X108353333Y-73923390D02*
X108353333Y-74066247D01*
X108353333Y-74066247D02*
X108305714Y-74256723D01*
X108305714Y-74256723D02*
X108258095Y-74351961D01*
X108258095Y-74351961D02*
X108162857Y-74447200D01*
X108162857Y-74447200D02*
X108020000Y-74494819D01*
X108020000Y-74494819D02*
X107781905Y-74494819D01*
X109210476Y-73828152D02*
X109210476Y-74494819D01*
X108972381Y-73447200D02*
X108734286Y-74161485D01*
X108734286Y-74161485D02*
X109353333Y-74161485D01*
X50333333Y-15109580D02*
X50285714Y-15157200D01*
X50285714Y-15157200D02*
X50142857Y-15204819D01*
X50142857Y-15204819D02*
X50047619Y-15204819D01*
X50047619Y-15204819D02*
X49904762Y-15157200D01*
X49904762Y-15157200D02*
X49809524Y-15061961D01*
X49809524Y-15061961D02*
X49761905Y-14966723D01*
X49761905Y-14966723D02*
X49714286Y-14776247D01*
X49714286Y-14776247D02*
X49714286Y-14633390D01*
X49714286Y-14633390D02*
X49761905Y-14442914D01*
X49761905Y-14442914D02*
X49809524Y-14347676D01*
X49809524Y-14347676D02*
X49904762Y-14252438D01*
X49904762Y-14252438D02*
X50047619Y-14204819D01*
X50047619Y-14204819D02*
X50142857Y-14204819D01*
X50142857Y-14204819D02*
X50285714Y-14252438D01*
X50285714Y-14252438D02*
X50333333Y-14300057D01*
X50666667Y-14204819D02*
X51285714Y-14204819D01*
X51285714Y-14204819D02*
X50952381Y-14585771D01*
X50952381Y-14585771D02*
X51095238Y-14585771D01*
X51095238Y-14585771D02*
X51190476Y-14633390D01*
X51190476Y-14633390D02*
X51238095Y-14681009D01*
X51238095Y-14681009D02*
X51285714Y-14776247D01*
X51285714Y-14776247D02*
X51285714Y-15014342D01*
X51285714Y-15014342D02*
X51238095Y-15109580D01*
X51238095Y-15109580D02*
X51190476Y-15157200D01*
X51190476Y-15157200D02*
X51095238Y-15204819D01*
X51095238Y-15204819D02*
X50809524Y-15204819D01*
X50809524Y-15204819D02*
X50714286Y-15157200D01*
X50714286Y-15157200D02*
X50666667Y-15109580D01*
X25774819Y-40413333D02*
X26489104Y-40413333D01*
X26489104Y-40413333D02*
X26631961Y-40460952D01*
X26631961Y-40460952D02*
X26727200Y-40556190D01*
X26727200Y-40556190D02*
X26774819Y-40699047D01*
X26774819Y-40699047D02*
X26774819Y-40794285D01*
X25870057Y-39984761D02*
X25822438Y-39937142D01*
X25822438Y-39937142D02*
X25774819Y-39841904D01*
X25774819Y-39841904D02*
X25774819Y-39603809D01*
X25774819Y-39603809D02*
X25822438Y-39508571D01*
X25822438Y-39508571D02*
X25870057Y-39460952D01*
X25870057Y-39460952D02*
X25965295Y-39413333D01*
X25965295Y-39413333D02*
X26060533Y-39413333D01*
X26060533Y-39413333D02*
X26203390Y-39460952D01*
X26203390Y-39460952D02*
X26774819Y-40032380D01*
X26774819Y-40032380D02*
X26774819Y-39413333D01*
X51333333Y-32359580D02*
X51285714Y-32407200D01*
X51285714Y-32407200D02*
X51142857Y-32454819D01*
X51142857Y-32454819D02*
X51047619Y-32454819D01*
X51047619Y-32454819D02*
X50904762Y-32407200D01*
X50904762Y-32407200D02*
X50809524Y-32311961D01*
X50809524Y-32311961D02*
X50761905Y-32216723D01*
X50761905Y-32216723D02*
X50714286Y-32026247D01*
X50714286Y-32026247D02*
X50714286Y-31883390D01*
X50714286Y-31883390D02*
X50761905Y-31692914D01*
X50761905Y-31692914D02*
X50809524Y-31597676D01*
X50809524Y-31597676D02*
X50904762Y-31502438D01*
X50904762Y-31502438D02*
X51047619Y-31454819D01*
X51047619Y-31454819D02*
X51142857Y-31454819D01*
X51142857Y-31454819D02*
X51285714Y-31502438D01*
X51285714Y-31502438D02*
X51333333Y-31550057D01*
X52285714Y-32454819D02*
X51714286Y-32454819D01*
X52000000Y-32454819D02*
X52000000Y-31454819D01*
X52000000Y-31454819D02*
X51904762Y-31597676D01*
X51904762Y-31597676D02*
X51809524Y-31692914D01*
X51809524Y-31692914D02*
X51714286Y-31740533D01*
X57357142Y-44994819D02*
X57023809Y-44518628D01*
X56785714Y-44994819D02*
X56785714Y-43994819D01*
X56785714Y-43994819D02*
X57166666Y-43994819D01*
X57166666Y-43994819D02*
X57261904Y-44042438D01*
X57261904Y-44042438D02*
X57309523Y-44090057D01*
X57309523Y-44090057D02*
X57357142Y-44185295D01*
X57357142Y-44185295D02*
X57357142Y-44328152D01*
X57357142Y-44328152D02*
X57309523Y-44423390D01*
X57309523Y-44423390D02*
X57261904Y-44471009D01*
X57261904Y-44471009D02*
X57166666Y-44518628D01*
X57166666Y-44518628D02*
X56785714Y-44518628D01*
X58309523Y-44994819D02*
X57738095Y-44994819D01*
X58023809Y-44994819D02*
X58023809Y-43994819D01*
X58023809Y-43994819D02*
X57928571Y-44137676D01*
X57928571Y-44137676D02*
X57833333Y-44232914D01*
X57833333Y-44232914D02*
X57738095Y-44280533D01*
X59166666Y-43994819D02*
X58976190Y-43994819D01*
X58976190Y-43994819D02*
X58880952Y-44042438D01*
X58880952Y-44042438D02*
X58833333Y-44090057D01*
X58833333Y-44090057D02*
X58738095Y-44232914D01*
X58738095Y-44232914D02*
X58690476Y-44423390D01*
X58690476Y-44423390D02*
X58690476Y-44804342D01*
X58690476Y-44804342D02*
X58738095Y-44899580D01*
X58738095Y-44899580D02*
X58785714Y-44947200D01*
X58785714Y-44947200D02*
X58880952Y-44994819D01*
X58880952Y-44994819D02*
X59071428Y-44994819D01*
X59071428Y-44994819D02*
X59166666Y-44947200D01*
X59166666Y-44947200D02*
X59214285Y-44899580D01*
X59214285Y-44899580D02*
X59261904Y-44804342D01*
X59261904Y-44804342D02*
X59261904Y-44566247D01*
X59261904Y-44566247D02*
X59214285Y-44471009D01*
X59214285Y-44471009D02*
X59166666Y-44423390D01*
X59166666Y-44423390D02*
X59071428Y-44375771D01*
X59071428Y-44375771D02*
X58880952Y-44375771D01*
X58880952Y-44375771D02*
X58785714Y-44423390D01*
X58785714Y-44423390D02*
X58738095Y-44471009D01*
X58738095Y-44471009D02*
X58690476Y-44566247D01*
X57267142Y-60204819D02*
X56933809Y-59728628D01*
X56695714Y-60204819D02*
X56695714Y-59204819D01*
X56695714Y-59204819D02*
X57076666Y-59204819D01*
X57076666Y-59204819D02*
X57171904Y-59252438D01*
X57171904Y-59252438D02*
X57219523Y-59300057D01*
X57219523Y-59300057D02*
X57267142Y-59395295D01*
X57267142Y-59395295D02*
X57267142Y-59538152D01*
X57267142Y-59538152D02*
X57219523Y-59633390D01*
X57219523Y-59633390D02*
X57171904Y-59681009D01*
X57171904Y-59681009D02*
X57076666Y-59728628D01*
X57076666Y-59728628D02*
X56695714Y-59728628D01*
X58219523Y-60204819D02*
X57648095Y-60204819D01*
X57933809Y-60204819D02*
X57933809Y-59204819D01*
X57933809Y-59204819D02*
X57838571Y-59347676D01*
X57838571Y-59347676D02*
X57743333Y-59442914D01*
X57743333Y-59442914D02*
X57648095Y-59490533D01*
X58552857Y-59204819D02*
X59171904Y-59204819D01*
X59171904Y-59204819D02*
X58838571Y-59585771D01*
X58838571Y-59585771D02*
X58981428Y-59585771D01*
X58981428Y-59585771D02*
X59076666Y-59633390D01*
X59076666Y-59633390D02*
X59124285Y-59681009D01*
X59124285Y-59681009D02*
X59171904Y-59776247D01*
X59171904Y-59776247D02*
X59171904Y-60014342D01*
X59171904Y-60014342D02*
X59124285Y-60109580D01*
X59124285Y-60109580D02*
X59076666Y-60157200D01*
X59076666Y-60157200D02*
X58981428Y-60204819D01*
X58981428Y-60204819D02*
X58695714Y-60204819D01*
X58695714Y-60204819D02*
X58600476Y-60157200D01*
X58600476Y-60157200D02*
X58552857Y-60109580D01*
X79503333Y-88204819D02*
X79170000Y-87728628D01*
X78931905Y-88204819D02*
X78931905Y-87204819D01*
X78931905Y-87204819D02*
X79312857Y-87204819D01*
X79312857Y-87204819D02*
X79408095Y-87252438D01*
X79408095Y-87252438D02*
X79455714Y-87300057D01*
X79455714Y-87300057D02*
X79503333Y-87395295D01*
X79503333Y-87395295D02*
X79503333Y-87538152D01*
X79503333Y-87538152D02*
X79455714Y-87633390D01*
X79455714Y-87633390D02*
X79408095Y-87681009D01*
X79408095Y-87681009D02*
X79312857Y-87728628D01*
X79312857Y-87728628D02*
X78931905Y-87728628D01*
X80408095Y-87204819D02*
X79931905Y-87204819D01*
X79931905Y-87204819D02*
X79884286Y-87681009D01*
X79884286Y-87681009D02*
X79931905Y-87633390D01*
X79931905Y-87633390D02*
X80027143Y-87585771D01*
X80027143Y-87585771D02*
X80265238Y-87585771D01*
X80265238Y-87585771D02*
X80360476Y-87633390D01*
X80360476Y-87633390D02*
X80408095Y-87681009D01*
X80408095Y-87681009D02*
X80455714Y-87776247D01*
X80455714Y-87776247D02*
X80455714Y-88014342D01*
X80455714Y-88014342D02*
X80408095Y-88109580D01*
X80408095Y-88109580D02*
X80360476Y-88157200D01*
X80360476Y-88157200D02*
X80265238Y-88204819D01*
X80265238Y-88204819D02*
X80027143Y-88204819D01*
X80027143Y-88204819D02*
X79931905Y-88157200D01*
X79931905Y-88157200D02*
X79884286Y-88109580D01*
X74527142Y-64609580D02*
X74479523Y-64657200D01*
X74479523Y-64657200D02*
X74336666Y-64704819D01*
X74336666Y-64704819D02*
X74241428Y-64704819D01*
X74241428Y-64704819D02*
X74098571Y-64657200D01*
X74098571Y-64657200D02*
X74003333Y-64561961D01*
X74003333Y-64561961D02*
X73955714Y-64466723D01*
X73955714Y-64466723D02*
X73908095Y-64276247D01*
X73908095Y-64276247D02*
X73908095Y-64133390D01*
X73908095Y-64133390D02*
X73955714Y-63942914D01*
X73955714Y-63942914D02*
X74003333Y-63847676D01*
X74003333Y-63847676D02*
X74098571Y-63752438D01*
X74098571Y-63752438D02*
X74241428Y-63704819D01*
X74241428Y-63704819D02*
X74336666Y-63704819D01*
X74336666Y-63704819D02*
X74479523Y-63752438D01*
X74479523Y-63752438D02*
X74527142Y-63800057D01*
X75479523Y-64704819D02*
X74908095Y-64704819D01*
X75193809Y-64704819D02*
X75193809Y-63704819D01*
X75193809Y-63704819D02*
X75098571Y-63847676D01*
X75098571Y-63847676D02*
X75003333Y-63942914D01*
X75003333Y-63942914D02*
X74908095Y-63990533D01*
X76098571Y-63704819D02*
X76193809Y-63704819D01*
X76193809Y-63704819D02*
X76289047Y-63752438D01*
X76289047Y-63752438D02*
X76336666Y-63800057D01*
X76336666Y-63800057D02*
X76384285Y-63895295D01*
X76384285Y-63895295D02*
X76431904Y-64085771D01*
X76431904Y-64085771D02*
X76431904Y-64323866D01*
X76431904Y-64323866D02*
X76384285Y-64514342D01*
X76384285Y-64514342D02*
X76336666Y-64609580D01*
X76336666Y-64609580D02*
X76289047Y-64657200D01*
X76289047Y-64657200D02*
X76193809Y-64704819D01*
X76193809Y-64704819D02*
X76098571Y-64704819D01*
X76098571Y-64704819D02*
X76003333Y-64657200D01*
X76003333Y-64657200D02*
X75955714Y-64609580D01*
X75955714Y-64609580D02*
X75908095Y-64514342D01*
X75908095Y-64514342D02*
X75860476Y-64323866D01*
X75860476Y-64323866D02*
X75860476Y-64085771D01*
X75860476Y-64085771D02*
X75908095Y-63895295D01*
X75908095Y-63895295D02*
X75955714Y-63800057D01*
X75955714Y-63800057D02*
X76003333Y-63752438D01*
X76003333Y-63752438D02*
X76098571Y-63704819D01*
X48583333Y-64109580D02*
X48535714Y-64157200D01*
X48535714Y-64157200D02*
X48392857Y-64204819D01*
X48392857Y-64204819D02*
X48297619Y-64204819D01*
X48297619Y-64204819D02*
X48154762Y-64157200D01*
X48154762Y-64157200D02*
X48059524Y-64061961D01*
X48059524Y-64061961D02*
X48011905Y-63966723D01*
X48011905Y-63966723D02*
X47964286Y-63776247D01*
X47964286Y-63776247D02*
X47964286Y-63633390D01*
X47964286Y-63633390D02*
X48011905Y-63442914D01*
X48011905Y-63442914D02*
X48059524Y-63347676D01*
X48059524Y-63347676D02*
X48154762Y-63252438D01*
X48154762Y-63252438D02*
X48297619Y-63204819D01*
X48297619Y-63204819D02*
X48392857Y-63204819D01*
X48392857Y-63204819D02*
X48535714Y-63252438D01*
X48535714Y-63252438D02*
X48583333Y-63300057D01*
X48916667Y-63204819D02*
X49583333Y-63204819D01*
X49583333Y-63204819D02*
X49154762Y-64204819D01*
X73607142Y-76359580D02*
X73559523Y-76407200D01*
X73559523Y-76407200D02*
X73416666Y-76454819D01*
X73416666Y-76454819D02*
X73321428Y-76454819D01*
X73321428Y-76454819D02*
X73178571Y-76407200D01*
X73178571Y-76407200D02*
X73083333Y-76311961D01*
X73083333Y-76311961D02*
X73035714Y-76216723D01*
X73035714Y-76216723D02*
X72988095Y-76026247D01*
X72988095Y-76026247D02*
X72988095Y-75883390D01*
X72988095Y-75883390D02*
X73035714Y-75692914D01*
X73035714Y-75692914D02*
X73083333Y-75597676D01*
X73083333Y-75597676D02*
X73178571Y-75502438D01*
X73178571Y-75502438D02*
X73321428Y-75454819D01*
X73321428Y-75454819D02*
X73416666Y-75454819D01*
X73416666Y-75454819D02*
X73559523Y-75502438D01*
X73559523Y-75502438D02*
X73607142Y-75550057D01*
X74559523Y-76454819D02*
X73988095Y-76454819D01*
X74273809Y-76454819D02*
X74273809Y-75454819D01*
X74273809Y-75454819D02*
X74178571Y-75597676D01*
X74178571Y-75597676D02*
X74083333Y-75692914D01*
X74083333Y-75692914D02*
X73988095Y-75740533D01*
X75511904Y-76454819D02*
X74940476Y-76454819D01*
X75226190Y-76454819D02*
X75226190Y-75454819D01*
X75226190Y-75454819D02*
X75130952Y-75597676D01*
X75130952Y-75597676D02*
X75035714Y-75692914D01*
X75035714Y-75692914D02*
X74940476Y-75740533D01*
X80003333Y-80704819D02*
X79670000Y-80228628D01*
X79431905Y-80704819D02*
X79431905Y-79704819D01*
X79431905Y-79704819D02*
X79812857Y-79704819D01*
X79812857Y-79704819D02*
X79908095Y-79752438D01*
X79908095Y-79752438D02*
X79955714Y-79800057D01*
X79955714Y-79800057D02*
X80003333Y-79895295D01*
X80003333Y-79895295D02*
X80003333Y-80038152D01*
X80003333Y-80038152D02*
X79955714Y-80133390D01*
X79955714Y-80133390D02*
X79908095Y-80181009D01*
X79908095Y-80181009D02*
X79812857Y-80228628D01*
X79812857Y-80228628D02*
X79431905Y-80228628D01*
X80860476Y-79704819D02*
X80670000Y-79704819D01*
X80670000Y-79704819D02*
X80574762Y-79752438D01*
X80574762Y-79752438D02*
X80527143Y-79800057D01*
X80527143Y-79800057D02*
X80431905Y-79942914D01*
X80431905Y-79942914D02*
X80384286Y-80133390D01*
X80384286Y-80133390D02*
X80384286Y-80514342D01*
X80384286Y-80514342D02*
X80431905Y-80609580D01*
X80431905Y-80609580D02*
X80479524Y-80657200D01*
X80479524Y-80657200D02*
X80574762Y-80704819D01*
X80574762Y-80704819D02*
X80765238Y-80704819D01*
X80765238Y-80704819D02*
X80860476Y-80657200D01*
X80860476Y-80657200D02*
X80908095Y-80609580D01*
X80908095Y-80609580D02*
X80955714Y-80514342D01*
X80955714Y-80514342D02*
X80955714Y-80276247D01*
X80955714Y-80276247D02*
X80908095Y-80181009D01*
X80908095Y-80181009D02*
X80860476Y-80133390D01*
X80860476Y-80133390D02*
X80765238Y-80085771D01*
X80765238Y-80085771D02*
X80574762Y-80085771D01*
X80574762Y-80085771D02*
X80479524Y-80133390D01*
X80479524Y-80133390D02*
X80431905Y-80181009D01*
X80431905Y-80181009D02*
X80384286Y-80276247D01*
X57437142Y-55084819D02*
X57103809Y-54608628D01*
X56865714Y-55084819D02*
X56865714Y-54084819D01*
X56865714Y-54084819D02*
X57246666Y-54084819D01*
X57246666Y-54084819D02*
X57341904Y-54132438D01*
X57341904Y-54132438D02*
X57389523Y-54180057D01*
X57389523Y-54180057D02*
X57437142Y-54275295D01*
X57437142Y-54275295D02*
X57437142Y-54418152D01*
X57437142Y-54418152D02*
X57389523Y-54513390D01*
X57389523Y-54513390D02*
X57341904Y-54561009D01*
X57341904Y-54561009D02*
X57246666Y-54608628D01*
X57246666Y-54608628D02*
X56865714Y-54608628D01*
X58389523Y-55084819D02*
X57818095Y-55084819D01*
X58103809Y-55084819D02*
X58103809Y-54084819D01*
X58103809Y-54084819D02*
X58008571Y-54227676D01*
X58008571Y-54227676D02*
X57913333Y-54322914D01*
X57913333Y-54322914D02*
X57818095Y-54370533D01*
X59294285Y-54084819D02*
X58818095Y-54084819D01*
X58818095Y-54084819D02*
X58770476Y-54561009D01*
X58770476Y-54561009D02*
X58818095Y-54513390D01*
X58818095Y-54513390D02*
X58913333Y-54465771D01*
X58913333Y-54465771D02*
X59151428Y-54465771D01*
X59151428Y-54465771D02*
X59246666Y-54513390D01*
X59246666Y-54513390D02*
X59294285Y-54561009D01*
X59294285Y-54561009D02*
X59341904Y-54656247D01*
X59341904Y-54656247D02*
X59341904Y-54894342D01*
X59341904Y-54894342D02*
X59294285Y-54989580D01*
X59294285Y-54989580D02*
X59246666Y-55037200D01*
X59246666Y-55037200D02*
X59151428Y-55084819D01*
X59151428Y-55084819D02*
X58913333Y-55084819D01*
X58913333Y-55084819D02*
X58818095Y-55037200D01*
X58818095Y-55037200D02*
X58770476Y-54989580D01*
X45833333Y-66584819D02*
X45500000Y-66108628D01*
X45261905Y-66584819D02*
X45261905Y-65584819D01*
X45261905Y-65584819D02*
X45642857Y-65584819D01*
X45642857Y-65584819D02*
X45738095Y-65632438D01*
X45738095Y-65632438D02*
X45785714Y-65680057D01*
X45785714Y-65680057D02*
X45833333Y-65775295D01*
X45833333Y-65775295D02*
X45833333Y-65918152D01*
X45833333Y-65918152D02*
X45785714Y-66013390D01*
X45785714Y-66013390D02*
X45738095Y-66061009D01*
X45738095Y-66061009D02*
X45642857Y-66108628D01*
X45642857Y-66108628D02*
X45261905Y-66108628D01*
X46404762Y-66013390D02*
X46309524Y-65965771D01*
X46309524Y-65965771D02*
X46261905Y-65918152D01*
X46261905Y-65918152D02*
X46214286Y-65822914D01*
X46214286Y-65822914D02*
X46214286Y-65775295D01*
X46214286Y-65775295D02*
X46261905Y-65680057D01*
X46261905Y-65680057D02*
X46309524Y-65632438D01*
X46309524Y-65632438D02*
X46404762Y-65584819D01*
X46404762Y-65584819D02*
X46595238Y-65584819D01*
X46595238Y-65584819D02*
X46690476Y-65632438D01*
X46690476Y-65632438D02*
X46738095Y-65680057D01*
X46738095Y-65680057D02*
X46785714Y-65775295D01*
X46785714Y-65775295D02*
X46785714Y-65822914D01*
X46785714Y-65822914D02*
X46738095Y-65918152D01*
X46738095Y-65918152D02*
X46690476Y-65965771D01*
X46690476Y-65965771D02*
X46595238Y-66013390D01*
X46595238Y-66013390D02*
X46404762Y-66013390D01*
X46404762Y-66013390D02*
X46309524Y-66061009D01*
X46309524Y-66061009D02*
X46261905Y-66108628D01*
X46261905Y-66108628D02*
X46214286Y-66203866D01*
X46214286Y-66203866D02*
X46214286Y-66394342D01*
X46214286Y-66394342D02*
X46261905Y-66489580D01*
X46261905Y-66489580D02*
X46309524Y-66537200D01*
X46309524Y-66537200D02*
X46404762Y-66584819D01*
X46404762Y-66584819D02*
X46595238Y-66584819D01*
X46595238Y-66584819D02*
X46690476Y-66537200D01*
X46690476Y-66537200D02*
X46738095Y-66489580D01*
X46738095Y-66489580D02*
X46785714Y-66394342D01*
X46785714Y-66394342D02*
X46785714Y-66203866D01*
X46785714Y-66203866D02*
X46738095Y-66108628D01*
X46738095Y-66108628D02*
X46690476Y-66061009D01*
X46690476Y-66061009D02*
X46595238Y-66013390D01*
X60357142Y-50109580D02*
X60309523Y-50157200D01*
X60309523Y-50157200D02*
X60166666Y-50204819D01*
X60166666Y-50204819D02*
X60071428Y-50204819D01*
X60071428Y-50204819D02*
X59928571Y-50157200D01*
X59928571Y-50157200D02*
X59833333Y-50061961D01*
X59833333Y-50061961D02*
X59785714Y-49966723D01*
X59785714Y-49966723D02*
X59738095Y-49776247D01*
X59738095Y-49776247D02*
X59738095Y-49633390D01*
X59738095Y-49633390D02*
X59785714Y-49442914D01*
X59785714Y-49442914D02*
X59833333Y-49347676D01*
X59833333Y-49347676D02*
X59928571Y-49252438D01*
X59928571Y-49252438D02*
X60071428Y-49204819D01*
X60071428Y-49204819D02*
X60166666Y-49204819D01*
X60166666Y-49204819D02*
X60309523Y-49252438D01*
X60309523Y-49252438D02*
X60357142Y-49300057D01*
X61309523Y-50204819D02*
X60738095Y-50204819D01*
X61023809Y-50204819D02*
X61023809Y-49204819D01*
X61023809Y-49204819D02*
X60928571Y-49347676D01*
X60928571Y-49347676D02*
X60833333Y-49442914D01*
X60833333Y-49442914D02*
X60738095Y-49490533D01*
X62166666Y-49538152D02*
X62166666Y-50204819D01*
X61928571Y-49157200D02*
X61690476Y-49871485D01*
X61690476Y-49871485D02*
X62309523Y-49871485D01*
X57598095Y-85534819D02*
X57598095Y-86344342D01*
X57598095Y-86344342D02*
X57645714Y-86439580D01*
X57645714Y-86439580D02*
X57693333Y-86487200D01*
X57693333Y-86487200D02*
X57788571Y-86534819D01*
X57788571Y-86534819D02*
X57979047Y-86534819D01*
X57979047Y-86534819D02*
X58074285Y-86487200D01*
X58074285Y-86487200D02*
X58121904Y-86439580D01*
X58121904Y-86439580D02*
X58169523Y-86344342D01*
X58169523Y-86344342D02*
X58169523Y-85534819D01*
X58598095Y-85630057D02*
X58645714Y-85582438D01*
X58645714Y-85582438D02*
X58740952Y-85534819D01*
X58740952Y-85534819D02*
X58979047Y-85534819D01*
X58979047Y-85534819D02*
X59074285Y-85582438D01*
X59074285Y-85582438D02*
X59121904Y-85630057D01*
X59121904Y-85630057D02*
X59169523Y-85725295D01*
X59169523Y-85725295D02*
X59169523Y-85820533D01*
X59169523Y-85820533D02*
X59121904Y-85963390D01*
X59121904Y-85963390D02*
X58550476Y-86534819D01*
X58550476Y-86534819D02*
X59169523Y-86534819D01*
X102384761Y-49990057D02*
X102289523Y-49942438D01*
X102289523Y-49942438D02*
X102194285Y-49847200D01*
X102194285Y-49847200D02*
X102051428Y-49704342D01*
X102051428Y-49704342D02*
X101956190Y-49656723D01*
X101956190Y-49656723D02*
X101860952Y-49656723D01*
X101908571Y-49894819D02*
X101813333Y-49847200D01*
X101813333Y-49847200D02*
X101718095Y-49751961D01*
X101718095Y-49751961D02*
X101670476Y-49561485D01*
X101670476Y-49561485D02*
X101670476Y-49228152D01*
X101670476Y-49228152D02*
X101718095Y-49037676D01*
X101718095Y-49037676D02*
X101813333Y-48942438D01*
X101813333Y-48942438D02*
X101908571Y-48894819D01*
X101908571Y-48894819D02*
X102099047Y-48894819D01*
X102099047Y-48894819D02*
X102194285Y-48942438D01*
X102194285Y-48942438D02*
X102289523Y-49037676D01*
X102289523Y-49037676D02*
X102337142Y-49228152D01*
X102337142Y-49228152D02*
X102337142Y-49561485D01*
X102337142Y-49561485D02*
X102289523Y-49751961D01*
X102289523Y-49751961D02*
X102194285Y-49847200D01*
X102194285Y-49847200D02*
X102099047Y-49894819D01*
X102099047Y-49894819D02*
X101908571Y-49894819D01*
X102670476Y-48894819D02*
X103289523Y-48894819D01*
X103289523Y-48894819D02*
X102956190Y-49275771D01*
X102956190Y-49275771D02*
X103099047Y-49275771D01*
X103099047Y-49275771D02*
X103194285Y-49323390D01*
X103194285Y-49323390D02*
X103241904Y-49371009D01*
X103241904Y-49371009D02*
X103289523Y-49466247D01*
X103289523Y-49466247D02*
X103289523Y-49704342D01*
X103289523Y-49704342D02*
X103241904Y-49799580D01*
X103241904Y-49799580D02*
X103194285Y-49847200D01*
X103194285Y-49847200D02*
X103099047Y-49894819D01*
X103099047Y-49894819D02*
X102813333Y-49894819D01*
X102813333Y-49894819D02*
X102718095Y-49847200D01*
X102718095Y-49847200D02*
X102670476Y-49799580D01*
X108031905Y-24994819D02*
X108031905Y-23994819D01*
X108031905Y-23994819D02*
X108270000Y-23994819D01*
X108270000Y-23994819D02*
X108412857Y-24042438D01*
X108412857Y-24042438D02*
X108508095Y-24137676D01*
X108508095Y-24137676D02*
X108555714Y-24232914D01*
X108555714Y-24232914D02*
X108603333Y-24423390D01*
X108603333Y-24423390D02*
X108603333Y-24566247D01*
X108603333Y-24566247D02*
X108555714Y-24756723D01*
X108555714Y-24756723D02*
X108508095Y-24851961D01*
X108508095Y-24851961D02*
X108412857Y-24947200D01*
X108412857Y-24947200D02*
X108270000Y-24994819D01*
X108270000Y-24994819D02*
X108031905Y-24994819D01*
X108984286Y-24090057D02*
X109031905Y-24042438D01*
X109031905Y-24042438D02*
X109127143Y-23994819D01*
X109127143Y-23994819D02*
X109365238Y-23994819D01*
X109365238Y-23994819D02*
X109460476Y-24042438D01*
X109460476Y-24042438D02*
X109508095Y-24090057D01*
X109508095Y-24090057D02*
X109555714Y-24185295D01*
X109555714Y-24185295D02*
X109555714Y-24280533D01*
X109555714Y-24280533D02*
X109508095Y-24423390D01*
X109508095Y-24423390D02*
X108936667Y-24994819D01*
X108936667Y-24994819D02*
X109555714Y-24994819D01*
X79527142Y-68454819D02*
X79193809Y-67978628D01*
X78955714Y-68454819D02*
X78955714Y-67454819D01*
X78955714Y-67454819D02*
X79336666Y-67454819D01*
X79336666Y-67454819D02*
X79431904Y-67502438D01*
X79431904Y-67502438D02*
X79479523Y-67550057D01*
X79479523Y-67550057D02*
X79527142Y-67645295D01*
X79527142Y-67645295D02*
X79527142Y-67788152D01*
X79527142Y-67788152D02*
X79479523Y-67883390D01*
X79479523Y-67883390D02*
X79431904Y-67931009D01*
X79431904Y-67931009D02*
X79336666Y-67978628D01*
X79336666Y-67978628D02*
X78955714Y-67978628D01*
X80479523Y-68454819D02*
X79908095Y-68454819D01*
X80193809Y-68454819D02*
X80193809Y-67454819D01*
X80193809Y-67454819D02*
X80098571Y-67597676D01*
X80098571Y-67597676D02*
X80003333Y-67692914D01*
X80003333Y-67692914D02*
X79908095Y-67740533D01*
X81431904Y-68454819D02*
X80860476Y-68454819D01*
X81146190Y-68454819D02*
X81146190Y-67454819D01*
X81146190Y-67454819D02*
X81050952Y-67597676D01*
X81050952Y-67597676D02*
X80955714Y-67692914D01*
X80955714Y-67692914D02*
X80860476Y-67740533D01*
X94620833Y-25324819D02*
X94287500Y-24848628D01*
X94049405Y-25324819D02*
X94049405Y-24324819D01*
X94049405Y-24324819D02*
X94430357Y-24324819D01*
X94430357Y-24324819D02*
X94525595Y-24372438D01*
X94525595Y-24372438D02*
X94573214Y-24420057D01*
X94573214Y-24420057D02*
X94620833Y-24515295D01*
X94620833Y-24515295D02*
X94620833Y-24658152D01*
X94620833Y-24658152D02*
X94573214Y-24753390D01*
X94573214Y-24753390D02*
X94525595Y-24801009D01*
X94525595Y-24801009D02*
X94430357Y-24848628D01*
X94430357Y-24848628D02*
X94049405Y-24848628D01*
X95477976Y-24658152D02*
X95477976Y-25324819D01*
X95239881Y-24277200D02*
X95001786Y-24991485D01*
X95001786Y-24991485D02*
X95620833Y-24991485D01*
X50954819Y-40221904D02*
X51764342Y-40221904D01*
X51764342Y-40221904D02*
X51859580Y-40174285D01*
X51859580Y-40174285D02*
X51907200Y-40126666D01*
X51907200Y-40126666D02*
X51954819Y-40031428D01*
X51954819Y-40031428D02*
X51954819Y-39840952D01*
X51954819Y-39840952D02*
X51907200Y-39745714D01*
X51907200Y-39745714D02*
X51859580Y-39698095D01*
X51859580Y-39698095D02*
X51764342Y-39650476D01*
X51764342Y-39650476D02*
X50954819Y-39650476D01*
X51288152Y-38745714D02*
X51954819Y-38745714D01*
X50907200Y-38983809D02*
X51621485Y-39221904D01*
X51621485Y-39221904D02*
X51621485Y-38602857D01*
X98083333Y-80574819D02*
X97750000Y-80098628D01*
X97511905Y-80574819D02*
X97511905Y-79574819D01*
X97511905Y-79574819D02*
X97892857Y-79574819D01*
X97892857Y-79574819D02*
X97988095Y-79622438D01*
X97988095Y-79622438D02*
X98035714Y-79670057D01*
X98035714Y-79670057D02*
X98083333Y-79765295D01*
X98083333Y-79765295D02*
X98083333Y-79908152D01*
X98083333Y-79908152D02*
X98035714Y-80003390D01*
X98035714Y-80003390D02*
X97988095Y-80051009D01*
X97988095Y-80051009D02*
X97892857Y-80098628D01*
X97892857Y-80098628D02*
X97511905Y-80098628D01*
X98416667Y-79574819D02*
X99083333Y-79574819D01*
X99083333Y-79574819D02*
X98654762Y-80574819D01*
X100761905Y-42574819D02*
X101333333Y-42574819D01*
X101047619Y-43574819D02*
X101047619Y-42574819D01*
X101666667Y-43574819D02*
X101666667Y-42574819D01*
X101666667Y-42574819D02*
X102047619Y-42574819D01*
X102047619Y-42574819D02*
X102142857Y-42622438D01*
X102142857Y-42622438D02*
X102190476Y-42670057D01*
X102190476Y-42670057D02*
X102238095Y-42765295D01*
X102238095Y-42765295D02*
X102238095Y-42908152D01*
X102238095Y-42908152D02*
X102190476Y-43003390D01*
X102190476Y-43003390D02*
X102142857Y-43051009D01*
X102142857Y-43051009D02*
X102047619Y-43098628D01*
X102047619Y-43098628D02*
X101666667Y-43098628D01*
X103190476Y-43574819D02*
X102619048Y-43574819D01*
X102904762Y-43574819D02*
X102904762Y-42574819D01*
X102904762Y-42574819D02*
X102809524Y-42717676D01*
X102809524Y-42717676D02*
X102714286Y-42812914D01*
X102714286Y-42812914D02*
X102619048Y-42860533D01*
X103523810Y-42574819D02*
X104142857Y-42574819D01*
X104142857Y-42574819D02*
X103809524Y-42955771D01*
X103809524Y-42955771D02*
X103952381Y-42955771D01*
X103952381Y-42955771D02*
X104047619Y-43003390D01*
X104047619Y-43003390D02*
X104095238Y-43051009D01*
X104095238Y-43051009D02*
X104142857Y-43146247D01*
X104142857Y-43146247D02*
X104142857Y-43384342D01*
X104142857Y-43384342D02*
X104095238Y-43479580D01*
X104095238Y-43479580D02*
X104047619Y-43527200D01*
X104047619Y-43527200D02*
X103952381Y-43574819D01*
X103952381Y-43574819D02*
X103666667Y-43574819D01*
X103666667Y-43574819D02*
X103571429Y-43527200D01*
X103571429Y-43527200D02*
X103523810Y-43479580D01*
X77738095Y-46534819D02*
X78309523Y-46534819D01*
X78023809Y-47534819D02*
X78023809Y-46534819D01*
X78642857Y-47534819D02*
X78642857Y-46534819D01*
X78642857Y-46534819D02*
X79023809Y-46534819D01*
X79023809Y-46534819D02*
X79119047Y-46582438D01*
X79119047Y-46582438D02*
X79166666Y-46630057D01*
X79166666Y-46630057D02*
X79214285Y-46725295D01*
X79214285Y-46725295D02*
X79214285Y-46868152D01*
X79214285Y-46868152D02*
X79166666Y-46963390D01*
X79166666Y-46963390D02*
X79119047Y-47011009D01*
X79119047Y-47011009D02*
X79023809Y-47058628D01*
X79023809Y-47058628D02*
X78642857Y-47058628D01*
X80166666Y-47534819D02*
X79595238Y-47534819D01*
X79880952Y-47534819D02*
X79880952Y-46534819D01*
X79880952Y-46534819D02*
X79785714Y-46677676D01*
X79785714Y-46677676D02*
X79690476Y-46772914D01*
X79690476Y-46772914D02*
X79595238Y-46820533D01*
X26774819Y-84793333D02*
X27489104Y-84793333D01*
X27489104Y-84793333D02*
X27631961Y-84840952D01*
X27631961Y-84840952D02*
X27727200Y-84936190D01*
X27727200Y-84936190D02*
X27774819Y-85079047D01*
X27774819Y-85079047D02*
X27774819Y-85174285D01*
X26774819Y-84412380D02*
X26774819Y-83793333D01*
X26774819Y-83793333D02*
X27155771Y-84126666D01*
X27155771Y-84126666D02*
X27155771Y-83983809D01*
X27155771Y-83983809D02*
X27203390Y-83888571D01*
X27203390Y-83888571D02*
X27251009Y-83840952D01*
X27251009Y-83840952D02*
X27346247Y-83793333D01*
X27346247Y-83793333D02*
X27584342Y-83793333D01*
X27584342Y-83793333D02*
X27679580Y-83840952D01*
X27679580Y-83840952D02*
X27727200Y-83888571D01*
X27727200Y-83888571D02*
X27774819Y-83983809D01*
X27774819Y-83983809D02*
X27774819Y-84269523D01*
X27774819Y-84269523D02*
X27727200Y-84364761D01*
X27727200Y-84364761D02*
X27679580Y-84412380D01*
X94324819Y-62548094D02*
X93324819Y-62548094D01*
X93324819Y-62548094D02*
X93324819Y-62309999D01*
X93324819Y-62309999D02*
X93372438Y-62167142D01*
X93372438Y-62167142D02*
X93467676Y-62071904D01*
X93467676Y-62071904D02*
X93562914Y-62024285D01*
X93562914Y-62024285D02*
X93753390Y-61976666D01*
X93753390Y-61976666D02*
X93896247Y-61976666D01*
X93896247Y-61976666D02*
X94086723Y-62024285D01*
X94086723Y-62024285D02*
X94181961Y-62071904D01*
X94181961Y-62071904D02*
X94277200Y-62167142D01*
X94277200Y-62167142D02*
X94324819Y-62309999D01*
X94324819Y-62309999D02*
X94324819Y-62548094D01*
X93324819Y-61643332D02*
X93324819Y-60976666D01*
X93324819Y-60976666D02*
X94324819Y-61405237D01*
X94004819Y-58261904D02*
X93004819Y-58261904D01*
X94004819Y-57690476D02*
X93433390Y-58119047D01*
X93004819Y-57690476D02*
X93576247Y-58261904D01*
X64864761Y-35294819D02*
X64531428Y-34818628D01*
X64293333Y-35294819D02*
X64293333Y-34294819D01*
X64293333Y-34294819D02*
X64674285Y-34294819D01*
X64674285Y-34294819D02*
X64769523Y-34342438D01*
X64769523Y-34342438D02*
X64817142Y-34390057D01*
X64817142Y-34390057D02*
X64864761Y-34485295D01*
X64864761Y-34485295D02*
X64864761Y-34628152D01*
X64864761Y-34628152D02*
X64817142Y-34723390D01*
X64817142Y-34723390D02*
X64769523Y-34771009D01*
X64769523Y-34771009D02*
X64674285Y-34818628D01*
X64674285Y-34818628D02*
X64293333Y-34818628D01*
X65150476Y-34294819D02*
X65483809Y-35294819D01*
X65483809Y-35294819D02*
X65817142Y-34294819D01*
X66674285Y-35294819D02*
X66102857Y-35294819D01*
X66388571Y-35294819D02*
X66388571Y-34294819D01*
X66388571Y-34294819D02*
X66293333Y-34437676D01*
X66293333Y-34437676D02*
X66198095Y-34532914D01*
X66198095Y-34532914D02*
X66102857Y-34580533D01*
X94144642Y-50824819D02*
X93811309Y-50348628D01*
X93573214Y-50824819D02*
X93573214Y-49824819D01*
X93573214Y-49824819D02*
X93954166Y-49824819D01*
X93954166Y-49824819D02*
X94049404Y-49872438D01*
X94049404Y-49872438D02*
X94097023Y-49920057D01*
X94097023Y-49920057D02*
X94144642Y-50015295D01*
X94144642Y-50015295D02*
X94144642Y-50158152D01*
X94144642Y-50158152D02*
X94097023Y-50253390D01*
X94097023Y-50253390D02*
X94049404Y-50301009D01*
X94049404Y-50301009D02*
X93954166Y-50348628D01*
X93954166Y-50348628D02*
X93573214Y-50348628D01*
X95097023Y-50824819D02*
X94525595Y-50824819D01*
X94811309Y-50824819D02*
X94811309Y-49824819D01*
X94811309Y-49824819D02*
X94716071Y-49967676D01*
X94716071Y-49967676D02*
X94620833Y-50062914D01*
X94620833Y-50062914D02*
X94525595Y-50110533D01*
X95954166Y-50158152D02*
X95954166Y-50824819D01*
X95716071Y-49777200D02*
X95477976Y-50491485D01*
X95477976Y-50491485D02*
X96097023Y-50491485D01*
X20833333Y-60454819D02*
X20500000Y-59978628D01*
X20261905Y-60454819D02*
X20261905Y-59454819D01*
X20261905Y-59454819D02*
X20642857Y-59454819D01*
X20642857Y-59454819D02*
X20738095Y-59502438D01*
X20738095Y-59502438D02*
X20785714Y-59550057D01*
X20785714Y-59550057D02*
X20833333Y-59645295D01*
X20833333Y-59645295D02*
X20833333Y-59788152D01*
X20833333Y-59788152D02*
X20785714Y-59883390D01*
X20785714Y-59883390D02*
X20738095Y-59931009D01*
X20738095Y-59931009D02*
X20642857Y-59978628D01*
X20642857Y-59978628D02*
X20261905Y-59978628D01*
X21785714Y-60454819D02*
X21214286Y-60454819D01*
X21500000Y-60454819D02*
X21500000Y-59454819D01*
X21500000Y-59454819D02*
X21404762Y-59597676D01*
X21404762Y-59597676D02*
X21309524Y-59692914D01*
X21309524Y-59692914D02*
X21214286Y-59740533D01*
X47857142Y-80359580D02*
X47809523Y-80407200D01*
X47809523Y-80407200D02*
X47666666Y-80454819D01*
X47666666Y-80454819D02*
X47571428Y-80454819D01*
X47571428Y-80454819D02*
X47428571Y-80407200D01*
X47428571Y-80407200D02*
X47333333Y-80311961D01*
X47333333Y-80311961D02*
X47285714Y-80216723D01*
X47285714Y-80216723D02*
X47238095Y-80026247D01*
X47238095Y-80026247D02*
X47238095Y-79883390D01*
X47238095Y-79883390D02*
X47285714Y-79692914D01*
X47285714Y-79692914D02*
X47333333Y-79597676D01*
X47333333Y-79597676D02*
X47428571Y-79502438D01*
X47428571Y-79502438D02*
X47571428Y-79454819D01*
X47571428Y-79454819D02*
X47666666Y-79454819D01*
X47666666Y-79454819D02*
X47809523Y-79502438D01*
X47809523Y-79502438D02*
X47857142Y-79550057D01*
X48809523Y-80454819D02*
X48238095Y-80454819D01*
X48523809Y-80454819D02*
X48523809Y-79454819D01*
X48523809Y-79454819D02*
X48428571Y-79597676D01*
X48428571Y-79597676D02*
X48333333Y-79692914D01*
X48333333Y-79692914D02*
X48238095Y-79740533D01*
X49142857Y-79454819D02*
X49761904Y-79454819D01*
X49761904Y-79454819D02*
X49428571Y-79835771D01*
X49428571Y-79835771D02*
X49571428Y-79835771D01*
X49571428Y-79835771D02*
X49666666Y-79883390D01*
X49666666Y-79883390D02*
X49714285Y-79931009D01*
X49714285Y-79931009D02*
X49761904Y-80026247D01*
X49761904Y-80026247D02*
X49761904Y-80264342D01*
X49761904Y-80264342D02*
X49714285Y-80359580D01*
X49714285Y-80359580D02*
X49666666Y-80407200D01*
X49666666Y-80407200D02*
X49571428Y-80454819D01*
X49571428Y-80454819D02*
X49285714Y-80454819D01*
X49285714Y-80454819D02*
X49190476Y-80407200D01*
X49190476Y-80407200D02*
X49142857Y-80359580D01*
X94620833Y-74824819D02*
X94287500Y-74348628D01*
X94049405Y-74824819D02*
X94049405Y-73824819D01*
X94049405Y-73824819D02*
X94430357Y-73824819D01*
X94430357Y-73824819D02*
X94525595Y-73872438D01*
X94525595Y-73872438D02*
X94573214Y-73920057D01*
X94573214Y-73920057D02*
X94620833Y-74015295D01*
X94620833Y-74015295D02*
X94620833Y-74158152D01*
X94620833Y-74158152D02*
X94573214Y-74253390D01*
X94573214Y-74253390D02*
X94525595Y-74301009D01*
X94525595Y-74301009D02*
X94430357Y-74348628D01*
X94430357Y-74348628D02*
X94049405Y-74348628D01*
X95097024Y-74824819D02*
X95287500Y-74824819D01*
X95287500Y-74824819D02*
X95382738Y-74777200D01*
X95382738Y-74777200D02*
X95430357Y-74729580D01*
X95430357Y-74729580D02*
X95525595Y-74586723D01*
X95525595Y-74586723D02*
X95573214Y-74396247D01*
X95573214Y-74396247D02*
X95573214Y-74015295D01*
X95573214Y-74015295D02*
X95525595Y-73920057D01*
X95525595Y-73920057D02*
X95477976Y-73872438D01*
X95477976Y-73872438D02*
X95382738Y-73824819D01*
X95382738Y-73824819D02*
X95192262Y-73824819D01*
X95192262Y-73824819D02*
X95097024Y-73872438D01*
X95097024Y-73872438D02*
X95049405Y-73920057D01*
X95049405Y-73920057D02*
X95001786Y-74015295D01*
X95001786Y-74015295D02*
X95001786Y-74253390D01*
X95001786Y-74253390D02*
X95049405Y-74348628D01*
X95049405Y-74348628D02*
X95097024Y-74396247D01*
X95097024Y-74396247D02*
X95192262Y-74443866D01*
X95192262Y-74443866D02*
X95382738Y-74443866D01*
X95382738Y-74443866D02*
X95477976Y-74396247D01*
X95477976Y-74396247D02*
X95525595Y-74348628D01*
X95525595Y-74348628D02*
X95573214Y-74253390D01*
X35333333Y-31109580D02*
X35285714Y-31157200D01*
X35285714Y-31157200D02*
X35142857Y-31204819D01*
X35142857Y-31204819D02*
X35047619Y-31204819D01*
X35047619Y-31204819D02*
X34904762Y-31157200D01*
X34904762Y-31157200D02*
X34809524Y-31061961D01*
X34809524Y-31061961D02*
X34761905Y-30966723D01*
X34761905Y-30966723D02*
X34714286Y-30776247D01*
X34714286Y-30776247D02*
X34714286Y-30633390D01*
X34714286Y-30633390D02*
X34761905Y-30442914D01*
X34761905Y-30442914D02*
X34809524Y-30347676D01*
X34809524Y-30347676D02*
X34904762Y-30252438D01*
X34904762Y-30252438D02*
X35047619Y-30204819D01*
X35047619Y-30204819D02*
X35142857Y-30204819D01*
X35142857Y-30204819D02*
X35285714Y-30252438D01*
X35285714Y-30252438D02*
X35333333Y-30300057D01*
X36190476Y-30538152D02*
X36190476Y-31204819D01*
X35952381Y-30157200D02*
X35714286Y-30871485D01*
X35714286Y-30871485D02*
X36333333Y-30871485D01*
D12*
%TO.C,TP12*%
X85120000Y-64120000D02*
X86500000Y-64120000D01*
X85120000Y-65500000D02*
X85120000Y-64120000D01*
X85120000Y-66770000D02*
X85120000Y-66880000D01*
X85120000Y-66770000D02*
X87880000Y-66770000D01*
X85120000Y-66880000D02*
X87880000Y-66880000D01*
X87880000Y-66770000D02*
X87880000Y-66880000D01*
%TO.C,U3*%
X52490000Y-14680000D02*
X57110000Y-14680000D01*
X52490000Y-17940000D02*
X53870000Y-17940000D01*
X52490000Y-21640000D02*
X53870000Y-21640000D01*
X52490000Y-24900000D02*
X52490000Y-14680000D01*
X53870000Y-24900000D02*
X53870000Y-14680000D01*
X57110000Y-14680000D02*
X57110000Y-24900000D01*
X57110000Y-24900000D02*
X52490000Y-24900000D01*
%TO.C,Q2*%
X100680000Y-78850000D02*
X104280000Y-78850000D01*
X100641522Y-78838478D02*
G75*
G02*
X102480000Y-74399999I1838478J1838478D01*
G01*
X102480000Y-74400000D02*
G75*
G02*
X104318478Y-78838478I0J-2600000D01*
G01*
%TO.C,TP2*%
X26870000Y-16370000D02*
X28250000Y-16370000D01*
X26870000Y-17750000D02*
X26870000Y-16370000D01*
X26870000Y-19020000D02*
X26870000Y-19130000D01*
X26870000Y-19020000D02*
X29630000Y-19020000D01*
X26870000Y-19130000D02*
X29630000Y-19130000D01*
X29630000Y-19020000D02*
X29630000Y-19130000D01*
%TO.C,BR1*%
X32920000Y-18550000D02*
X32920000Y-27150000D01*
X32920000Y-27150000D02*
X34690000Y-27150000D01*
X36690000Y-27150000D02*
X38460000Y-27150000D01*
X38460000Y-18550000D02*
X32920000Y-18550000D01*
X38460000Y-27150000D02*
X38460000Y-18550000D01*
X34690000Y-27150000D02*
G75*
G02*
X36690000Y-27150000I1000000J0D01*
G01*
%TO.C,C5*%
X71130000Y-70380000D02*
X78370000Y-70380000D01*
X71130000Y-73120000D02*
X71130000Y-70380000D01*
X78370000Y-70380000D02*
X78370000Y-73120000D01*
X78370000Y-73120000D02*
X71130000Y-73120000D01*
%TO.C,C2*%
X27090302Y-41935000D02*
X27890302Y-41935000D01*
X27490302Y-41535000D02*
X27490302Y-42335000D01*
X31500000Y-40170000D02*
X31500000Y-48330000D01*
X31540000Y-40170000D02*
X31540000Y-48330000D01*
X31580000Y-40171000D02*
X31580000Y-48329000D01*
X31620000Y-40172000D02*
X31620000Y-48328000D01*
X31660000Y-40173000D02*
X31660000Y-48327000D01*
X31700000Y-40175000D02*
X31700000Y-48325000D01*
X31740000Y-40177000D02*
X31740000Y-48323000D01*
X31780000Y-40180000D02*
X31780000Y-48320000D01*
X31820000Y-40182000D02*
X31820000Y-48318000D01*
X31860000Y-40186000D02*
X31860000Y-48314000D01*
X31900000Y-40189000D02*
X31900000Y-48311000D01*
X31940000Y-40194000D02*
X31940000Y-48306000D01*
X31980000Y-40198000D02*
X31980000Y-48302000D01*
X32020000Y-40203000D02*
X32020000Y-48297000D01*
X32060000Y-40208000D02*
X32060000Y-48292000D01*
X32100000Y-40214000D02*
X32100000Y-48286000D01*
X32140000Y-40220000D02*
X32140000Y-48280000D01*
X32180000Y-40227000D02*
X32180000Y-48273000D01*
X32220000Y-40233000D02*
X32220000Y-43210000D01*
X32220000Y-45290000D02*
X32220000Y-48267000D01*
X32260000Y-40241000D02*
X32260000Y-43210000D01*
X32260000Y-45290000D02*
X32260000Y-48259000D01*
X32300000Y-40248000D02*
X32300000Y-43210000D01*
X32300000Y-45290000D02*
X32300000Y-48252000D01*
X32340000Y-40257000D02*
X32340000Y-43210000D01*
X32340000Y-45290000D02*
X32340000Y-48243000D01*
X32380000Y-40265000D02*
X32380000Y-43210000D01*
X32380000Y-45290000D02*
X32380000Y-48235000D01*
X32420000Y-40274000D02*
X32420000Y-43210000D01*
X32420000Y-45290000D02*
X32420000Y-48226000D01*
X32460000Y-40283000D02*
X32460000Y-43210000D01*
X32460000Y-45290000D02*
X32460000Y-48217000D01*
X32500000Y-40293000D02*
X32500000Y-43210000D01*
X32500000Y-45290000D02*
X32500000Y-48207000D01*
X32540000Y-40303000D02*
X32540000Y-43210000D01*
X32540000Y-45290000D02*
X32540000Y-48197000D01*
X32580000Y-40314000D02*
X32580000Y-43210000D01*
X32580000Y-45290000D02*
X32580000Y-48186000D01*
X32620000Y-40325000D02*
X32620000Y-43210000D01*
X32620000Y-45290000D02*
X32620000Y-48175000D01*
X32660000Y-40337000D02*
X32660000Y-43210000D01*
X32660000Y-45290000D02*
X32660000Y-48163000D01*
X32700000Y-40349000D02*
X32700000Y-43210000D01*
X32700000Y-45290000D02*
X32700000Y-48151000D01*
X32740000Y-40361000D02*
X32740000Y-43210000D01*
X32740000Y-45290000D02*
X32740000Y-48139000D01*
X32780000Y-40374000D02*
X32780000Y-43210000D01*
X32780000Y-45290000D02*
X32780000Y-48126000D01*
X32820000Y-40387000D02*
X32820000Y-43210000D01*
X32820000Y-45290000D02*
X32820000Y-48113000D01*
X32860000Y-40401000D02*
X32860000Y-43210000D01*
X32860000Y-45290000D02*
X32860000Y-48099000D01*
X32900000Y-40415000D02*
X32900000Y-43210000D01*
X32900000Y-45290000D02*
X32900000Y-48085000D01*
X32940000Y-40430000D02*
X32940000Y-43210000D01*
X32940000Y-45290000D02*
X32940000Y-48070000D01*
X32980000Y-40445000D02*
X32980000Y-43210000D01*
X32980000Y-45290000D02*
X32980000Y-48055000D01*
X33020000Y-40461000D02*
X33020000Y-43210000D01*
X33020000Y-45290000D02*
X33020000Y-48039000D01*
X33060000Y-40477000D02*
X33060000Y-43210000D01*
X33060000Y-45290000D02*
X33060000Y-48023000D01*
X33100000Y-40493000D02*
X33100000Y-43210000D01*
X33100000Y-45290000D02*
X33100000Y-48007000D01*
X33140000Y-40510000D02*
X33140000Y-43210000D01*
X33140000Y-45290000D02*
X33140000Y-47990000D01*
X33180000Y-40528000D02*
X33180000Y-43210000D01*
X33180000Y-45290000D02*
X33180000Y-47972000D01*
X33220000Y-40546000D02*
X33220000Y-43210000D01*
X33220000Y-45290000D02*
X33220000Y-47954000D01*
X33260000Y-40565000D02*
X33260000Y-43210000D01*
X33260000Y-45290000D02*
X33260000Y-47935000D01*
X33300000Y-40584000D02*
X33300000Y-43210000D01*
X33300000Y-45290000D02*
X33300000Y-47916000D01*
X33340000Y-40604000D02*
X33340000Y-43210000D01*
X33340000Y-45290000D02*
X33340000Y-47896000D01*
X33380000Y-40624000D02*
X33380000Y-43210000D01*
X33380000Y-45290000D02*
X33380000Y-47876000D01*
X33420000Y-40645000D02*
X33420000Y-43210000D01*
X33420000Y-45290000D02*
X33420000Y-47855000D01*
X33460000Y-40666000D02*
X33460000Y-43210000D01*
X33460000Y-45290000D02*
X33460000Y-47834000D01*
X33500000Y-40688000D02*
X33500000Y-43210000D01*
X33500000Y-45290000D02*
X33500000Y-47812000D01*
X33540000Y-40711000D02*
X33540000Y-43210000D01*
X33540000Y-45290000D02*
X33540000Y-47789000D01*
X33580000Y-40734000D02*
X33580000Y-43210000D01*
X33580000Y-45290000D02*
X33580000Y-47766000D01*
X33620000Y-40757000D02*
X33620000Y-43210000D01*
X33620000Y-45290000D02*
X33620000Y-47743000D01*
X33660000Y-40782000D02*
X33660000Y-43210000D01*
X33660000Y-45290000D02*
X33660000Y-47718000D01*
X33700000Y-40807000D02*
X33700000Y-43210000D01*
X33700000Y-45290000D02*
X33700000Y-47693000D01*
X33740000Y-40832000D02*
X33740000Y-43210000D01*
X33740000Y-45290000D02*
X33740000Y-47668000D01*
X33780000Y-40858000D02*
X33780000Y-43210000D01*
X33780000Y-45290000D02*
X33780000Y-47642000D01*
X33820000Y-40885000D02*
X33820000Y-43210000D01*
X33820000Y-45290000D02*
X33820000Y-47615000D01*
X33860000Y-40913000D02*
X33860000Y-43210000D01*
X33860000Y-45290000D02*
X33860000Y-47587000D01*
X33900000Y-40941000D02*
X33900000Y-43210000D01*
X33900000Y-45290000D02*
X33900000Y-47559000D01*
X33940000Y-40970000D02*
X33940000Y-43210000D01*
X33940000Y-45290000D02*
X33940000Y-47530000D01*
X33980000Y-41000000D02*
X33980000Y-43210000D01*
X33980000Y-45290000D02*
X33980000Y-47500000D01*
X34020000Y-41031000D02*
X34020000Y-43210000D01*
X34020000Y-45290000D02*
X34020000Y-47469000D01*
X34060000Y-41062000D02*
X34060000Y-43210000D01*
X34060000Y-45290000D02*
X34060000Y-47438000D01*
X34100000Y-41094000D02*
X34100000Y-43210000D01*
X34100000Y-45290000D02*
X34100000Y-47406000D01*
X34140000Y-41127000D02*
X34140000Y-43210000D01*
X34140000Y-45290000D02*
X34140000Y-47373000D01*
X34180000Y-41161000D02*
X34180000Y-43210000D01*
X34180000Y-45290000D02*
X34180000Y-47339000D01*
X34220000Y-41195000D02*
X34220000Y-43210000D01*
X34220000Y-45290000D02*
X34220000Y-47305000D01*
X34260000Y-41231000D02*
X34260000Y-43210000D01*
X34260000Y-45290000D02*
X34260000Y-47269000D01*
X34300000Y-41268000D02*
X34300000Y-47232000D01*
X34340000Y-41305000D02*
X34340000Y-47195000D01*
X34380000Y-41344000D02*
X34380000Y-47156000D01*
X34420000Y-41383000D02*
X34420000Y-47117000D01*
X34460000Y-41424000D02*
X34460000Y-47076000D01*
X34500000Y-41466000D02*
X34500000Y-47034000D01*
X34540000Y-41509000D02*
X34540000Y-46991000D01*
X34580000Y-41554000D02*
X34580000Y-46946000D01*
X34620000Y-41599000D02*
X34620000Y-46901000D01*
X34660000Y-41646000D02*
X34660000Y-46854000D01*
X34700000Y-41695000D02*
X34700000Y-46805000D01*
X34740000Y-41745000D02*
X34740000Y-46755000D01*
X34780000Y-41797000D02*
X34780000Y-46703000D01*
X34820000Y-41850000D02*
X34820000Y-46650000D01*
X34860000Y-41906000D02*
X34860000Y-46594000D01*
X34900000Y-41963000D02*
X34900000Y-46537000D01*
X34940000Y-42023000D02*
X34940000Y-46477000D01*
X34980000Y-42085000D02*
X34980000Y-46415000D01*
X35020000Y-42149000D02*
X35020000Y-46351000D01*
X35060000Y-42216000D02*
X35060000Y-46284000D01*
X35100000Y-42286000D02*
X35100000Y-46214000D01*
X35140000Y-42360000D02*
X35140000Y-46140000D01*
X35180000Y-42437000D02*
X35180000Y-46063000D01*
X35220000Y-42519000D02*
X35220000Y-45981000D01*
X35260000Y-42606000D02*
X35260000Y-45894000D01*
X35300000Y-42698000D02*
X35300000Y-45802000D01*
X35340000Y-42797000D02*
X35340000Y-45703000D01*
X35380000Y-42904000D02*
X35380000Y-45596000D01*
X35420000Y-43022000D02*
X35420000Y-45478000D01*
X35460000Y-43153000D02*
X35460000Y-45347000D01*
X35500000Y-43303000D02*
X35500000Y-45197000D01*
X35540000Y-43482000D02*
X35540000Y-45018000D01*
X35580000Y-43717000D02*
X35580000Y-44783000D01*
X35620000Y-44250000D02*
G75*
G02*
X27380000Y-44250000I-4120000J0D01*
G01*
X27380000Y-44250000D02*
G75*
G02*
X35620000Y-44250000I4120000J0D01*
G01*
%TO.C,Q1*%
X100680000Y-29350000D02*
X104280000Y-29350000D01*
X100641522Y-29338478D02*
G75*
G02*
X102480000Y-24899999I1838478J1838478D01*
G01*
X102480000Y-24900000D02*
G75*
G02*
X104318478Y-29338478I0J-2600000D01*
G01*
%TO.C,TP6*%
X37620000Y-39120000D02*
X39000000Y-39120000D01*
X37620000Y-40500000D02*
X37620000Y-39120000D01*
X37620000Y-41770000D02*
X37620000Y-41880000D01*
X37620000Y-41770000D02*
X40380000Y-41770000D01*
X37620000Y-41880000D02*
X40380000Y-41880000D01*
X40380000Y-41770000D02*
X40380000Y-41880000D01*
%TO.C,TP4*%
X26870000Y-26620000D02*
X28250000Y-26620000D01*
X26870000Y-28000000D02*
X26870000Y-26620000D01*
X26870000Y-29270000D02*
X26870000Y-29380000D01*
X26870000Y-29270000D02*
X29630000Y-29270000D01*
X26870000Y-29380000D02*
X29630000Y-29380000D01*
X29630000Y-29270000D02*
X29630000Y-29380000D01*
%TO.C,TP14*%
X29620000Y-80370000D02*
X31000000Y-80370000D01*
X29620000Y-81750000D02*
X29620000Y-80370000D01*
X29620000Y-83020000D02*
X29620000Y-83130000D01*
X29620000Y-83020000D02*
X32380000Y-83020000D01*
X29620000Y-83130000D02*
X32380000Y-83130000D01*
X32380000Y-83020000D02*
X32380000Y-83130000D01*
%TO.C,TP16*%
X29620000Y-86550000D02*
X31000000Y-86550000D01*
X29620000Y-87930000D02*
X29620000Y-86550000D01*
X29620000Y-89200000D02*
X29620000Y-89310000D01*
X29620000Y-89200000D02*
X32380000Y-89200000D01*
X29620000Y-89310000D02*
X32380000Y-89310000D01*
X32380000Y-89200000D02*
X32380000Y-89310000D01*
%TO.C,TP10*%
X84870000Y-88120000D02*
X86250000Y-88120000D01*
X84870000Y-89500000D02*
X84870000Y-88120000D01*
X84870000Y-90770000D02*
X84870000Y-90880000D01*
X84870000Y-90770000D02*
X87630000Y-90770000D01*
X84870000Y-90880000D02*
X87630000Y-90880000D01*
X87630000Y-90770000D02*
X87630000Y-90880000D01*
%TO.C,TP7*%
X85120000Y-38870000D02*
X86500000Y-38870000D01*
X85120000Y-40250000D02*
X85120000Y-38870000D01*
X85120000Y-41520000D02*
X85120000Y-41630000D01*
X85120000Y-41520000D02*
X87880000Y-41520000D01*
X85120000Y-41630000D02*
X87880000Y-41630000D01*
X87880000Y-41520000D02*
X87880000Y-41630000D01*
%TO.C,TP15*%
X68370000Y-31620000D02*
X69750000Y-31620000D01*
X68370000Y-33000000D02*
X68370000Y-31620000D01*
X68370000Y-34270000D02*
X68370000Y-34380000D01*
X68370000Y-34270000D02*
X71130000Y-34270000D01*
X68370000Y-34380000D02*
X71130000Y-34380000D01*
X71130000Y-34270000D02*
X71130000Y-34380000D01*
%TO.C,C12*%
X75880000Y-42960000D02*
X83120000Y-42960000D01*
X75880000Y-45700000D02*
X75880000Y-42960000D01*
X83120000Y-42960000D02*
X83120000Y-45700000D01*
X83120000Y-45700000D02*
X75880000Y-45700000D01*
%TO.C,R3*%
X96072936Y-31540000D02*
X100427064Y-31540000D01*
X96072936Y-34960000D02*
X100427064Y-34960000D01*
%TO.C,C8*%
X39880000Y-58130000D02*
X47120000Y-58130000D01*
X39880000Y-60870000D02*
X39880000Y-58130000D01*
X47120000Y-58130000D02*
X47120000Y-60870000D01*
X47120000Y-60870000D02*
X39880000Y-60870000D01*
%TO.C,J1*%
X15280000Y-15005000D02*
X25320000Y-15005000D01*
X15280000Y-17365000D02*
X15280000Y-15005000D01*
X15280000Y-30485000D02*
X15280000Y-17965000D01*
X15900000Y-15005000D02*
X15900000Y-30485000D01*
X17400000Y-15005000D02*
X17400000Y-30485000D01*
X22300000Y-15005000D02*
X22300000Y-30485000D01*
X25320000Y-15005000D02*
X25320000Y-30485000D01*
X25320000Y-30485000D02*
X15280000Y-30485000D01*
X15280000Y-17665000D02*
X14670000Y-18105000D01*
X14670000Y-17225000D01*
X15280000Y-17665000D01*
G36*
X15280000Y-17665000D02*
G01*
X14670000Y-18105000D01*
X14670000Y-17225000D01*
X15280000Y-17665000D01*
G37*
%TO.C,D5*%
X91750000Y-82980000D02*
X91750000Y-83630000D01*
X91750000Y-88520000D02*
X91750000Y-87870000D01*
X92870000Y-84230000D02*
X90630000Y-84230000D01*
X92870000Y-84350000D02*
X90630000Y-84350000D01*
X92870000Y-84470000D02*
X90630000Y-84470000D01*
X92870000Y-83630000D02*
X90630000Y-83630000D01*
X90630000Y-87870000D01*
X92870000Y-87870000D01*
X92870000Y-83630000D01*
%TO.C,U1*%
X67540000Y-43130000D02*
X67540000Y-53410000D01*
X67540000Y-53410000D02*
X72840000Y-53410000D01*
X69190000Y-43130000D02*
X67540000Y-43130000D01*
X72840000Y-43130000D02*
X71190000Y-43130000D01*
X72840000Y-53410000D02*
X72840000Y-43130000D01*
X71190000Y-43130000D02*
G75*
G02*
X69190000Y-43130000I-1000000J0D01*
G01*
%TO.C,D3*%
X91750000Y-33540000D02*
X91750000Y-34190000D01*
X91750000Y-39080000D02*
X91750000Y-38430000D01*
X92870000Y-34790000D02*
X90630000Y-34790000D01*
X92870000Y-34910000D02*
X90630000Y-34910000D01*
X92870000Y-35030000D02*
X90630000Y-35030000D01*
X92870000Y-34190000D02*
X90630000Y-34190000D01*
X90630000Y-38430000D01*
X92870000Y-38430000D01*
X92870000Y-34190000D01*
%TO.C,D6*%
X107460000Y-51764000D02*
X107460000Y-51920000D01*
X107460000Y-54080000D02*
X107460000Y-54236000D01*
X107460000Y-51764484D02*
G75*
G02*
X110691437Y-51920000I1560000J-1235516D01*
G01*
X107979039Y-51920000D02*
G75*
G02*
X110060961Y-51920000I1040961J-1080000D01*
G01*
X110060961Y-54080000D02*
G75*
G02*
X107979039Y-54080000I-1040961J1080000D01*
G01*
X110691437Y-54080000D02*
G75*
G02*
X107460000Y-54235516I-1671437J1080000D01*
G01*
%TO.C,TP9*%
X101120000Y-18620000D02*
X102500000Y-18620000D01*
X101120000Y-20000000D02*
X101120000Y-18620000D01*
X101120000Y-21270000D02*
X101120000Y-21380000D01*
X101120000Y-21270000D02*
X103880000Y-21270000D01*
X101120000Y-21380000D02*
X103880000Y-21380000D01*
X103880000Y-21270000D02*
X103880000Y-21380000D01*
%TO.C,TP8*%
X37620000Y-34620000D02*
X39000000Y-34620000D01*
X37620000Y-36000000D02*
X37620000Y-34620000D01*
X37620000Y-37270000D02*
X37620000Y-37380000D01*
X37620000Y-37270000D02*
X40380000Y-37270000D01*
X37620000Y-37380000D02*
X40380000Y-37380000D01*
X40380000Y-37270000D02*
X40380000Y-37380000D01*
%TO.C,R2*%
X53860436Y-26290000D02*
X58214564Y-26290000D01*
X53860436Y-29710000D02*
X58214564Y-29710000D01*
%TO.C,TP11*%
X101120000Y-68120000D02*
X102500000Y-68120000D01*
X101120000Y-69500000D02*
X101120000Y-68120000D01*
X101120000Y-70770000D02*
X101120000Y-70880000D01*
X101120000Y-70770000D02*
X103880000Y-70770000D01*
X101120000Y-70880000D02*
X103880000Y-70880000D01*
X103880000Y-70770000D02*
X103880000Y-70880000D01*
%TO.C,R10*%
X96072936Y-56790000D02*
X100427064Y-56790000D01*
X96072936Y-60210000D02*
X100427064Y-60210000D01*
%TO.C,R12*%
X41880000Y-73750000D02*
X42650000Y-73750000D01*
X49960000Y-73750000D02*
X49190000Y-73750000D01*
X42650000Y-72380000D02*
X49190000Y-72380000D01*
X49190000Y-75120000D01*
X42650000Y-75120000D01*
X42650000Y-72380000D01*
%TO.C,TP5*%
X61620000Y-26620000D02*
X63000000Y-26620000D01*
X61620000Y-28000000D02*
X61620000Y-26620000D01*
X61620000Y-29270000D02*
X61620000Y-29380000D01*
X61620000Y-29270000D02*
X64380000Y-29270000D01*
X61620000Y-29380000D02*
X64380000Y-29380000D01*
X64380000Y-29270000D02*
X64380000Y-29380000D01*
%TO.C,TP3*%
X37620000Y-43620000D02*
X39000000Y-43620000D01*
X37620000Y-45000000D02*
X37620000Y-43620000D01*
X37620000Y-46270000D02*
X37620000Y-46380000D01*
X37620000Y-46270000D02*
X40380000Y-46270000D01*
X37620000Y-46380000D02*
X40380000Y-46380000D01*
X40380000Y-46270000D02*
X40380000Y-46380000D01*
%TO.C,D1*%
X17170000Y-50764000D02*
X17170000Y-50920000D01*
X17170000Y-53080000D02*
X17170000Y-53236000D01*
X17170000Y-50764484D02*
G75*
G02*
X20401437Y-50920000I1560000J-1235516D01*
G01*
X17689039Y-50920000D02*
G75*
G02*
X19770961Y-50920000I1040961J-1080000D01*
G01*
X19770961Y-53080000D02*
G75*
G02*
X17689039Y-53080000I-1040961J1080000D01*
G01*
X20401437Y-53080000D02*
G75*
G02*
X17170000Y-53235516I-1671437J1080000D01*
G01*
%TO.C,C9*%
X70800000Y-58630000D02*
X78040000Y-58630000D01*
X70800000Y-61370000D02*
X70800000Y-58630000D01*
X78040000Y-58630000D02*
X78040000Y-61370000D01*
X78040000Y-61370000D02*
X70800000Y-61370000D01*
%TO.C,C6*%
X66050000Y-82630000D02*
X73290000Y-82630000D01*
X66050000Y-85370000D02*
X66050000Y-82630000D01*
X73290000Y-82630000D02*
X73290000Y-85370000D01*
X73290000Y-85370000D02*
X66050000Y-85370000D01*
%TO.C,D4*%
X106960000Y-75764000D02*
X106960000Y-75920000D01*
X106960000Y-78080000D02*
X106960000Y-78236000D01*
X106960000Y-75764484D02*
G75*
G02*
X110191437Y-75920000I1560000J-1235516D01*
G01*
X107479039Y-75920000D02*
G75*
G02*
X109560961Y-75920000I1040961J-1080000D01*
G01*
X109560961Y-78080000D02*
G75*
G02*
X107479039Y-78080000I-1040961J1080000D01*
G01*
X110191437Y-78080000D02*
G75*
G02*
X106960000Y-78235516I-1671437J1080000D01*
G01*
%TO.C,C3*%
X42340302Y-16185000D02*
X43140302Y-16185000D01*
X42740302Y-15785000D02*
X42740302Y-16585000D01*
X46750000Y-14420000D02*
X46750000Y-22580000D01*
X46790000Y-14420000D02*
X46790000Y-22580000D01*
X46830000Y-14421000D02*
X46830000Y-22579000D01*
X46870000Y-14422000D02*
X46870000Y-22578000D01*
X46910000Y-14423000D02*
X46910000Y-22577000D01*
X46950000Y-14425000D02*
X46950000Y-22575000D01*
X46990000Y-14427000D02*
X46990000Y-22573000D01*
X47030000Y-14430000D02*
X47030000Y-22570000D01*
X47070000Y-14432000D02*
X47070000Y-22568000D01*
X47110000Y-14436000D02*
X47110000Y-22564000D01*
X47150000Y-14439000D02*
X47150000Y-22561000D01*
X47190000Y-14444000D02*
X47190000Y-22556000D01*
X47230000Y-14448000D02*
X47230000Y-22552000D01*
X47270000Y-14453000D02*
X47270000Y-22547000D01*
X47310000Y-14458000D02*
X47310000Y-22542000D01*
X47350000Y-14464000D02*
X47350000Y-22536000D01*
X47390000Y-14470000D02*
X47390000Y-22530000D01*
X47430000Y-14477000D02*
X47430000Y-22523000D01*
X47470000Y-14483000D02*
X47470000Y-17460000D01*
X47470000Y-19540000D02*
X47470000Y-22517000D01*
X47510000Y-14491000D02*
X47510000Y-17460000D01*
X47510000Y-19540000D02*
X47510000Y-22509000D01*
X47550000Y-14498000D02*
X47550000Y-17460000D01*
X47550000Y-19540000D02*
X47550000Y-22502000D01*
X47590000Y-14507000D02*
X47590000Y-17460000D01*
X47590000Y-19540000D02*
X47590000Y-22493000D01*
X47630000Y-14515000D02*
X47630000Y-17460000D01*
X47630000Y-19540000D02*
X47630000Y-22485000D01*
X47670000Y-14524000D02*
X47670000Y-17460000D01*
X47670000Y-19540000D02*
X47670000Y-22476000D01*
X47710000Y-14533000D02*
X47710000Y-17460000D01*
X47710000Y-19540000D02*
X47710000Y-22467000D01*
X47750000Y-14543000D02*
X47750000Y-17460000D01*
X47750000Y-19540000D02*
X47750000Y-22457000D01*
X47790000Y-14553000D02*
X47790000Y-17460000D01*
X47790000Y-19540000D02*
X47790000Y-22447000D01*
X47830000Y-14564000D02*
X47830000Y-17460000D01*
X47830000Y-19540000D02*
X47830000Y-22436000D01*
X47870000Y-14575000D02*
X47870000Y-17460000D01*
X47870000Y-19540000D02*
X47870000Y-22425000D01*
X47910000Y-14587000D02*
X47910000Y-17460000D01*
X47910000Y-19540000D02*
X47910000Y-22413000D01*
X47950000Y-14599000D02*
X47950000Y-17460000D01*
X47950000Y-19540000D02*
X47950000Y-22401000D01*
X47990000Y-14611000D02*
X47990000Y-17460000D01*
X47990000Y-19540000D02*
X47990000Y-22389000D01*
X48030000Y-14624000D02*
X48030000Y-17460000D01*
X48030000Y-19540000D02*
X48030000Y-22376000D01*
X48070000Y-14637000D02*
X48070000Y-17460000D01*
X48070000Y-19540000D02*
X48070000Y-22363000D01*
X48110000Y-14651000D02*
X48110000Y-17460000D01*
X48110000Y-19540000D02*
X48110000Y-22349000D01*
X48150000Y-14665000D02*
X48150000Y-17460000D01*
X48150000Y-19540000D02*
X48150000Y-22335000D01*
X48190000Y-14680000D02*
X48190000Y-17460000D01*
X48190000Y-19540000D02*
X48190000Y-22320000D01*
X48230000Y-14695000D02*
X48230000Y-17460000D01*
X48230000Y-19540000D02*
X48230000Y-22305000D01*
X48270000Y-14711000D02*
X48270000Y-17460000D01*
X48270000Y-19540000D02*
X48270000Y-22289000D01*
X48310000Y-14727000D02*
X48310000Y-17460000D01*
X48310000Y-19540000D02*
X48310000Y-22273000D01*
X48350000Y-14743000D02*
X48350000Y-17460000D01*
X48350000Y-19540000D02*
X48350000Y-22257000D01*
X48390000Y-14760000D02*
X48390000Y-17460000D01*
X48390000Y-19540000D02*
X48390000Y-22240000D01*
X48430000Y-14778000D02*
X48430000Y-17460000D01*
X48430000Y-19540000D02*
X48430000Y-22222000D01*
X48470000Y-14796000D02*
X48470000Y-17460000D01*
X48470000Y-19540000D02*
X48470000Y-22204000D01*
X48510000Y-14815000D02*
X48510000Y-17460000D01*
X48510000Y-19540000D02*
X48510000Y-22185000D01*
X48550000Y-14834000D02*
X48550000Y-17460000D01*
X48550000Y-19540000D02*
X48550000Y-22166000D01*
X48590000Y-14854000D02*
X48590000Y-17460000D01*
X48590000Y-19540000D02*
X48590000Y-22146000D01*
X48630000Y-14874000D02*
X48630000Y-17460000D01*
X48630000Y-19540000D02*
X48630000Y-22126000D01*
X48670000Y-14895000D02*
X48670000Y-17460000D01*
X48670000Y-19540000D02*
X48670000Y-22105000D01*
X48710000Y-14916000D02*
X48710000Y-17460000D01*
X48710000Y-19540000D02*
X48710000Y-22084000D01*
X48750000Y-14938000D02*
X48750000Y-17460000D01*
X48750000Y-19540000D02*
X48750000Y-22062000D01*
X48790000Y-14961000D02*
X48790000Y-17460000D01*
X48790000Y-19540000D02*
X48790000Y-22039000D01*
X48830000Y-14984000D02*
X48830000Y-17460000D01*
X48830000Y-19540000D02*
X48830000Y-22016000D01*
X48870000Y-15007000D02*
X48870000Y-17460000D01*
X48870000Y-19540000D02*
X48870000Y-21993000D01*
X48910000Y-15032000D02*
X48910000Y-17460000D01*
X48910000Y-19540000D02*
X48910000Y-21968000D01*
X48950000Y-15057000D02*
X48950000Y-17460000D01*
X48950000Y-19540000D02*
X48950000Y-21943000D01*
X48990000Y-15082000D02*
X48990000Y-17460000D01*
X48990000Y-19540000D02*
X48990000Y-21918000D01*
X49030000Y-15108000D02*
X49030000Y-17460000D01*
X49030000Y-19540000D02*
X49030000Y-21892000D01*
X49070000Y-15135000D02*
X49070000Y-17460000D01*
X49070000Y-19540000D02*
X49070000Y-21865000D01*
X49110000Y-15163000D02*
X49110000Y-17460000D01*
X49110000Y-19540000D02*
X49110000Y-21837000D01*
X49150000Y-15191000D02*
X49150000Y-17460000D01*
X49150000Y-19540000D02*
X49150000Y-21809000D01*
X49190000Y-15220000D02*
X49190000Y-17460000D01*
X49190000Y-19540000D02*
X49190000Y-21780000D01*
X49230000Y-15250000D02*
X49230000Y-17460000D01*
X49230000Y-19540000D02*
X49230000Y-21750000D01*
X49270000Y-15281000D02*
X49270000Y-17460000D01*
X49270000Y-19540000D02*
X49270000Y-21719000D01*
X49310000Y-15312000D02*
X49310000Y-17460000D01*
X49310000Y-19540000D02*
X49310000Y-21688000D01*
X49350000Y-15344000D02*
X49350000Y-17460000D01*
X49350000Y-19540000D02*
X49350000Y-21656000D01*
X49390000Y-15377000D02*
X49390000Y-17460000D01*
X49390000Y-19540000D02*
X49390000Y-21623000D01*
X49430000Y-15411000D02*
X49430000Y-17460000D01*
X49430000Y-19540000D02*
X49430000Y-21589000D01*
X49470000Y-15445000D02*
X49470000Y-17460000D01*
X49470000Y-19540000D02*
X49470000Y-21555000D01*
X49510000Y-15481000D02*
X49510000Y-17460000D01*
X49510000Y-19540000D02*
X49510000Y-21519000D01*
X49550000Y-15518000D02*
X49550000Y-21482000D01*
X49590000Y-15555000D02*
X49590000Y-21445000D01*
X49630000Y-15594000D02*
X49630000Y-21406000D01*
X49670000Y-15633000D02*
X49670000Y-21367000D01*
X49710000Y-15674000D02*
X49710000Y-21326000D01*
X49750000Y-15716000D02*
X49750000Y-21284000D01*
X49790000Y-15759000D02*
X49790000Y-21241000D01*
X49830000Y-15804000D02*
X49830000Y-21196000D01*
X49870000Y-15849000D02*
X49870000Y-21151000D01*
X49910000Y-15896000D02*
X49910000Y-21104000D01*
X49950000Y-15945000D02*
X49950000Y-21055000D01*
X49990000Y-15995000D02*
X49990000Y-21005000D01*
X50030000Y-16047000D02*
X50030000Y-20953000D01*
X50070000Y-16100000D02*
X50070000Y-20900000D01*
X50110000Y-16156000D02*
X50110000Y-20844000D01*
X50150000Y-16213000D02*
X50150000Y-20787000D01*
X50190000Y-16273000D02*
X50190000Y-20727000D01*
X50230000Y-16335000D02*
X50230000Y-20665000D01*
X50270000Y-16399000D02*
X50270000Y-20601000D01*
X50310000Y-16466000D02*
X50310000Y-20534000D01*
X50350000Y-16536000D02*
X50350000Y-20464000D01*
X50390000Y-16610000D02*
X50390000Y-20390000D01*
X50430000Y-16687000D02*
X50430000Y-20313000D01*
X50470000Y-16769000D02*
X50470000Y-20231000D01*
X50510000Y-16856000D02*
X50510000Y-20144000D01*
X50550000Y-16948000D02*
X50550000Y-20052000D01*
X50590000Y-17047000D02*
X50590000Y-19953000D01*
X50630000Y-17154000D02*
X50630000Y-19846000D01*
X50670000Y-17272000D02*
X50670000Y-19728000D01*
X50710000Y-17403000D02*
X50710000Y-19597000D01*
X50750000Y-17553000D02*
X50750000Y-19447000D01*
X50790000Y-17732000D02*
X50790000Y-19268000D01*
X50830000Y-17967000D02*
X50830000Y-19033000D01*
X50870000Y-18500000D02*
G75*
G02*
X42630000Y-18500000I-4120000J0D01*
G01*
X42630000Y-18500000D02*
G75*
G02*
X50870000Y-18500000I4120000J0D01*
G01*
%TO.C,J2*%
X15280000Y-32340000D02*
X25320000Y-32340000D01*
X15280000Y-34700000D02*
X15280000Y-32340000D01*
X15280000Y-47820000D02*
X15280000Y-35300000D01*
X15900000Y-32340000D02*
X15900000Y-47820000D01*
X17400000Y-32340000D02*
X17400000Y-47820000D01*
X22300000Y-32340000D02*
X22300000Y-47820000D01*
X25320000Y-32340000D02*
X25320000Y-47820000D01*
X25320000Y-47820000D02*
X15280000Y-47820000D01*
X15280000Y-35000000D02*
X14670000Y-35440000D01*
X14670000Y-34560000D01*
X15280000Y-35000000D01*
G36*
X15280000Y-35000000D02*
G01*
X14670000Y-35440000D01*
X14670000Y-34560000D01*
X15280000Y-35000000D01*
G37*
%TO.C,C1*%
X42340302Y-25935000D02*
X43140302Y-25935000D01*
X42740302Y-25535000D02*
X42740302Y-26335000D01*
X46750000Y-24170000D02*
X46750000Y-32330000D01*
X46790000Y-24170000D02*
X46790000Y-32330000D01*
X46830000Y-24171000D02*
X46830000Y-32329000D01*
X46870000Y-24172000D02*
X46870000Y-32328000D01*
X46910000Y-24173000D02*
X46910000Y-32327000D01*
X46950000Y-24175000D02*
X46950000Y-32325000D01*
X46990000Y-24177000D02*
X46990000Y-32323000D01*
X47030000Y-24180000D02*
X47030000Y-32320000D01*
X47070000Y-24182000D02*
X47070000Y-32318000D01*
X47110000Y-24186000D02*
X47110000Y-32314000D01*
X47150000Y-24189000D02*
X47150000Y-32311000D01*
X47190000Y-24194000D02*
X47190000Y-32306000D01*
X47230000Y-24198000D02*
X47230000Y-32302000D01*
X47270000Y-24203000D02*
X47270000Y-32297000D01*
X47310000Y-24208000D02*
X47310000Y-32292000D01*
X47350000Y-24214000D02*
X47350000Y-32286000D01*
X47390000Y-24220000D02*
X47390000Y-32280000D01*
X47430000Y-24227000D02*
X47430000Y-32273000D01*
X47470000Y-24233000D02*
X47470000Y-27210000D01*
X47470000Y-29290000D02*
X47470000Y-32267000D01*
X47510000Y-24241000D02*
X47510000Y-27210000D01*
X47510000Y-29290000D02*
X47510000Y-32259000D01*
X47550000Y-24248000D02*
X47550000Y-27210000D01*
X47550000Y-29290000D02*
X47550000Y-32252000D01*
X47590000Y-24257000D02*
X47590000Y-27210000D01*
X47590000Y-29290000D02*
X47590000Y-32243000D01*
X47630000Y-24265000D02*
X47630000Y-27210000D01*
X47630000Y-29290000D02*
X47630000Y-32235000D01*
X47670000Y-24274000D02*
X47670000Y-27210000D01*
X47670000Y-29290000D02*
X47670000Y-32226000D01*
X47710000Y-24283000D02*
X47710000Y-27210000D01*
X47710000Y-29290000D02*
X47710000Y-32217000D01*
X47750000Y-24293000D02*
X47750000Y-27210000D01*
X47750000Y-29290000D02*
X47750000Y-32207000D01*
X47790000Y-24303000D02*
X47790000Y-27210000D01*
X47790000Y-29290000D02*
X47790000Y-32197000D01*
X47830000Y-24314000D02*
X47830000Y-27210000D01*
X47830000Y-29290000D02*
X47830000Y-32186000D01*
X47870000Y-24325000D02*
X47870000Y-27210000D01*
X47870000Y-29290000D02*
X47870000Y-32175000D01*
X47910000Y-24337000D02*
X47910000Y-27210000D01*
X47910000Y-29290000D02*
X47910000Y-32163000D01*
X47950000Y-24349000D02*
X47950000Y-27210000D01*
X47950000Y-29290000D02*
X47950000Y-32151000D01*
X47990000Y-24361000D02*
X47990000Y-27210000D01*
X47990000Y-29290000D02*
X47990000Y-32139000D01*
X48030000Y-24374000D02*
X48030000Y-27210000D01*
X48030000Y-29290000D02*
X48030000Y-32126000D01*
X48070000Y-24387000D02*
X48070000Y-27210000D01*
X48070000Y-29290000D02*
X48070000Y-32113000D01*
X48110000Y-24401000D02*
X48110000Y-27210000D01*
X48110000Y-29290000D02*
X48110000Y-32099000D01*
X48150000Y-24415000D02*
X48150000Y-27210000D01*
X48150000Y-29290000D02*
X48150000Y-32085000D01*
X48190000Y-24430000D02*
X48190000Y-27210000D01*
X48190000Y-29290000D02*
X48190000Y-32070000D01*
X48230000Y-24445000D02*
X48230000Y-27210000D01*
X48230000Y-29290000D02*
X48230000Y-32055000D01*
X48270000Y-24461000D02*
X48270000Y-27210000D01*
X48270000Y-29290000D02*
X48270000Y-32039000D01*
X48310000Y-24477000D02*
X48310000Y-27210000D01*
X48310000Y-29290000D02*
X48310000Y-32023000D01*
X48350000Y-24493000D02*
X48350000Y-27210000D01*
X48350000Y-29290000D02*
X48350000Y-32007000D01*
X48390000Y-24510000D02*
X48390000Y-27210000D01*
X48390000Y-29290000D02*
X48390000Y-31990000D01*
X48430000Y-24528000D02*
X48430000Y-27210000D01*
X48430000Y-29290000D02*
X48430000Y-31972000D01*
X48470000Y-24546000D02*
X48470000Y-27210000D01*
X48470000Y-29290000D02*
X48470000Y-31954000D01*
X48510000Y-24565000D02*
X48510000Y-27210000D01*
X48510000Y-29290000D02*
X48510000Y-31935000D01*
X48550000Y-24584000D02*
X48550000Y-27210000D01*
X48550000Y-29290000D02*
X48550000Y-31916000D01*
X48590000Y-24604000D02*
X48590000Y-27210000D01*
X48590000Y-29290000D02*
X48590000Y-31896000D01*
X48630000Y-24624000D02*
X48630000Y-27210000D01*
X48630000Y-29290000D02*
X48630000Y-31876000D01*
X48670000Y-24645000D02*
X48670000Y-27210000D01*
X48670000Y-29290000D02*
X48670000Y-31855000D01*
X48710000Y-24666000D02*
X48710000Y-27210000D01*
X48710000Y-29290000D02*
X48710000Y-31834000D01*
X48750000Y-24688000D02*
X48750000Y-27210000D01*
X48750000Y-29290000D02*
X48750000Y-31812000D01*
X48790000Y-24711000D02*
X48790000Y-27210000D01*
X48790000Y-29290000D02*
X48790000Y-31789000D01*
X48830000Y-24734000D02*
X48830000Y-27210000D01*
X48830000Y-29290000D02*
X48830000Y-31766000D01*
X48870000Y-24757000D02*
X48870000Y-27210000D01*
X48870000Y-29290000D02*
X48870000Y-31743000D01*
X48910000Y-24782000D02*
X48910000Y-27210000D01*
X48910000Y-29290000D02*
X48910000Y-31718000D01*
X48950000Y-24807000D02*
X48950000Y-27210000D01*
X48950000Y-29290000D02*
X48950000Y-31693000D01*
X48990000Y-24832000D02*
X48990000Y-27210000D01*
X48990000Y-29290000D02*
X48990000Y-31668000D01*
X49030000Y-24858000D02*
X49030000Y-27210000D01*
X49030000Y-29290000D02*
X49030000Y-31642000D01*
X49070000Y-24885000D02*
X49070000Y-27210000D01*
X49070000Y-29290000D02*
X49070000Y-31615000D01*
X49110000Y-24913000D02*
X49110000Y-27210000D01*
X49110000Y-29290000D02*
X49110000Y-31587000D01*
X49150000Y-24941000D02*
X49150000Y-27210000D01*
X49150000Y-29290000D02*
X49150000Y-31559000D01*
X49190000Y-24970000D02*
X49190000Y-27210000D01*
X49190000Y-29290000D02*
X49190000Y-31530000D01*
X49230000Y-25000000D02*
X49230000Y-27210000D01*
X49230000Y-29290000D02*
X49230000Y-31500000D01*
X49270000Y-25031000D02*
X49270000Y-27210000D01*
X49270000Y-29290000D02*
X49270000Y-31469000D01*
X49310000Y-25062000D02*
X49310000Y-27210000D01*
X49310000Y-29290000D02*
X49310000Y-31438000D01*
X49350000Y-25094000D02*
X49350000Y-27210000D01*
X49350000Y-29290000D02*
X49350000Y-31406000D01*
X49390000Y-25127000D02*
X49390000Y-27210000D01*
X49390000Y-29290000D02*
X49390000Y-31373000D01*
X49430000Y-25161000D02*
X49430000Y-27210000D01*
X49430000Y-29290000D02*
X49430000Y-31339000D01*
X49470000Y-25195000D02*
X49470000Y-27210000D01*
X49470000Y-29290000D02*
X49470000Y-31305000D01*
X49510000Y-25231000D02*
X49510000Y-27210000D01*
X49510000Y-29290000D02*
X49510000Y-31269000D01*
X49550000Y-25268000D02*
X49550000Y-31232000D01*
X49590000Y-25305000D02*
X49590000Y-31195000D01*
X49630000Y-25344000D02*
X49630000Y-31156000D01*
X49670000Y-25383000D02*
X49670000Y-31117000D01*
X49710000Y-25424000D02*
X49710000Y-31076000D01*
X49750000Y-25466000D02*
X49750000Y-31034000D01*
X49790000Y-25509000D02*
X49790000Y-30991000D01*
X49830000Y-25554000D02*
X49830000Y-30946000D01*
X49870000Y-25599000D02*
X49870000Y-30901000D01*
X49910000Y-25646000D02*
X49910000Y-30854000D01*
X49950000Y-25695000D02*
X49950000Y-30805000D01*
X49990000Y-25745000D02*
X49990000Y-30755000D01*
X50030000Y-25797000D02*
X50030000Y-30703000D01*
X50070000Y-25850000D02*
X50070000Y-30650000D01*
X50110000Y-25906000D02*
X50110000Y-30594000D01*
X50150000Y-25963000D02*
X50150000Y-30537000D01*
X50190000Y-26023000D02*
X50190000Y-30477000D01*
X50230000Y-26085000D02*
X50230000Y-30415000D01*
X50270000Y-26149000D02*
X50270000Y-30351000D01*
X50310000Y-26216000D02*
X50310000Y-30284000D01*
X50350000Y-26286000D02*
X50350000Y-30214000D01*
X50390000Y-26360000D02*
X50390000Y-30140000D01*
X50430000Y-26437000D02*
X50430000Y-30063000D01*
X50470000Y-26519000D02*
X50470000Y-29981000D01*
X50510000Y-26606000D02*
X50510000Y-29894000D01*
X50550000Y-26698000D02*
X50550000Y-29802000D01*
X50590000Y-26797000D02*
X50590000Y-29703000D01*
X50630000Y-26904000D02*
X50630000Y-29596000D01*
X50670000Y-27022000D02*
X50670000Y-29478000D01*
X50710000Y-27153000D02*
X50710000Y-29347000D01*
X50750000Y-27303000D02*
X50750000Y-29197000D01*
X50790000Y-27482000D02*
X50790000Y-29018000D01*
X50830000Y-27717000D02*
X50830000Y-28783000D01*
X50870000Y-28250000D02*
G75*
G02*
X42630000Y-28250000I-4120000J0D01*
G01*
X42630000Y-28250000D02*
G75*
G02*
X50870000Y-28250000I4120000J0D01*
G01*
%TO.C,R16*%
X53960000Y-46540000D02*
X54730000Y-46540000D01*
X62040000Y-46540000D02*
X61270000Y-46540000D01*
X61270000Y-47910000D02*
X54730000Y-47910000D01*
X54730000Y-45170000D01*
X61270000Y-45170000D01*
X61270000Y-47910000D01*
%TO.C,R13*%
X54120000Y-62250000D02*
X54890000Y-62250000D01*
X62200000Y-62250000D02*
X61430000Y-62250000D01*
X61430000Y-63620000D02*
X54890000Y-63620000D01*
X54890000Y-60880000D01*
X61430000Y-60880000D01*
X61430000Y-63620000D01*
%TO.C,R5*%
X67960000Y-87500000D02*
X68730000Y-87500000D01*
X76040000Y-87500000D02*
X75270000Y-87500000D01*
X68730000Y-86130000D02*
X75270000Y-86130000D01*
X75270000Y-88870000D01*
X68730000Y-88870000D01*
X68730000Y-86130000D01*
%TO.C,C10*%
X65800000Y-62880000D02*
X73040000Y-62880000D01*
X65800000Y-65620000D02*
X65800000Y-62880000D01*
X73040000Y-62880000D02*
X73040000Y-65620000D01*
X73040000Y-65620000D02*
X65800000Y-65620000D01*
%TO.C,C7*%
X39880000Y-62130000D02*
X47120000Y-62130000D01*
X39880000Y-64870000D02*
X39880000Y-62130000D01*
X47120000Y-62130000D02*
X47120000Y-64870000D01*
X47120000Y-64870000D02*
X39880000Y-64870000D01*
%TO.C,C11*%
X64880000Y-74630000D02*
X72120000Y-74630000D01*
X64880000Y-77370000D02*
X64880000Y-74630000D01*
X72120000Y-74630000D02*
X72120000Y-77370000D01*
X72120000Y-77370000D02*
X64880000Y-77370000D01*
%TO.C,R6*%
X68130000Y-80000000D02*
X68900000Y-80000000D01*
X76210000Y-80000000D02*
X75440000Y-80000000D01*
X75440000Y-81370000D02*
X68900000Y-81370000D01*
X68900000Y-78630000D01*
X75440000Y-78630000D01*
X75440000Y-81370000D01*
%TO.C,R15*%
X54040000Y-57000000D02*
X54810000Y-57000000D01*
X62120000Y-57000000D02*
X61350000Y-57000000D01*
X54810000Y-55630000D02*
X61350000Y-55630000D01*
X61350000Y-58370000D01*
X54810000Y-58370000D01*
X54810000Y-55630000D01*
%TO.C,R8*%
X41960000Y-68500000D02*
X42730000Y-68500000D01*
X50040000Y-68500000D02*
X49270000Y-68500000D01*
X42730000Y-67130000D02*
X49270000Y-67130000D01*
X49270000Y-69870000D01*
X42730000Y-69870000D01*
X42730000Y-67130000D01*
%TO.C,C14*%
X57380000Y-50880000D02*
X64620000Y-50880000D01*
X57380000Y-53620000D02*
X57380000Y-50880000D01*
X64620000Y-50880000D02*
X64620000Y-53620000D01*
X64620000Y-53620000D02*
X57380000Y-53620000D01*
%TO.C,U2*%
X55710000Y-67180000D02*
X55710000Y-85080000D01*
X55710000Y-85080000D02*
X57360000Y-85080000D01*
X59360000Y-85080000D02*
X61010000Y-85080000D01*
X61010000Y-67180000D02*
X55710000Y-67180000D01*
X61010000Y-85080000D02*
X61010000Y-67180000D01*
X57360000Y-85080000D02*
G75*
G02*
X59360000Y-85080000I1000000J0D01*
G01*
%TO.C,Q3*%
X100680000Y-54850000D02*
X104280000Y-54850000D01*
X100641522Y-54838478D02*
G75*
G02*
X102480000Y-50399999I1838478J1838478D01*
G01*
X102480000Y-50400000D02*
G75*
G02*
X104318478Y-54838478I0J-2600000D01*
G01*
%TO.C,D2*%
X107210000Y-26264000D02*
X107210000Y-26420000D01*
X107210000Y-28580000D02*
X107210000Y-28736000D01*
X107210000Y-26264484D02*
G75*
G02*
X110441437Y-26420000I1560000J-1235516D01*
G01*
X107729039Y-26420000D02*
G75*
G02*
X109810961Y-26420000I1040961J-1080000D01*
G01*
X109810961Y-28580000D02*
G75*
G02*
X107729039Y-28580000I-1040961J1080000D01*
G01*
X110441437Y-28580000D02*
G75*
G02*
X107210000Y-28735516I-1671437J1080000D01*
G01*
%TO.C,R11*%
X67960000Y-68000000D02*
X68730000Y-68000000D01*
X76040000Y-68000000D02*
X75270000Y-68000000D01*
X68730000Y-66630000D02*
X75270000Y-66630000D01*
X75270000Y-69370000D01*
X68730000Y-69370000D01*
X68730000Y-66630000D01*
%TO.C,R4*%
X92610436Y-25790000D02*
X96964564Y-25790000D01*
X92610436Y-29210000D02*
X96964564Y-29210000D01*
%TO.C,U4*%
X45240000Y-34350000D02*
X49860000Y-34350000D01*
X45240000Y-37610000D02*
X46620000Y-37610000D01*
X45240000Y-41310000D02*
X46620000Y-41310000D01*
X45240000Y-44570000D02*
X45240000Y-34350000D01*
X46620000Y-44570000D02*
X46620000Y-34350000D01*
X49860000Y-34350000D02*
X49860000Y-44570000D01*
X49860000Y-44570000D02*
X45240000Y-44570000D01*
%TO.C,R7*%
X96072936Y-81040000D02*
X100427064Y-81040000D01*
X96072936Y-84460000D02*
X100427064Y-84460000D01*
%TO.C,TP13*%
X101120000Y-44120000D02*
X102500000Y-44120000D01*
X101120000Y-45500000D02*
X101120000Y-44120000D01*
X101120000Y-46770000D02*
X101120000Y-46880000D01*
X101120000Y-46770000D02*
X103880000Y-46770000D01*
X101120000Y-46880000D02*
X103880000Y-46880000D01*
X103880000Y-46770000D02*
X103880000Y-46880000D01*
%TO.C,TP1*%
X77620000Y-48080000D02*
X79000000Y-48080000D01*
X77620000Y-49460000D02*
X77620000Y-48080000D01*
X77620000Y-50730000D02*
X77620000Y-50840000D01*
X77620000Y-50730000D02*
X80380000Y-50730000D01*
X77620000Y-50840000D02*
X80380000Y-50840000D01*
X80380000Y-50730000D02*
X80380000Y-50840000D01*
%TO.C,J3*%
X16280000Y-79260000D02*
X26320000Y-79260000D01*
X16280000Y-81620000D02*
X16280000Y-79260000D01*
X16280000Y-89660000D02*
X16280000Y-82220000D01*
X16900000Y-79260000D02*
X16900000Y-89660000D01*
X18400000Y-79260000D02*
X18400000Y-89660000D01*
X23300000Y-79260000D02*
X23300000Y-89660000D01*
X26320000Y-79260000D02*
X26320000Y-89660000D01*
X26320000Y-89660000D02*
X16280000Y-89660000D01*
X16280000Y-81920000D02*
X15670000Y-82360000D01*
X15670000Y-81480000D01*
X16280000Y-81920000D01*
G36*
X16280000Y-81920000D02*
G01*
X15670000Y-82360000D01*
X15670000Y-81480000D01*
X16280000Y-81920000D01*
G37*
%TO.C,D7*%
X91750000Y-59040000D02*
X91750000Y-59690000D01*
X91750000Y-64580000D02*
X91750000Y-63930000D01*
X92870000Y-60290000D02*
X90630000Y-60290000D01*
X92870000Y-60410000D02*
X90630000Y-60410000D01*
X92870000Y-60530000D02*
X90630000Y-60530000D01*
X92870000Y-59690000D02*
X90630000Y-59690000D01*
X90630000Y-63930000D01*
X92870000Y-63930000D01*
X92870000Y-59690000D01*
%TO.C,RV1*%
X60585000Y-35980000D02*
X70335000Y-35980000D01*
X60585000Y-42300000D02*
X60585000Y-35980000D01*
X70335000Y-35980000D02*
X70335000Y-42300000D01*
X70335000Y-42300000D02*
X60585000Y-42300000D01*
%TO.C,R14*%
X92610436Y-51290000D02*
X96964564Y-51290000D01*
X92610436Y-54710000D02*
X96964564Y-54710000D01*
%TO.C,R1*%
X17040000Y-57000000D02*
X17810000Y-57000000D01*
X25120000Y-57000000D02*
X24350000Y-57000000D01*
X17810000Y-55630000D02*
X24350000Y-55630000D01*
X24350000Y-58370000D01*
X17810000Y-58370000D01*
X17810000Y-55630000D01*
%TO.C,C13*%
X45130000Y-76130000D02*
X52370000Y-76130000D01*
X45130000Y-78870000D02*
X45130000Y-76130000D01*
X52370000Y-76130000D02*
X52370000Y-78870000D01*
X52370000Y-78870000D02*
X45130000Y-78870000D01*
%TO.C,R9*%
X92610436Y-75290000D02*
X96964564Y-75290000D01*
X92610436Y-78710000D02*
X96964564Y-78710000D01*
%TO.C,C4*%
X26840302Y-32935000D02*
X27640302Y-32935000D01*
X27240302Y-32535000D02*
X27240302Y-33335000D01*
X31250000Y-31170000D02*
X31250000Y-39330000D01*
X31290000Y-31170000D02*
X31290000Y-39330000D01*
X31330000Y-31171000D02*
X31330000Y-39329000D01*
X31370000Y-31172000D02*
X31370000Y-39328000D01*
X31410000Y-31173000D02*
X31410000Y-39327000D01*
X31450000Y-31175000D02*
X31450000Y-39325000D01*
X31490000Y-31177000D02*
X31490000Y-39323000D01*
X31530000Y-31180000D02*
X31530000Y-39320000D01*
X31570000Y-31182000D02*
X31570000Y-39318000D01*
X31610000Y-31186000D02*
X31610000Y-39314000D01*
X31650000Y-31189000D02*
X31650000Y-39311000D01*
X31690000Y-31194000D02*
X31690000Y-39306000D01*
X31730000Y-31198000D02*
X31730000Y-39302000D01*
X31770000Y-31203000D02*
X31770000Y-39297000D01*
X31810000Y-31208000D02*
X31810000Y-39292000D01*
X31850000Y-31214000D02*
X31850000Y-39286000D01*
X31890000Y-31220000D02*
X31890000Y-39280000D01*
X31930000Y-31227000D02*
X31930000Y-39273000D01*
X31970000Y-31233000D02*
X31970000Y-34210000D01*
X31970000Y-36290000D02*
X31970000Y-39267000D01*
X32010000Y-31241000D02*
X32010000Y-34210000D01*
X32010000Y-36290000D02*
X32010000Y-39259000D01*
X32050000Y-31248000D02*
X32050000Y-34210000D01*
X32050000Y-36290000D02*
X32050000Y-39252000D01*
X32090000Y-31257000D02*
X32090000Y-34210000D01*
X32090000Y-36290000D02*
X32090000Y-39243000D01*
X32130000Y-31265000D02*
X32130000Y-34210000D01*
X32130000Y-36290000D02*
X32130000Y-39235000D01*
X32170000Y-31274000D02*
X32170000Y-34210000D01*
X32170000Y-36290000D02*
X32170000Y-39226000D01*
X32210000Y-31283000D02*
X32210000Y-34210000D01*
X32210000Y-36290000D02*
X32210000Y-39217000D01*
X32250000Y-31293000D02*
X32250000Y-34210000D01*
X32250000Y-36290000D02*
X32250000Y-39207000D01*
X32290000Y-31303000D02*
X32290000Y-34210000D01*
X32290000Y-36290000D02*
X32290000Y-39197000D01*
X32330000Y-31314000D02*
X32330000Y-34210000D01*
X32330000Y-36290000D02*
X32330000Y-39186000D01*
X32370000Y-31325000D02*
X32370000Y-34210000D01*
X32370000Y-36290000D02*
X32370000Y-39175000D01*
X32410000Y-31337000D02*
X32410000Y-34210000D01*
X32410000Y-36290000D02*
X32410000Y-39163000D01*
X32450000Y-31349000D02*
X32450000Y-34210000D01*
X32450000Y-36290000D02*
X32450000Y-39151000D01*
X32490000Y-31361000D02*
X32490000Y-34210000D01*
X32490000Y-36290000D02*
X32490000Y-39139000D01*
X32530000Y-31374000D02*
X32530000Y-34210000D01*
X32530000Y-36290000D02*
X32530000Y-39126000D01*
X32570000Y-31387000D02*
X32570000Y-34210000D01*
X32570000Y-36290000D02*
X32570000Y-39113000D01*
X32610000Y-31401000D02*
X32610000Y-34210000D01*
X32610000Y-36290000D02*
X32610000Y-39099000D01*
X32650000Y-31415000D02*
X32650000Y-34210000D01*
X32650000Y-36290000D02*
X32650000Y-39085000D01*
X32690000Y-31430000D02*
X32690000Y-34210000D01*
X32690000Y-36290000D02*
X32690000Y-39070000D01*
X32730000Y-31445000D02*
X32730000Y-34210000D01*
X32730000Y-36290000D02*
X32730000Y-39055000D01*
X32770000Y-31461000D02*
X32770000Y-34210000D01*
X32770000Y-36290000D02*
X32770000Y-39039000D01*
X32810000Y-31477000D02*
X32810000Y-34210000D01*
X32810000Y-36290000D02*
X32810000Y-39023000D01*
X32850000Y-31493000D02*
X32850000Y-34210000D01*
X32850000Y-36290000D02*
X32850000Y-39007000D01*
X32890000Y-31510000D02*
X32890000Y-34210000D01*
X32890000Y-36290000D02*
X32890000Y-38990000D01*
X32930000Y-31528000D02*
X32930000Y-34210000D01*
X32930000Y-36290000D02*
X32930000Y-38972000D01*
X32970000Y-31546000D02*
X32970000Y-34210000D01*
X32970000Y-36290000D02*
X32970000Y-38954000D01*
X33010000Y-31565000D02*
X33010000Y-34210000D01*
X33010000Y-36290000D02*
X33010000Y-38935000D01*
X33050000Y-31584000D02*
X33050000Y-34210000D01*
X33050000Y-36290000D02*
X33050000Y-38916000D01*
X33090000Y-31604000D02*
X33090000Y-34210000D01*
X33090000Y-36290000D02*
X33090000Y-38896000D01*
X33130000Y-31624000D02*
X33130000Y-34210000D01*
X33130000Y-36290000D02*
X33130000Y-38876000D01*
X33170000Y-31645000D02*
X33170000Y-34210000D01*
X33170000Y-36290000D02*
X33170000Y-38855000D01*
X33210000Y-31666000D02*
X33210000Y-34210000D01*
X33210000Y-36290000D02*
X33210000Y-38834000D01*
X33250000Y-31688000D02*
X33250000Y-34210000D01*
X33250000Y-36290000D02*
X33250000Y-38812000D01*
X33290000Y-31711000D02*
X33290000Y-34210000D01*
X33290000Y-36290000D02*
X33290000Y-38789000D01*
X33330000Y-31734000D02*
X33330000Y-34210000D01*
X33330000Y-36290000D02*
X33330000Y-38766000D01*
X33370000Y-31757000D02*
X33370000Y-34210000D01*
X33370000Y-36290000D02*
X33370000Y-38743000D01*
X33410000Y-31782000D02*
X33410000Y-34210000D01*
X33410000Y-36290000D02*
X33410000Y-38718000D01*
X33450000Y-31807000D02*
X33450000Y-34210000D01*
X33450000Y-36290000D02*
X33450000Y-38693000D01*
X33490000Y-31832000D02*
X33490000Y-34210000D01*
X33490000Y-36290000D02*
X33490000Y-38668000D01*
X33530000Y-31858000D02*
X33530000Y-34210000D01*
X33530000Y-36290000D02*
X33530000Y-38642000D01*
X33570000Y-31885000D02*
X33570000Y-34210000D01*
X33570000Y-36290000D02*
X33570000Y-38615000D01*
X33610000Y-31913000D02*
X33610000Y-34210000D01*
X33610000Y-36290000D02*
X33610000Y-38587000D01*
X33650000Y-31941000D02*
X33650000Y-34210000D01*
X33650000Y-36290000D02*
X33650000Y-38559000D01*
X33690000Y-31970000D02*
X33690000Y-34210000D01*
X33690000Y-36290000D02*
X33690000Y-38530000D01*
X33730000Y-32000000D02*
X33730000Y-34210000D01*
X33730000Y-36290000D02*
X33730000Y-38500000D01*
X33770000Y-32031000D02*
X33770000Y-34210000D01*
X33770000Y-36290000D02*
X33770000Y-38469000D01*
X33810000Y-32062000D02*
X33810000Y-34210000D01*
X33810000Y-36290000D02*
X33810000Y-38438000D01*
X33850000Y-32094000D02*
X33850000Y-34210000D01*
X33850000Y-36290000D02*
X33850000Y-38406000D01*
X33890000Y-32127000D02*
X33890000Y-34210000D01*
X33890000Y-36290000D02*
X33890000Y-38373000D01*
X33930000Y-32161000D02*
X33930000Y-34210000D01*
X33930000Y-36290000D02*
X33930000Y-38339000D01*
X33970000Y-32195000D02*
X33970000Y-34210000D01*
X33970000Y-36290000D02*
X33970000Y-38305000D01*
X34010000Y-32231000D02*
X34010000Y-34210000D01*
X34010000Y-36290000D02*
X34010000Y-38269000D01*
X34050000Y-32268000D02*
X34050000Y-38232000D01*
X34090000Y-32305000D02*
X34090000Y-38195000D01*
X34130000Y-32344000D02*
X34130000Y-38156000D01*
X34170000Y-32383000D02*
X34170000Y-38117000D01*
X34210000Y-32424000D02*
X34210000Y-38076000D01*
X34250000Y-32466000D02*
X34250000Y-38034000D01*
X34290000Y-32509000D02*
X34290000Y-37991000D01*
X34330000Y-32554000D02*
X34330000Y-37946000D01*
X34370000Y-32599000D02*
X34370000Y-37901000D01*
X34410000Y-32646000D02*
X34410000Y-37854000D01*
X34450000Y-32695000D02*
X34450000Y-37805000D01*
X34490000Y-32745000D02*
X34490000Y-37755000D01*
X34530000Y-32797000D02*
X34530000Y-37703000D01*
X34570000Y-32850000D02*
X34570000Y-37650000D01*
X34610000Y-32906000D02*
X34610000Y-37594000D01*
X34650000Y-32963000D02*
X34650000Y-37537000D01*
X34690000Y-33023000D02*
X34690000Y-37477000D01*
X34730000Y-33085000D02*
X34730000Y-37415000D01*
X34770000Y-33149000D02*
X34770000Y-37351000D01*
X34810000Y-33216000D02*
X34810000Y-37284000D01*
X34850000Y-33286000D02*
X34850000Y-37214000D01*
X34890000Y-33360000D02*
X34890000Y-37140000D01*
X34930000Y-33437000D02*
X34930000Y-37063000D01*
X34970000Y-33519000D02*
X34970000Y-36981000D01*
X35010000Y-33606000D02*
X35010000Y-36894000D01*
X35050000Y-33698000D02*
X35050000Y-36802000D01*
X35090000Y-33797000D02*
X35090000Y-36703000D01*
X35130000Y-33904000D02*
X35130000Y-36596000D01*
X35170000Y-34022000D02*
X35170000Y-36478000D01*
X35210000Y-34153000D02*
X35210000Y-36347000D01*
X35250000Y-34303000D02*
X35250000Y-36197000D01*
X35290000Y-34482000D02*
X35290000Y-36018000D01*
X35330000Y-34717000D02*
X35330000Y-35783000D01*
X35370000Y-35250000D02*
G75*
G02*
X27130000Y-35250000I-4120000J0D01*
G01*
X27130000Y-35250000D02*
G75*
G02*
X35370000Y-35250000I4120000J0D01*
G01*
%TD*%
M02*
