%TF.GenerationSoftware,KiCad,Pcbnew,9.0.6*%
%TF.CreationDate,2026-02-18T16:38:23+00:00*%
%TF.ProjectId,Multi_Tone,4d756c74-695f-4546-9f6e-652e6b696361,rev?*%
%TF.SameCoordinates,Original*%
%TF.FileFunction,Soldermask,Bot*%
%TF.FilePolarity,Negative*%
%FSLAX46Y46*%
G04 Gerber Fmt 4.6, Leading zero omitted, Abs format (unit mm)*
G04 Created by KiCad (PCBNEW 9.0.6) date 2026-02-18 16:38:23*
%MOMM*%
%LPD*%
G01*
G04 APERTURE LIST*
G04 Aperture macros list*
%AMRoundRect*
0 Rectangle with rounded corners*
0 $1 Rounding radius*
0 $2 $3 $4 $5 $6 $7 $8 $9 X,Y pos of 4 corners*
0 Add a 4 corners polygon primitive as box body*
4,1,4,$2,$3,$4,$5,$6,$7,$8,$9,$2,$3,0*
0 Add four circle primitives for the rounded corners*
1,1,$1+$1,$2,$3*
1,1,$1+$1,$4,$5*
1,1,$1+$1,$6,$7*
1,1,$1+$1,$8,$9*
0 Add four rect primitives between the rounded corners*
20,1,$1+$1,$2,$3,$4,$5,0*
20,1,$1+$1,$4,$5,$6,$7,0*
20,1,$1+$1,$6,$7,$8,$9,0*
20,1,$1+$1,$8,$9,$2,$3,0*%
G04 Aperture macros list end*
%ADD10R,1.700000X1.700000*%
%ADD11R,2.000000X1.905000*%
%ADD12O,2.000000X1.905000*%
%ADD13R,1.050000X1.500000*%
%ADD14O,1.050000X1.500000*%
%ADD15R,1.600000X1.600000*%
%ADD16O,1.600000X1.600000*%
%ADD17C,1.600000*%
%ADD18RoundRect,0.250000X-0.550000X-0.550000X0.550000X-0.550000X0.550000X0.550000X-0.550000X0.550000X0*%
%ADD19RoundRect,0.250000X-1.050000X1.050000X-1.050000X-1.050000X1.050000X-1.050000X1.050000X1.050000X0*%
%ADD20C,2.600000*%
%ADD21RoundRect,0.250000X-0.550000X0.550000X-0.550000X-0.550000X0.550000X-0.550000X0.550000X0.550000X0*%
%ADD22R,1.800000X1.800000*%
%ADD23C,1.800000*%
%ADD24RoundRect,0.250000X0.550000X0.550000X-0.550000X0.550000X-0.550000X-0.550000X0.550000X-0.550000X0*%
%ADD25C,1.440000*%
G04 APERTURE END LIST*
D10*
%TO.C,TP12*%
X86500000Y-65500000D03*
%TD*%
D11*
%TO.C,U3*%
X55750000Y-22330000D03*
D12*
X55750000Y-19790000D03*
X55750000Y-17250000D03*
%TD*%
D13*
%TO.C,Q2*%
X101210000Y-77000000D03*
D14*
X102480000Y-77000000D03*
X103750000Y-77000000D03*
%TD*%
D10*
%TO.C,TP2*%
X28250000Y-17750000D03*
%TD*%
D15*
%TO.C,BR1*%
X39500000Y-25250000D03*
D16*
X39500000Y-20170000D03*
X31880000Y-20170000D03*
X31880000Y-25250000D03*
%TD*%
D17*
%TO.C,C5*%
X72250000Y-71750000D03*
X77250000Y-71750000D03*
%TD*%
D18*
%TO.C,C2*%
X29750000Y-44250000D03*
D17*
X33250000Y-44250000D03*
%TD*%
D13*
%TO.C,Q1*%
X101210000Y-27500000D03*
D14*
X102480000Y-27500000D03*
X103750000Y-27500000D03*
%TD*%
D10*
%TO.C,TP6*%
X39000000Y-40500000D03*
%TD*%
%TO.C,TP4*%
X28250000Y-28000000D03*
%TD*%
%TO.C,TP14*%
X31000000Y-81750000D03*
%TD*%
%TO.C,TP16*%
X31000000Y-87930000D03*
%TD*%
%TO.C,TP10*%
X86250000Y-89500000D03*
%TD*%
%TO.C,TP7*%
X86500000Y-40250000D03*
%TD*%
%TO.C,TP15*%
X69750000Y-33000000D03*
%TD*%
D17*
%TO.C,C12*%
X77000000Y-44330000D03*
X82000000Y-44330000D03*
%TD*%
%TO.C,C8*%
X41000000Y-59500000D03*
X46000000Y-59500000D03*
%TD*%
D19*
%TO.C,J1*%
X20000000Y-17665000D03*
D20*
X20000000Y-22745000D03*
X20000000Y-27825000D03*
%TD*%
D21*
%TO.C,D5*%
X91750000Y-81940000D03*
D17*
X91750000Y-89560000D03*
%TD*%
D18*
%TO.C,U1*%
X66380000Y-44460000D03*
D17*
X66380000Y-47000000D03*
X66380000Y-49540000D03*
X66380000Y-52080000D03*
X74000000Y-52080000D03*
X74000000Y-49540000D03*
X74000000Y-47000000D03*
X74000000Y-44460000D03*
%TD*%
D21*
%TO.C,D3*%
X91750000Y-32500000D03*
D17*
X91750000Y-40120000D03*
%TD*%
D22*
%TO.C,D6*%
X107750000Y-53000000D03*
D23*
X110290000Y-53000000D03*
%TD*%
D10*
%TO.C,TP9*%
X102500000Y-20000000D03*
%TD*%
%TO.C,TP8*%
X39000000Y-36000000D03*
%TD*%
%TO.C,TP11*%
X102500000Y-69500000D03*
%TD*%
D17*
%TO.C,R12*%
X40840000Y-73750000D03*
X51000000Y-73750000D03*
%TD*%
D10*
%TO.C,TP5*%
X63000000Y-28000000D03*
%TD*%
%TO.C,TP3*%
X39000000Y-45000000D03*
%TD*%
D22*
%TO.C,D1*%
X17460000Y-52000000D03*
D23*
X20000000Y-52000000D03*
%TD*%
D17*
%TO.C,C9*%
X71920000Y-60000000D03*
X76920000Y-60000000D03*
%TD*%
%TO.C,C6*%
X67170000Y-84000000D03*
X72170000Y-84000000D03*
%TD*%
D22*
%TO.C,D4*%
X107250000Y-77000000D03*
D23*
X109790000Y-77000000D03*
%TD*%
D18*
%TO.C,C3*%
X45000000Y-18500000D03*
D17*
X48500000Y-18500000D03*
%TD*%
D19*
%TO.C,J2*%
X20000000Y-35000000D03*
D20*
X20000000Y-40080000D03*
X20000000Y-45160000D03*
%TD*%
D18*
%TO.C,C1*%
X45000000Y-28250000D03*
D17*
X48500000Y-28250000D03*
%TD*%
%TO.C,R16*%
X63080000Y-46540000D03*
X52920000Y-46540000D03*
%TD*%
%TO.C,R13*%
X63240000Y-62250000D03*
X53080000Y-62250000D03*
%TD*%
%TO.C,R5*%
X66920000Y-87500000D03*
X77080000Y-87500000D03*
%TD*%
%TO.C,C10*%
X71920000Y-64250000D03*
X66920000Y-64250000D03*
%TD*%
%TO.C,C7*%
X46000000Y-63500000D03*
X41000000Y-63500000D03*
%TD*%
%TO.C,C11*%
X66000000Y-76000000D03*
X71000000Y-76000000D03*
%TD*%
%TO.C,R6*%
X77250000Y-80000000D03*
X67090000Y-80000000D03*
%TD*%
%TO.C,R15*%
X53000000Y-57000000D03*
X63160000Y-57000000D03*
%TD*%
%TO.C,R8*%
X40920000Y-68500000D03*
X51080000Y-68500000D03*
%TD*%
%TO.C,C14*%
X58500000Y-52250000D03*
X63500000Y-52250000D03*
%TD*%
D24*
%TO.C,U2*%
X62170000Y-83750000D03*
D17*
X62170000Y-81210000D03*
X62170000Y-78670000D03*
X62170000Y-76130000D03*
X62170000Y-73590000D03*
X62170000Y-71050000D03*
X62170000Y-68510000D03*
X54550000Y-68510000D03*
X54550000Y-71050000D03*
X54550000Y-73590000D03*
X54550000Y-76130000D03*
X54550000Y-78670000D03*
X54550000Y-81210000D03*
X54550000Y-83750000D03*
%TD*%
D13*
%TO.C,Q3*%
X101210000Y-53000000D03*
D14*
X102480000Y-53000000D03*
X103750000Y-53000000D03*
%TD*%
D22*
%TO.C,D2*%
X107500000Y-27500000D03*
D23*
X110040000Y-27500000D03*
%TD*%
D17*
%TO.C,R11*%
X66920000Y-68000000D03*
X77080000Y-68000000D03*
%TD*%
D11*
%TO.C,U4*%
X48500000Y-42000000D03*
D12*
X48500000Y-39460000D03*
X48500000Y-36920000D03*
%TD*%
D10*
%TO.C,TP13*%
X102500000Y-45500000D03*
%TD*%
%TO.C,TP1*%
X79000000Y-49460000D03*
%TD*%
D19*
%TO.C,J3*%
X21000000Y-81920000D03*
D20*
X21000000Y-87000000D03*
%TD*%
D21*
%TO.C,D7*%
X91750000Y-58000000D03*
D17*
X91750000Y-65620000D03*
%TD*%
D25*
%TO.C,RV1*%
X68000000Y-38000000D03*
X65460000Y-38000000D03*
X62920000Y-38000000D03*
%TD*%
D17*
%TO.C,R1*%
X16000000Y-57000000D03*
X26160000Y-57000000D03*
%TD*%
%TO.C,C13*%
X46250000Y-77500000D03*
X51250000Y-77500000D03*
%TD*%
D18*
%TO.C,C4*%
X29500000Y-35250000D03*
D17*
X33000000Y-35250000D03*
%TD*%
M02*
